{
.appVersion = "3184";
.formatVersion = 3;
DisplayStrings = (
"/bullet.case/bullet.case/bullet.case/bullet.case/bullet.case/bullet.case/bullet.case/bullet.case"
);
axes = (
{
name = Width;
tag = wdth;
},
{
name = Weight;
tag = wght;
}
);
customParameters = (
{
name = "Use Typo Metrics";
value = 1;
},
{
name = "Use Extension Kerning";
value = 1;
},
{
name = "Variable Font Origin";
value = m002;
},
{
name = fsType;
value = (
);
},
{
name = "Axis Mappings";
value = {
wdth = {
75 = 75;
88 = 87.5;
100 = 100;
};
wght = {
400 = 400;
500 = 500;
600 = 600;
700 = 700;
};
};
}
);
date = "2022-07-30 15:19:26 +0000";
familyName = "Instrument Sans";
featurePrefixes = (
{
automatic = 1;
code = "languagesystem DFLT dflt;

languagesystem latn dflt;
languagesystem latn AZE;
languagesystem latn CRT;
languagesystem latn KAZ;
languagesystem latn TAT;
languagesystem latn TRK;
languagesystem latn ROM;
languagesystem latn MOL;
languagesystem latn CAT;
";
name = Languagesystems;
}
);
features = (
{
automatic = 1;
code = "feature locl;
feature ordn;
feature pnum;
feature tnum;
feature case;
feature ss01;
feature ss02;
feature ss03;
feature ss04;
feature ss05;
feature ss06;
feature ss07;
feature ss08;
feature ss09;
feature ss10;
feature ss11;
feature ss12;
";
tag = aalt;
},
{
code = "lookup ccmp_Other_1 {
	@CombiningTopAccents = [acutecomb brevecomb caroncomb circumflexcomb commaturnedabovecomb dieresiscomb dotaccentcomb gravecomb hungarumlautcomb macroncomb ringcomb tildecomb];
	@CombiningNonTopAccents = [cedillacomb ogonekcomb];
	sub [i j]' @CombiningTopAccents by [idotless jdotless];
	sub [i j]' @CombiningNonTopAccents @CombiningTopAccents by [idotless jdotless];
    sub iogonek' @CombiningTopAccents by idotless ogonekcomb;
} ccmp_Other_1;
";
tag = ccmp;
},
{
automatic = 1;
code = "lookup locl_latn_0 {
	script latn;
	language AZE;
	sub i by idotaccent;
	language CRT;
	sub i by idotaccent;
	language KAZ;
	sub i by idotaccent;
	language TAT;
	sub i by idotaccent;
	language TRK;

glyphs = (
{
glyphname = A;
kernLeft = KO_A;
kernRight = KO_A;
lastChange = "2023-03-03 20:56:29 +0000";
layers = (
{
anchors = (
{
name = bottom;
pos = (224,0);
},
{
name = ogonek;
pos = (424,0);
},
{
name = top;
pos = (224,720);
}
);
background = {
shapes = (
{
closed = 1;
nodes = (
(90,0,l),
(239,720,l),
(179,720,l),
(24,0,l)
);
},
{
closed = 1;
nodes = (
(424,0,l),
(269,720,l),
(205,720,l),
(354,0,l)
);
},
{
closed = 1;
nodes = (
(106,214,l),
(340,214,l),
(340,276,l),
(106,276,l)
);
}
);
};
guides = (
{
angle = 167.8509;
pos = (102,360);
showMeasurement = 1;
},
{
angle = 12.1491;
pos = (347,360);
showMeasurement = 1;
}
);
layerId = m01;
shapes = (
{
closed = 1;
nodes = (
(88,0,l),
(235,720,l),
(179,720,l),
(24,0,l)
);
},
{
closed = 1;
nodes = (
(424,0,l),
(269,720,l),
(209,720,l),
(354,0,l)
);
},
{
closed = 1;
nodes = (
(106,215,l),
(340,215,l),
(340,275,l),
(106,275,l)
);
}
);
width = 448;
},
{
anchors = (
{
name = bottom;
pos = (364,0);
},
{
name = ogonek;
pos = (692,0);
},
{
name = top;
pos = (364,720);
}
);
layerId = m002;
shapes = (
{
closed = 1;
nodes = (
(115,0,l),
(386,720,l),
(314,720,l),
(36,0,l)
);
},
{
closed = 1;
nodes = (
(692,0,l),
(414,720,l),
(337,720,l),
(608,0,l)
);
},
{
closed = 1;
nodes = (
(174,219,l),
(550,219,l),
(550,291,l),
(174,291,l)
);
}
);
width = 728;
},
{
anchors = (
{
name = bottom;
pos = (245,0);
},
{
name = ogonek;
pos = (478,0);
},
{
name = top;
pos = (245,720);
}
);
background = {
shapes = (
{
closed = 1;
nodes = (
(150,0,l),
(273,720,l),
(153,720,l),
(12,0,l)
);
},
{
closed = 1;
nodes = (
(478,0,l),
(337,720,l),
(212,720,l),
(335,0,l)
);
},
{
closed = 1;
nodes = (
(110,152,l),
(380,152,l),
(380,268,l),
(110,268,l)
);
}
);
};
layerId = m003;
shapes = (
{
closed = 1;
nodes = (
(145,0,l),
(258,720,l),
(153,720,l),
(12,0,l)
);
},
{
closed = 1;
nodes = (
(478,0,l),
(337,720,l),
(222,720,l),
(335,0,l)
);
},
{
closed = 1;
nodes = (
(110,155,l),
(380,155,l),
(380,265,l),
(110,265,l)
);
}
);
width = 490;
},
{
anchors = (
{
name = bottom;
pos = (368,0);
},
{
name = ogonek;
pos = (712,0);
},
{
name = top;
pos = (368,720);
}
);
background = {
shapes = (
{
closed = 1;
nodes = (
(177,0,l),
(414,720,l),
(282,720,l),
(24,0,l)
);
},
{
closed = 1;
nodes = (
(712,0,l),
(454,720,l),
(316,720,l),
(552,0,l)
);
},
{
closed = 1;
nodes = (
(160,159,l),
(564,159,l),
(564,279,l),
(160,279,l)
);
}
);
};
layerId = m004;
shapes = (
{
closed = 1;
nodes = (
(177,0,l),
(414,720,l),
(282,720,l),
(24,0,l)
);
},
{
closed = 1;
nodes = (
(712,0,l),
(454,720,l),
(316,720,l),
(552,0,l)
);
},
{
closed = 1;
nodes = (
(160,159,l),
(564,159,l),
(564,279,l),
(160,279,l)
);
}
);
width = 736;
}
);
unicode = 65;
userData = {
KernOnName = A;
};
},
{
glyphname = AE;
kernLeft = KO_A;
kernRight = KO_E;
lastChange = "2023-02-07 19:26:43 +0000";
layers = (
{
background = {
shapes = (
{
closed = 1;
nodes = (
(106,214,l),
(340,214,l),
(340,276,l),
(106,276,l)
);
}
);
};
layerId = m01;
shapes = (
{
closed = 1;
nodes = (
(90,0,l),
(239,720,l),
(179,720,l),
(24,0,l)
);
},
{
closed = 1;
nodes = (
(388,0,l),
(388,720,l),
(318,720,l),
(318,0,l)
);
},
{
closed = 1;
nodes = (
(613,0,l),
(613,62,l),
(360,62,l),
(360,0,l)
);
},
{
closed = 1;
nodes = (
(591,344,l),
(591,406,l),
(149,406,l),
(149,344,l)
);
},
{
closed = 1;
nodes = (
(605,658,l),
(605,720,l),
(194,720,l),
(194,658,l)
);
}
);
width = 663;
},
{
guides = (
{
angle = 158.8879;
pos = (115,100);
showMeasurement = 1;
}
);
layerId = m002;
shapes = (
{
closed = 1;
nodes = (
(115,0,l),
(386,720,l),
(314,720,l),
(36,0,l)
);
},
{
closed = 1;
nodes = (
(556,0,l),
(556,720,l),
(474,720,l),
(474,0,l)
);
},
{
closed = 1;
nodes = (
(866,0,l),
(866,72,l),
(516,72,l),
(516,0,l)
);
},
{
closed = 1;
nodes = (
(830,339,l),
(830,411,l),
(221,411,l),
(221,339,l)
);
},
{
closed = 1;
nodes = (
(858,648,l),
(858,720,l),
(337,720,l),
(337,648,l)
);
}
);
width = 936;
},
{
background = {
shapes = (
{
closed = 1;
nodes = (
(146,0,l),
(269,720,l),
(153,720,l),
(12,0,l)
);
},
{
closed = 1;
nodes = (
(482,0,l),
(482,720,l),
(340,720,l),
(340,0,l)
);
},
{
closed = 1;
nodes = (
(672,0,l),
(672,120,l),
(412,120,l),
(412,0,l)
);
},
{
closed = 1;
nodes = (
(654,312,l),
(654,430,l),
(182,430,l),
(182,312,l)
);
},
{
closed = 1;
nodes = (
(664,600,l),
(664,720,l),
(182,720,l),
(182,600,l)
);
}
);
};
layerId = m003;
shapes = (
{
closed = 1;
nodes = (
(146,0,l),
(269,720,l),
(153,720,l),
(12,0,l)
);
},
{
closed = 1;
nodes = (
(482,0,l),
(482,720,l),
(340,720,l),
(340,0,l)
);
},
{
closed = 1;
nodes = (
(672,0,l),
(672,110,l),
(412,110,l),
(412,0,l)
);
},
{
closed = 1;
nodes = (
(654,317,l),
(654,425,l),
(182,425,l),
(182,317,l)
);
},
{
closed = 1;
nodes = (
(664,610,l),
(664,720,l),
(182,720,l),
(182,610,l)
);
}
);
width = 710;
},
{
background = {
shapes = (
{
closed = 1;
nodes = (
(177,0,l),
(428,720,l),
(282,720,l),
(24,0,l)
);
},
{
closed = 1;
nodes = (
(641,0,l),
(641,720,l),
(487,720,l),
(487,0,l)
);
},
{
closed = 1;
nodes = (
(943,0,l),
(943,128,l),
(559,128,l),
(559,0,l)
);
},
{
closed = 1;
nodes = (
(908,305,l),
(908,431,l),
(240,431,l),
(240,305,l)
);
},
{
closed = 1;
nodes = (
(931,592,l),
(931,720,l),
(337,720,l),
(337,592,l)
);
}
);
};
layerId = m004;
shapes = (
{
closed = 1;
nodes = (
(177,0,l),
(416,720,l),
(282,720,l),
(24,0,l)
);
},
{
closed = 1;
nodes = (
(641,0,l),
(641,720,l),
(487,720,l),
(487,0,l)
);
},
{
closed = 1;
nodes = (
(943,0,l),
(943,118,l),
(559,118,l),
(559,0,l)
);
},
{
closed = 1;
nodes = (
(908,310,l),
(908,426,l),
(240,426,l),
(240,310,l)
);
},
{
closed = 1;
nodes = (
(931,602,l),
(931,720,l),
(337,720,l),
(337,602,l)
);
}
);
width = 983;
}
);
metricLeft = A;
metricRight = E;
unicode = 198;
},
{
glyphname = B;
kernLeft = KO_B;
kernRight = KO_B;
lastChange = "2023-02-07 18:20:01 +0000";
layers = (
{
background = {
shapes = (
{
ref = E;
}
);
};
layerId = m01;
shapes = (
{
closed = 1;
nodes = (
(209,0,ls),
(323,0,o),
(395,77,o),
(395,196,cs),
(395,314,o),
(325,390,o),
(214,390,c),
(214,369,l),
(317,369,o),
(380,432,o),
(380,538,cs),
(380,650,o),
(309,720,o),
(201,720,cs),
(112,720,l),
(112,662,l),
(201,662,ls),
(269,662,o),
(310,616,o),
(310,534,cs),
(310,451,o),
(268,406,o),
(196,406,cs),
(112,406,l),
(112,348,l),
(202,348,ls),
(276,348,o),
(323,289,o),
(323,198,cs),
(323,113,o),
(280,58,o),
(209,58,cs),
(112,58,l),
(112,0,l)
);
},
{
closed = 1;
nodes = (
(140,0,l),
(140,720,l),
(70,720,l),
(70,0,l)
);
}
);
width = 433;
},
{
background = {
shapes = (
{
closed = 1;
nodes = (
(168,0,l),
(168,720,l),
(86,720,l),
(86,0,l)
);
},
{
closed = 1;
nodes = (
(568,0,l),
(568,70,l),
(128,70,l),
(128,0,l)
);
},
{
closed = 1;
nodes = (
(532,340,l),
(532,410,l),
(128,410,l),
(128,340,l)
);
},
{
closed = 1;
nodes = (
(560,650,l),
(560,720,l),
(128,720,l),
(128,650,l)
);
}
);
};
layerId = m002;
shapes = (
{
closed = 1;
nodes = (
(377,0,ls),
(509,0,o),
(598,77,o),
(598,192,cs),
(598,305,o),
(515,390,o),
(405,390,c),
(400,369,l),
(504,369,o),
(578,442,o),
(578,545,cs),
(578,653,o),
(496,720,o),
(364,720,cs),
(140,720,l),
(140,652,l),
(357,652,ls),
(447,652,o),
(496,611,o),
(496,536,cs),
(496,456,o),
(443,410,o),
(352,410,cs),
(140,410,l),
(140,344,l),
(363,344,ls),
(455,344,o),
(514,288,o),
(514,201,cs),
(514,119,o),
(458,68,o),
(370,68,cs),
(140,68,l),
(140,0,l)
);
},
{
closed = 1;
nodes = (
(168,0,l),
(168,720,l),
(86,720,l),
(86,0,l)
);
}
);
width = 636;
},
{
background = {
shapes = (
{
closed = 1;
nodes = (
(256,0,ls),
(370,0,o),
(447,77,o),
(447,196,cs),
(447,314,o),
(377,390,o),
(296,390,c),
(296,369,l),
(369,369,o),
(432,432,o),
(432,538,cs),
(432,650,o),
(356,720,o),
(248,720,cs),
(164,720,l),
(164,608,l),
(221,608,ls),
(267,608,o),
(294,578,o),
(294,520,cs),
(294,462,o),
(266,432,o),
(218,432,cs),
(164,432,l),
(164,322,l),
(221,322,ls),
(274,322,o),
(307,281,o),
(307,213,cs),
(307,151,o),
(277,112,o),
(226,112,cs),
(164,112,l),
(164,0,l)
);
},
{
closed = 1;
nodes = (
(192,0,l),
(192,720,l),
(50,720,l),
(50,0,l)
);
}
);
};
layerId = m003;
shapes = (
{
closed = 1;
nodes = (
(256,0,ls),
(370,0,o),
(447,77,o),
(447,196,cs),
(447,314,o),
(377,390,o),
(296,390,c),
(296,369,l),
(369,369,o),
(432,432,o),
(432,538,cs),
(432,650,o),
(356,720,o),
(248,720,cs),
(164,720,l),
(164,614,l),
(221,614,ls),
(267,614,o),
(294,584,o),
(294,521,cs),
(294,458,o),
(266,428,o),
(218,428,cs),
(164,428,l),
(164,326,l),
(221,326,ls),
(274,326,o),
(307,285,o),
(307,212,cs),
(307,145,o),
(277,106,o),
(226,106,cs),
(164,106,l),
(164,0,l)
);
},
{
closed = 1;
nodes = (
(192,0,l),
(192,720,l),
(50,720,l),
(50,0,l)
);
}
);
width = 471;
},
{
background = {
shapes = (
{
closed = 1;
nodes = (
(204,0,l),
(204,720,l),
(50,720,l),
(50,0,l)
);
},
{
closed = 1;
nodes = (
(586,0,l),
(586,124,l),
(122,124,l),
(122,0,l)
);
},
{
closed = 1;
nodes = (
(551,307,l),
(551,429,l),
(122,429,l),
(122,307,l)
);
},
{
closed = 1;
nodes = (
(574,596,l),
(574,720,l),
(122,720,l),
(122,596,l)
);
}
);
};
layerId = m004;
shapes = (
{
closed = 1;
nodes = (
(398,0,ls),
(532,0,o),
(619,77,o),
(619,196,cs),
(619,314,o),
(529,390,o),
(418,390,c),
(413,369,l),
(516,369,o),
(599,432,o),
(599,538,cs),
(599,650,o),
(513,720,o),
(385,720,cs),
(176,720,l),
(176,610,l),
(352,610,ls),
(413,610,o),
(445,580,o),
(445,521,cs),
(445,462,o),
(412,432,o),
(349,432,cs),
(176,432,l),
(176,322,l),
(357,322,ls),
(425,322,o),
(463,281,o),
(463,214,cs),
(463,149,o),
(428,110,o),
(362,110,cs),
(176,110,l),
(176,0,l)
);
},
{
closed = 1;
nodes = (
(204,0,l),
(204,720,l),
(50,720,l),
(50,0,l)
);
}
);
width = 649;
}
);
unicode = 66;
},
{
glyphname = C;
kernLeft = KO_O;
kernRight = KO_C;
lastChange = "2023-03-03 20:57:22 +0000";
layers = (
{
anchors = (
{
name = bottom;
pos = (241,0);
},
{
name = top;
pos = (241,720);
}
);
layerId = m01;
shapes = (
{
closed = 1;
nodes = (
(356,-10,o),
(426,96,o),
(426,269,c),
(355,269,l),
(355,130,o),
(315,54,o),
(243,54,cs),
(157,54,o),
(112,161,o),
(112,363,cs),
(112,563,o),
(159,666,o),
(242,666,cs),
(317,666,o),
(357,592,o),
(357,451,c),
(427,451,l),
(427,624,o),
(357,730,o),
(242,730,cs),
(116,730,o),
(40,597,o),
(40,362,cs),
(40,127,o),
(114,-10,o),
(242,-10,cs)
);
}
);
width = 461;
},
{
anchors = (
{
name = bottom;
pos = (389,0);
},
{
name = top;
pos = (389,720);
}
);
background = {
shapes = (
{
closed = 1;
nodes = (
(591,-10,o),
(736,147,o),
(736,362,cs),
(736,577,o),
(593,730,o),
(392,730,cs),
(193,730,o),
(50,577,o),
(50,363,cs),
(50,147,o),
(194,-10,o),
(393,-10,cs)
);
},
{
closed = 1;
nodes = (
(238,64,o),
(134,188,o),
(134,364,cs),
(134,537,o),
(236,656,o),
(392,656,cs),
(548,656,o),
(652,536,o),
(652,364,cs),
(652,189,o),
(546,64,o),
(392,64,cs)
);
}
);
};
guides = (
{
angle = 180;
pos = (640,465);
},
{
pos = (641,253);
}
);
layerId = m002;
shapes = (
{
closed = 1;
nodes = (
(554,-10,o),
(674,95,o),
(695,256,c),
(613,256,l),
(598,138,o),
(514,64,o),
(390,64,cs),
(237,64,o),
(134,184,o),
(134,360,cs),
(134,535,o),
(236,656,o),
(391,656,cs),
(512,656,o),
(595,583,o),
(611,464,c),
(693,464,l),
(672,624,o),
(551,730,o),
(390,730,cs),
(192,730,o),
(50,575,o),
(50,360,cs),
(50,145,o),
(193,-10,o),
(391,-10,cs)
);
}
);
width = 741;
},
{
anchors = (
{
name = bottom;
pos = (262,0);
},
{
name = top;
pos = (262,720);
}
);
background = {
shapes = (
{
closed = 1;
nodes = (
(395,-10,o),
(475,99,o),
(475,283,c),
(334,283,l),
(334,171,o),
(308,112,o),
(259,112,cs),
(202,112,o),
(174,185,o),
(174,364,cs),
(174,541,o),
(201,608,o),
(259,608,cs),
(310,608,o),
(335,552,o),
(335,437,c),
(475,437,l),
(475,624,o),
(398,730,o),
(262,730,cs),
(112,730,o),
(30,600,o),
(30,360,cs),
(30,121,o),
(111,-10,o),
(259,-10,cs)
);
}
);
};
guides = (
{
pos = (390,283);
},
{
angle = 180;
pos = (390,437);
}
);
layerId = m003;
shapes = (
{
closed = 1;
nodes = (
(395,-10,o),
(475,99,o),
(475,283,c),
(334,283,l),
(334,161,o),
(308,102,o),
(259,102,cs),
(202,102,o),
(174,175,o),
(174,364,cs),
(174,551,o),
(201,618,o),
(259,618,cs),
(310,618,o),
(335,562,o),
(335,437,c),
(475,437,l),
(475,624,o),
(398,730,o),
(262,730,cs),
(112,730,o),
(30,600,o),
(30,360,cs),
(30,121,o),
(111,-10,o),
(259,-10,cs)
);
}
);
width = 503;
},
{
anchors = (
{
name = bottom;
pos = (385,0);
},
{
name = top;
pos = (385,720);
}
);
background = {
shapes = (
{
closed = 1;
nodes = (
(567,-10,o),
(700,99,o),
(726,267,c),
(570,267,l),
(550,176,o),
(481,120,o),
(394,120,cs),
(272,120,o),
(186,219,o),
(186,364,cs),
(186,506,o),
(270,600,o),
(392,600,cs),
(484,600,o),
(553,543,o),
(570,452,c),
(724,452,l),
(703,619,o),
(569,730,o),
(391,730,cs),
(180,730,o),
(30,579,o),
(30,363,cs),
(30,146,o),
(182,-10,o),
(391,-10,cs)
);
}
);
};
guides = (
{
angle = 180;
pos = (551,433);
},
{
pos = (551,287);
}
);
layerId = m004;
shapes = (
{
closed = 1;
nodes = (
(567,-10,o),
(700,99,o),
(726,267,c),
(574,267,l),
(554,164,o),
(481,112,o),
(394,112,cs),
(272,112,o),
(186,207,o),
(186,364,cs),
(186,518,o),
(270,608,o),
(392,608,cs),
(484,608,o),
(557,555,o),
(574,452,c),
(724,452,l),
(703,619,o),
(569,730,o),
(391,730,cs),
(180,730,o),
(30,579,o),
(30,363,cs),
(30,146,o),
(182,-10,o),
(391,-10,cs)
);
}
);
width = 750;
}
);
unicode = 67;
userData = {
KernOnName = C;
};
},
{
glyphname = D;
kernRight = KO_D;
lastChange = "2023-03-03 20:58:26 +0000";
layers = (
{
anchors = (
{
name = bottom;
pos = (248,0);
},
{
name = center;
pos = (248,360);
},
{
name = top;
pos = (248,720);
}
);
background = {
shapes = (
{
ref = H;
}
);
};
layerId = m01;
shapes = (
{
closed = 1;
nodes = (
(216,0,ls),
(366,0,o),
(456,128,o),
(456,362,cs),
(456,595,o),
(367,720,o),
(215,720,cs),
(114,720,l),
(114,658,l),
(215,658,ls),
(329,658,o),
(384,562,o),
(384,364,cs),
(384,163,o),
(327,62,o),
(215,62,cs),
(119,62,l),
(119,0,l)
);
},
{
closed = 1;
nodes = (
(140,0,l),
(140,720,l),
(70,720,l),
(70,0,l)
);
}
);
width = 496;
},
{
anchors = (
{
name = bottom;
pos = (376,0);
},
{
name = center;
pos = (376,360);
},
{
name = top;
pos = (376,720);
}
);
background = {
shapes = (
{
ref = H;
}
);
};
layerId = m002;
shapes = (
{
closed = 1;
nodes = (
(329,0,ls),
(552,0,o),
(702,147,o),
(702,362,cs),
(702,577,o),
(554,720,o),
(328,720,cs),
(135,720,l),
(135,648,l),
(328,648,ls),
(509,648,o),
(618,536,o),
(618,364,cs),
(618,189,o),
(507,72,o),
(328,72,cs),
(135,72,l),
(135,0,l)
);
},
{
closed = 1;
nodes = (
(168,0,l),
(168,720,l),
(86,720,l),
(86,0,l)
);
}
);
width = 752;
},
{
anchors = (
{
name = bottom;
pos = (266,0);
},
{
name = center;
pos = (266,360);
},
{
name = top;
pos = (266,720);
}
);
background = {
shapes = (
{
closed = 1;
nodes = (
(233,0,ls),
(407,0,o),
(501,127,o),
(501,362,cs),
(501,596,o),
(408,720,o),
(232,720,cs),
(140,720,l),
(140,600,l),
(232,600,ls),
(320,600,o),
(357,530,o),
(357,364,cs),
(357,194,o),
(319,120,o),
(232,120,cs),
(128,120,l),
(128,0,l)
);
},
{
closed = 1;
nodes = (
(192,0,l),
(192,720,l),
(50,720,l),
(50,0,l)
);
}
);
};
layerId = m003;
shapes = (
{
closed = 1;
nodes = (
(233,0,ls),
(397,0,o),
(501,127,o),
(501,362,cs),
(501,596,o),
(398,720,o),
(232,720,cs),
(140,720,l),
(140,610,l),
(232,610,ls),
(320,610,o),
(357,540,o),
(357,364,cs),
(357,184,o),
(319,110,o),
(232,110,cs),
(128,110,l),
(128,0,l)
);
},
{
closed = 1;
nodes = (
(192,0,l),
(192,720,l),
(50,720,l),
(50,0,l)
);
}
);
width = 531;
},
{
anchors = (
{
name = bottom;
pos = (380,0);
},
{
name = center;
pos = (380,360);
},
{
name = top;
pos = (380,720);
}
);
background = {
shapes = (
{
closed = 1;
nodes = (
(327,0,ls),
(566,0,o),
(726,142,o),
(726,362,cs),
(726,582,o),
(568,720,o),
(326,720,cs),
(147,720,l),
(147,590,l),
(326,590,ls),
(484,590,o),
(570,504,o),
(570,364,cs),
(570,222,o),
(482,130,o),
(326,130,cs),
(144,130,l),
(144,0,l)
);
},
{
closed = 1;
nodes = (
(204,0,l),
(204,720,l),
(50,720,l),
(50,0,l)
);
}
);
};
layerId = m004;
shapes = (
{
closed = 1;
nodes = (
(327,0,ls),
(566,0,o),
(726,142,o),
(726,362,cs),
(726,582,o),
(568,720,o),
(326,720,cs),
(147,720,l),
(147,600,l),
(326,600,ls),
(484,600,o),
(570,504,o),
(570,364,cs),
(570,222,o),
(482,120,o),
(326,120,cs),
(144,120,l),
(144,0,l)
);
},
{
closed = 1;
nodes = (
(204,0,l),
(204,720,l),
(50,720,l),
(50,0,l)
);
}
);
width = 756;
}
);
metricRight = O;
unicode = 68;
userData = {
KernOnSpecialSpacing = {
L = NoKerning;
};
};
},
{
glyphname = Eth;
kernRight = KO_D;
lastChange = "2023-03-03 20:58:07 +0000";
layers = (
{
layerId = m01;
shapes = (
{
ref = D;
},
{
closed = 1;
nodes = (
(267,331,l),
(267,389,l),
(0,389,l),
(0,331,l)
);
}
);
width = 496;
},
{
layerId = m002;
shapes = (
{
ref = D;
},
{
closed = 1;
nodes = (
(377,326,l),
(377,394,l),
(0,394,l),
(0,326,l)
);
}
);
width = 752;
},
{
layerId = m003;
shapes = (
{
pos = (10,0);
ref = D;
},
{
closed = 1;
nodes = (
(287,307,l),
(287,417,l),
(10,417,l),
(10,307,l)
);
}
);
width = 541;
},
{
layerId = m004;
shapes = (
{
pos = (20,0);
ref = D;
},
{
closed = 1;
nodes = (
(397,302,l),
(397,422,l),
(10,422,l),
(10,302,l)
);
}
);
width = 772;
}
);
unicode = 208;
},
{
glyphname = E;
kernRight = KO_E;
lastChange = "2023-02-07 18:23:56 +0000";
layers = (
{
anchors = (
{
name = bottom;
pos = (208,0);
},
{
name = ogonek;
pos = (325,0);
},
{
name = top;
pos = (218,720);
},
{
name = topleft;
pos = (20,720);
}
);
background = {
shapes = (
{
ref = H;
}
);
};
layerId = m01;
shapes = (
{
closed = 1;
nodes = (
(140,0,l),
(140,720,l),
(70,720,l),
(70,0,l)
);
},
{
closed = 1;
nodes = (
(365,0,l),
(365,62,l),
(112,62,l),
(112,0,l)
);
},
{
closed = 1;
nodes = (
(343,344,l),
(343,406,l),
(112,406,l),
(112,344,l)
);
},
{
closed = 1;
nodes = (
(357,658,l),
(357,720,l),
(112,720,l),
(112,658,l)
);
}
);
width = 415;
},
{
anchors = (
{
name = bottom;
pos = (319,0);
},
{
name = ogonek;
pos = (538,0);
},
{
name = top;
pos = (329,720);
},
{
name = topleft;
pos = (20,720);
}
);
background = {
shapes = (
{
ref = H;
}
);
};
layerId = m002;
shapes = (
{
closed = 1;
nodes = (
(168,0,l),
(168,720,l),
(86,720,l),
(86,0,l)
);
},
{
closed = 1;
nodes = (
(568,0,l),
(568,72,l),
(128,72,l),
(128,0,l)
);
},
{
closed = 1;
nodes = (
(532,339,l),
(532,411,l),
(128,411,l),
(128,339,l)
);
},
{
closed = 1;
nodes = (
(560,648,l),
(560,720,l),
(128,720,l),
(128,648,l)
);
}
);
width = 638;
},
{
anchors = (
{
name = bottom;
pos = (210,0);
},
{
name = ogonek;
pos = (342,0);
},
{
name = top;
pos = (220,720);
},
{
name = topleft;
pos = (20,720);
}
);
background = {
shapes = (
{
closed = 1;
nodes = (
(192,0,l),
(192,720,l),
(50,720,l),
(50,0,l)
);
},
{
closed = 1;
nodes = (
(382,0,l),
(382,120,l),
(122,120,l),
(122,0,l)
);
},
{
closed = 1;
nodes = (
(364,312,l),
(364,430,l),
(122,430,l),
(122,312,l)
);
},
{
closed = 1;
nodes = (
(374,600,l),
(374,720,l),
(122,720,l),
(122,600,l)
);
}
);
};
layerId = m003;
shapes = (
{
closed = 1;
nodes = (
(192,0,l),
(192,720,l),
(50,720,l),
(50,0,l)
);
},
{
closed = 1;
nodes = (
(382,0,l),
(382,110,l),
(122,110,l),
(122,0,l)
);
},
{
closed = 1;
nodes = (
(364,317,l),
(364,425,l),
(122,425,l),
(122,317,l)
);
},
{
closed = 1;
nodes = (
(374,610,l),
(374,720,l),
(122,720,l),
(122,610,l)
);
}
);
width = 420;
},
{
anchors = (
{
name = bottom;
pos = (315,0);
},
{
name = ogonek;
pos = (546,0);
},
{
name = top;
pos = (325,720);
},
{
name = topleft;
pos = (24,720);
}
);
background = {
shapes = (
{
closed = 1;
nodes = (
(204,0,l),
(204,720,l),
(50,720,l),
(50,0,l)
);
},
{
closed = 1;
nodes = (
(586,0,l),
(586,128,l),
(122,128,l),
(122,0,l)
);
},
{
closed = 1;
nodes = (
(551,305,l),
(551,431,l),
(122,431,l),
(122,305,l)
);
},
{
closed = 1;
nodes = (
(574,592,l),
(574,720,l),
(122,720,l),
(122,592,l)
);
}
);
};
layerId = m004;
shapes = (
{
closed = 1;
nodes = (
(204,0,l),
(204,720,l),
(50,720,l),
(50,0,l)
);
},
{
closed = 1;
nodes = (
(586,0,l),
(586,118,l),
(122,118,l),
(122,0,l)
);
},
{
closed = 1;
nodes = (
(551,310,l),
(551,426,l),
(122,426,l),
(122,310,l)
);
},
{
closed = 1;
nodes = (
(574,602,l),
(574,720,l),
(122,720,l),
(122,602,l)
);
}
);
width = 626;
}
);
unicode = 69;
userData = {
KernOnName = E;
KernOnSpecialSpacing = {
L = NoKerning;
};
};
},
{
glyphname = F;
kernRight = KO_F;
lastChange = "2023-02-07 18:25:52 +0000";
layers = (
{
background = {
shapes = (
{
closed = 1;
nodes = (
(237,0,ls),
(247,0,o),
(252,4,o),
(252,12,cs),
(252,18,o),
(248,22,o),
(241,23,cs),
(194,30,ls),
(166,34,o),
(160,43,o),
(160,71,cs),
(160,344,ls),
(160,353,o),
(165,358,o),
(174,358,cs),
(211,358,ls),
(241,358,o),
(258,347,o),
(266,301,cs),
(274,253,ls),
(275,245,o),
(282,239,o),
(290,240,cs),
(297,241,o),
(301,246,o),
(301,257,cs),
(301,480,ls),
(301,491,o),
(297,496,o),
(290,497,cs),
(282,498,o),
(275,492,o),
(274,484,cs),
(266,435,ls),
(261,402,o),
(242,388,o),
(212,388,cs),
(174,388,ls),
(165,388,o),
(160,393,o),
(160,402,cs),
(160,638,ls),
(160,676,o),
(177,695,o),
(236,695,cs),
(292,695,o),
(343,674,o),
(355,582,cs),
(362,527,ls),
(363,519,o),
(368,514,o),
(376,514,cs),
(384,514,o),
(390,520,o),
(389,531,cs),
(381,697,ls),
(380,712,o),
(371,720,o),
(356,720,cs),
(34,720,ls),
(24,720,o),
(19,716,o),
(19,709,cs),
(19,703,o),
(23,699,o),
(32,697,cs),
(55,693,ls),
(83,688,o),
(89,682,o),
(89,654,cs),
(89,66,ls),
(89,38,o),
(83,32,o),
(55,27,cs),
(32,23,ls),
(23,21,o),
(19,17,o),
(19,11,cs),
(19,4,o),
(24,0,o),
(34,0,cs)
);
}
);
};
layerId = m01;
shapes = (
{
closed = 1;
nodes = (
(140,0,l),
(140,720,l),
(70,720,l),
(70,0,l)
);
},
{
closed = 1;
nodes = (
(327,314,l),
(327,376,l),
(112,376,l),
(112,314,l)
);
},
{
closed = 1;
nodes = (
(341,658,l),
(341,720,l),
(112,720,l),
(112,658,l)
);
}
);
width = 381;
},
{
background = {
shapes = (
{
closed = 1;
nodes = (
(237,0,ls),
(247,0,o),
(252,4,o),
(252,12,cs),
(252,18,o),
(248,22,o),
(241,23,cs),
(194,30,ls),
(166,34,o),
(160,43,o),
(160,71,cs),
(160,344,ls),
(160,353,o),
(165,358,o),
(174,358,cs),
(211,358,ls),
(241,358,o),
(258,347,o),
(266,301,cs),
(274,253,ls),
(275,245,o),
(282,239,o),
(290,240,cs),
(297,241,o),
(301,246,o),
(301,257,cs),
(301,480,ls),
(301,491,o),
(297,496,o),
(290,497,cs),
(282,498,o),
(275,492,o),
(274,484,cs),
(266,435,ls),
(261,402,o),
(242,388,o),
(212,388,cs),
(174,388,ls),
(165,388,o),
(160,393,o),
(160,402,cs),
(160,638,ls),
(160,676,o),
(177,695,o),
(236,695,cs),
(292,695,o),
(343,674,o),
(355,582,cs),
(362,527,ls),
(363,519,o),
(368,514,o),
(376,514,cs),
(384,514,o),
(390,520,o),
(389,531,cs),
(381,697,ls),
(380,712,o),
(371,720,o),
(356,720,cs),
(34,720,ls),
(24,720,o),
(19,716,o),
(19,709,cs),
(19,703,o),
(23,699,o),
(32,697,cs),
(55,693,ls),
(83,688,o),
(89,682,o),
(89,654,cs),
(89,66,ls),
(89,38,o),
(83,32,o),
(55,27,cs),
(32,23,ls),
(23,21,o),
(19,17,o),
(19,11,cs),
(19,4,o),
(24,0,o),
(34,0,cs)
);
}
);
};
layerId = m002;
shapes = (
{
closed = 1;
nodes = (
(168,0,l),
(168,720,l),
(86,720,l),
(86,0,l)
);
},
{
closed = 1;
nodes = (
(516,309,l),
(516,381,l),
(128,381,l),
(128,309,l)
);
},
{
closed = 1;
nodes = (
(544,648,l),
(544,720,l),
(128,720,l),
(128,648,l)
);
}
);
width = 602;
},
{
background = {
shapes = (
{
closed = 1;
nodes = (
(192,0,l),
(192,720,l),
(50,720,l),
(50,0,l)
);
},
{
closed = 1;
nodes = (
(348,282,l),
(348,400,l),
(122,400,l),
(122,282,l)
);
},
{
closed = 1;
nodes = (
(358,600,l),
(358,720,l),
(122,720,l),
(122,600,l)
);
}
);
};
layerId = m003;
shapes = (
{
closed = 1;
nodes = (
(192,0,l),
(192,720,l),
(50,720,l),
(50,0,l)
);
},
{
closed = 1;
nodes = (
(348,286,l),
(348,396,l),
(122,396,l),
(122,286,l)
);
},
{
closed = 1;
nodes = (
(358,610,l),
(358,720,l),
(122,720,l),
(122,610,l)
);
}
);
width = 390;
},
{
background = {
shapes = (
{
closed = 1;
nodes = (
(204,0,l),
(204,720,l),
(50,720,l),
(50,0,l)
);
},
{
closed = 1;
nodes = (
(535,274,l),
(535,402,l),
(122,402,l),
(122,274,l)
);
},
{
closed = 1;
nodes = (
(558,592,l),
(558,720,l),
(122,720,l),
(122,592,l)
);
}
);
};
layerId = m004;
shapes = (
{
closed = 1;
nodes = (
(204,0,l),
(204,720,l),
(50,720,l),
(50,0,l)
);
},
{
closed = 1;
nodes = (
(535,279,l),
(535,397,l),
(122,397,l),
(122,279,l)
);
},
{
closed = 1;
nodes = (
(558,602,l),
(558,720,l),
(122,720,l),
(122,602,l)
);
}
);
width = 590;
}
);
unicode = 70;
userData = {
KernOnName = F;
KernOnSpecialSpacing = {
L = NoKerning;
};
};
},
{
glyphname = G;
kernLeft = KO_O;
kernRight = KO_G;
lastChange = "2023-03-03 20:59:42 +0000";
layers = (
{
anchors = (
{
name = bottom;
pos = (251,0);
},
{
name = top;
pos = (251,720);
}
);
guides = (
{
pos = (361,730);
},
{
angle = 90;
pos = (452,530);
}
);
layerId = m01;
shapes = (
{
closed = 1;
nodes = (
(330,-10,o),
(385,12,o),
(426,55,c),
(356,83,l),
(336,64,o),
(307,54,o),
(271,54,cs),
(161,54,o),
(112,146,o),
(112,355,cs),
(112,560,o),
(159,666,o),
(251,666,cs),
(321,666,o),
(357,603,o),
(357,481,c),
(427,481,l),
(427,635,o),
(359,730,o),
(249,730,cs),
(116,730,o),
(40,593,o),
(40,352,cs),
(40,112,o),
(116,-10,o),
(266,-10,cs)
);
},
{
closed = 1;
nodes = (
(426,55,l),
(426,375,l),
(246,375,l),
(246,313,l),
(387,313,l),
(356,344,l),
(356,69,l)
);
}
);
width = 481;
},
{
anchors = (
{
name = bottom;
pos = (393,0);
},
{
name = top;
pos = (393,720);
}
);
guides = (
{
pos = (361,730);
},
{
angle = 90;
pos = (452,530);
}
);
layerId = m002;
shapes = (
{
closed = 1;
nodes = (
(526,-10,o),
(622,29,o),
(695,106,c),
(613,136,l),
(561,87,o),
(498,64,o),
(417,64,cs),
(239,64,o),
(134,173,o),
(134,356,cs),
(134,537,o),
(238,656,o),
(396,656,cs),
(513,656,o),
(598,592,o),
(611,494,c),
(693,494,l),
(674,634,o),
(551,730,o),
(393,730,cs),
(191,730,o),
(50,575,o),
(50,354,cs),
(50,132,o),
(190,-10,o),
(410,-10,cs)
);
},
{
closed = 1;
nodes = (
(695,106,l),
(695,380,l),
(416,380,l),
(416,308,l),
(644,308,l),
(613,339,l),
(613,106,l)
);
}
);
width = 765;
},
{
anchors = (
{
name = bottom;
pos = (267,0);
},
{
name = top;
pos = (267,720);
}
);
background = {
shapes = (
{
closed = 1;
nodes = (
(360,-10,o),
(440,28,o),
(475,88,c),
(334,131,l),
(321,118,o),
(305,112,o),
(282,112,cs),
(203,112,o),
(174,176,o),
(174,357,cs),
(174,530,o),
(201,608,o),
(263,608,cs),
(312,608,o),
(335,563,o),
(335,467,c),
(475,467,l),
(475,636,o),
(402,730,o),
(269,730,cs),
(113,730,o),
(30,597,o),
(30,350,cs),
(30,107,o),
(110,-10,o),
(271,-10,cs)
);
},
{
closed = 1;
nodes = (
(475,88,l),
(475,400,l),
(259,400,l),
(259,280,l),
(364,280,l),
(333,311,l),
(333,88,l)
);
}
);
};
guides = (
{
pos = (361,730);
},
{
angle = 90;
pos = (452,530);
}
);
layerId = m003;
shapes = (
{
closed = 1;
nodes = (
(360,-10,o),
(440,28,o),
(475,88,c),
(334,121,l),
(321,108,o),
(305,102,o),
(282,102,cs),
(203,102,o),
(174,166,o),
(174,357,cs),
(174,540,o),
(201,618,o),
(263,618,cs),
(312,618,o),
(335,573,o),
(335,467,c),
(475,467,l),
(475,636,o),
(402,730,o),
(269,730,cs),
(113,730,o),
(30,597,o),
(30,350,cs),
(30,107,o),
(110,-10,o),
(271,-10,cs)
);
},
{
closed = 1;
nodes = (
(475,88,l),
(475,395,l),
(259,395,l),
(259,285,l),
(364,285,l),
(333,316,l),
(333,78,l)
);
}
);
width = 513;
},
{
anchors = (
{
name = bottom;
pos = (392,0);
},
{
name = top;
pos = (392,720);
}
);
background = {
shapes = (
{
closed = 1;
nodes = (
(550,-10,o),
(648,31,o),
(725,109,c),
(579,177,l),
(550,141,o),
(493,120,o),
(413,120,cs),
(265,120,o),
(186,211,o),
(186,362,cs),
(186,506,o),
(268,600,o),
(395,600,cs),
(485,600,o),
(551,550,o),
(564,482,c),
(718,482,l),
(701,627,o),
(571,730,o),
(393,730,cs),
(177,730,o),
(30,579,o),
(30,359,cs),
(30,136,o),
(172,-10,o),
(406,-10,cs)
);
},
{
closed = 1;
nodes = (
(725,109,l),
(725,404,l),
(412,404,l),
(412,276,l),
(602,276,l),
(571,307,l),
(571,109,l)
);
}
);
};
guides = (
{
pos = (361,730);
}
);
layerId = m004;
shapes = (
{
closed = 1;
nodes = (
(550,-10,o),
(648,31,o),
(725,109,c),
(579,167,l),
(550,131,o),
(493,110,o),
(413,110,cs),
(265,110,o),
(186,201,o),
(186,362,cs),
(186,516,o),
(268,608,o),
(395,608,cs),
(485,608,o),
(551,560,o),
(564,482,c),
(718,482,l),
(701,627,o),
(571,730,o),
(393,730,cs),
(177,730,o),
(30,579,o),
(30,359,cs),
(30,136,o),
(172,-10,o),
(406,-10,cs)
);
},
{
closed = 1;
nodes = (
(725,109,l),
(725,394,l),
(412,394,l),
(412,276,l),
(602,276,l),
(571,307,l),
(571,109,l)
);
}
);
width = 763;
}
);
unicode = 71;
},
{
glyphname = H;
lastChange = "2023-02-07 18:34:09 +0000";
layers = (
{
anchors = (
{
name = bottom;
pos = (250,0);
},
{
name = center;
pos = (250,360);
},
{
name = top;
pos = (250,720);
},
{
name = topleft;
pos = (20,720);
}
);
background = {
shapes = (
{
closed = 1;
nodes = (
(198,0,ls),
(208,0,o),
(213,4,o),
(213,12,cs),
(213,18,o),
(209,22,o),
(202,23,cs),
(175,27,ls),
(147,31,o),
(141,39,o),
(141,67,cs),
(141,344,ls),
(141,353,o),
(146,358,o),
(155,358,cs),
(353,358,ls),
(362,358,o),
(367,353,o),
(367,344,cs),
(367,67,ls),
(367,39,o),
(361,31,o),
(333,27,cs),
(306,23,ls),
(299,22,o),
(295,18,o),
(295,12,cs),
(295,4,o),
(300,0,o),
(310,0,cs),
(493,0,ls),
(503,0,o),
(508,4,o),
(508,11,cs),
(508,17,o),
(504,21,o),
(495,23,cs),
(472,27,ls),
(444,32,o),
(438,38,o),
(438,66,cs),
(438,654,ls),
(438,682,o),
(444,688,o),
(472,693,cs),
(495,697,ls),
(504,699,o),
(508,703,o),
(508,709,cs),
(508,716,o),
(503,720,o),
(493,720,cs),
(310,720,ls),
(300,720,o),
(295,716,o),
(295,708,cs),
(295,702,o),
(299,698,o),
(306,697,cs),
(333,693,ls),
(361,689,o),
(367,681,o),
(367,653,cs),
(367,402,ls),
(367,393,o),
(362,388,o),
(353,388,cs),
(155,388,ls),
(146,388,o),
(141,393,o),
(141,402,cs),
(141,653,ls),
(141,681,o),
(147,689,o),
(175,693,cs),
(202,697,ls),
(209,698,o),
(213,702,o),
(213,708,cs),
(213,716,o),
(208,720,o),
(198,720,cs),
(15,720,ls),
(5,720,o),
(0,716,o),
(0,709,cs),
(0,703,o),
(4,699,o),
(13,697,cs),
(36,693,ls),
(64,688,o),
(70,682,o),
(70,654,cs),
(70,66,ls),
(70,38,o),
(64,32,o),
(36,27,cs),
(13,23,ls),
(4,21,o),
(0,17,o),
(0,11,cs),
(0,4,o),
(5,0,o),
(15,0,cs)
);
}
);
};
layerId = m01;
shapes = (
{
closed = 1;
nodes = (
(140,0,l),
(140,720,l),
(70,720,l),
(70,0,l)
);
},
{
closed = 1;
nodes = (
(430,0,l),
(430,720,l),
(360,720,l),
(360,0,l)
);
},
{
closed = 1;
nodes = (
(112,344,l),
(386,344,l),
(386,406,l),
(112,406,l)
);
}
);
width = 500;
},
{
anchors = (
{
name = bottom;
pos = (368,0);
},
{
name = center;
pos = (368,360);
},
{
name = top;
pos = (368,720);
},
{
name = topleft;
pos = (50,720);
}
);
background = {
shapes = (
{
closed = 1;
nodes = (
(259,0,l),
(259,22,l),
(215,29,ls),
(196,32,o),
(190,38,o),
(190,62,cs),
(190,358,l),
(416,358,l),
(416,62,ls),
(416,38,o),
(410,32,o),
(391,29,cs),
(347,22,l),
(347,0,l),
(557,0,l),
(557,22,l),
(512,29,ls),
(493,32,o),
(487,38,o),
(487,62,cs),
(487,658,ls),
(487,682,o),
(493,688,o),
(512,691,cs),
(557,698,l),
(557,720,l),
(347,720,l),
(347,698,l),
(391,691,ls),
(410,688,o),
(416,682,o),
(416,658,cs),
(416,388,l),
(190,388,l),
(190,658,ls),
(190,682,o),
(196,688,o),
(215,691,cs),
(259,698,l),
(259,720,l),
(49,720,l),
(49,698,l),
(94,691,ls),
(113,688,o),
(119,682,o),
(119,658,cs),
(119,62,ls),
(119,38,o),
(113,32,o),
(94,29,cs),
(49,22,l),
(49,0,l)
);
}
);
};
layerId = m002;
shapes = (
{
closed = 1;
nodes = (
(168,0,l),
(168,720,l),
(86,720,l),
(86,0,l)
);
},
{
closed = 1;
nodes = (
(650,0,l),
(650,720,l),
(568,720,l),
(568,0,l)
);
},
{
closed = 1;
nodes = (
(128,339,l),
(604,339,l),
(604,411,l),
(128,411,l)
);
}
);
width = 736;
},
{
anchors = (
{
name = bottom;
pos = (257,0);
},
{
name = center;
pos = (257,360);
},
{
name = top;
pos = (257,720);
},
{
name = topleft;
pos = (20,720);
}
);
layerId = m003;
shapes = (
{
closed = 1;
nodes = (
(192,0,l),
(192,720,l),
(50,720,l),
(50,0,l)
);
},
{
closed = 1;
nodes = (
(464,0,l),
(464,720,l),
(322,720,l),
(322,0,l)
);
},
{
closed = 1;
nodes = (
(122,320,l),
(392,320,l),
(392,430,l),
(122,430,l)
);
}
);
width = 514;
},
{
anchors = (
{
name = bottom;
pos = (360,0);
},
{
name = center;
pos = (360,360);
},
{
name = top;
pos = (360,720);
},
{
name = topleft;
pos = (24,720);
}
);
background = {
shapes = (
{
closed = 1;
nodes = (
(204,0,l),
(204,720,l),
(50,720,l),
(50,0,l)
);
},
{
closed = 1;
nodes = (
(670,0,l),
(670,720,l),
(516,720,l),
(516,0,l)
);
},
{
closed = 1;
nodes = (
(122,311,l),
(586,311,l),
(586,439,l),
(122,439,l)
);
}
);
};
layerId = m004;
shapes = (
{
closed = 1;
nodes = (
(204,0,l),
(204,720,l),
(50,720,l),
(50,0,l)
);
},
{
closed = 1;
nodes = (
(670,0,l),
(670,720,l),
(516,720,l),
(516,0,l)
);
},
{
closed = 1;
nodes = (
(122,316,l),
(586,316,l),
(586,434,l),
(122,434,l)
);
}
);
width = 720;
}
);
unicode = 72;
userData = {
KernOnName = H;
KernOnSpecialSpacing = {
L = NoKerning;
R = NoKerning;
};
};
},
{
glyphname = Hbar;
lastChange = "2023-03-03 21:00:40 +0000";
layers = (
{
layerId = m01;
shapes = (
{
ref = H;
},
{
closed = 1;
nodes = (
(500,546,l),
(500,604,l),
(0,604,l),
(0,546,l)
);
}
);
width = 500;
},
{
background = {
shapes = (
{
closed = 1;
nodes = (
(500,546,l),
(500,604,l),
(0,604,l),
(0,546,l)
);
}
);
};
layerId = m002;
shapes = (
{
ref = H;
},
{
closed = 1;
nodes = (
(736,541,l),
(736,609,l),
(0,609,l),
(0,541,l)
);
}
);
width = 736;
},
{
layerId = m003;
shapes = (
{
pos = (10,0);
ref = H;
},
{
closed = 1;
nodes = (
(524,527,l),
(524,637,l),
(10,637,l),
(10,527,l)
);
}
);
width = 534;
},
{
background = {
shapes = (
{
closed = 1;
nodes = (
(540,527,l),
(540,637,l),
(26,637,l),
(26,527,l)
);
}
);
};
layerId = m004;
shapes = (
{
pos = (16,0);
ref = H;
},
{
closed = 1;
nodes = (
(742,522,l),
(742,642,l),
(10,642,l),
(10,522,l)
);
}
);
width = 752;
}
);
unicode = 294;
},
{
glyphname = I;
lastChange = "2023-02-07 18:43:43 +0000";
layers = (
{
anchors = (
{
name = bottom;
pos = (105,0);
},
{
name = ogonek;
pos = (140,0);
},
{
name = top;
pos = (105,720);
},
{
name = topleft;
pos = (20,720);
}
);
background = {
shapes = (
{
closed = 1;
nodes = (
(196,0,ls),
(206,0,o),
(211,4,o),
(211,11,cs),
(211,17,o),
(207,21,o),
(198,23,cs),
(175,27,ls),
(147,32,o),
(141,38,o),
(141,66,cs),
(141,654,ls),
(141,682,o),
(147,688,o),
(175,693,cs),
(198,697,ls),
(207,699,o),
(211,703,o),
(211,709,cs),
(211,716,o),
(206,720,o),
(196,720,cs),
(15,720,ls),
(5,720,o),
(0,716,o),
(0,709,cs),
(0,703,o),
(4,699,o),
(13,697,cs),
(36,693,ls),
(64,688,o),
(70,682,o),
(70,654,cs),
(70,66,ls),
(70,38,o),
(64,32,o),
(36,27,cs),
(13,23,ls),
(4,21,o),
(0,17,o),
(0,11,cs),
(0,4,o),
(5,0,o),
(15,0,cs)
);
}
);
};
layerId = m01;
shapes = (
{
closed = 1;
nodes = (
(140,0,l),
(140,720,l),
(70,720,l),
(70,0,l)
);
}
);
width = 210;
},
{
anchors = (
{
name = bottom;
pos = (127,0);
},
{
name = ogonek;
pos = (148,0);
},
{
name = top;
pos = (127,720);
},
{
name = topleft;
pos = (20,720);
}
);
background = {
shapes = (
{
closed = 1;
nodes = (
(246,0,l),
(246,22,l),
(201,29,ls),
(182,32,o),
(176,38,o),
(176,62,cs),
(176,658,ls),
(176,682,o),
(182,688,o),
(201,691,cs),
(246,698,l),
(246,720,l),
(35,720,l),
(35,698,l),
(80,691,ls),
(99,688,o),
(105,682,o),
(105,658,cs),
(105,62,ls),
(105,38,o),
(99,32,o),
(80,29,cs),
(35,22,l),
(35,0,l)
);
}
);
};
layerId = m002;
shapes = (
{
closed = 1;
nodes = (
(168,0,l),
(168,720,l),
(86,720,l),
(86,0,l)
);
}
);
width = 254;
},
{
anchors = (
{
name = bottom;
pos = (121,0);
},
{
name = ogonek;
pos = (192,0);
},
{
name = top;
pos = (121,720);
},
{
name = topleft;
pos = (20,720);
}
);
background = {
shapes = (
{
closed = 1;
nodes = (
(210,0,l),
(210,22,l),
(165,29,ls),
(146,32,o),
(140,38,o),
(140,62,cs),
(140,658,ls),
(140,682,o),
(146,688,o),
(165,691,cs),
(210,698,l),
(210,720,l),
(-1,720,l),
(-1,698,l),
(44,691,ls),
(63,688,o),
(69,682,o),
(69,658,cs),
(69,62,ls),
(69,38,o),
(63,32,o),
(44,29,cs),
(-1,22,l),
(-1,0,l)
);
}
);
};
layerId = m003;
shapes = (
{
closed = 1;
nodes = (
(192,0,l),
(192,720,l),
(50,720,l),
(50,0,l)
);
}
);
width = 242;
},
{
anchors = (
{
name = bottom;
pos = (127,0);
},
{
name = ogonek;
pos = (184,0);
},
{
name = top;
pos = (127,720);
},
{
name = topleft;
pos = (4,720);
}
);
background = {
shapes = (
{
closed = 1;
nodes = (
(230,0,l),
(230,22,l),
(185,29,ls),
(166,32,o),
(160,38,o),
(160,62,cs),
(160,658,ls),
(160,682,o),
(166,688,o),
(185,691,cs),
(230,698,l),
(230,720,l),
(19,720,l),
(19,698,l),
(64,691,ls),
(83,688,o),
(89,682,o),
(89,658,cs),
(89,62,ls),
(89,38,o),
(83,32,o),
(64,29,cs),
(19,22,l),
(19,0,l)
);
}
);
};
layerId = m004;
shapes = (
{
closed = 1;
nodes = (
(204,0,l),
(204,720,l),
(50,720,l),
(50,0,l)
);
}
);
width = 254;
}
);
unicode = 73;
userData = {
KernOnSpecialSpacing = {
L = NoKerning;
R = NoKerning;
};
};
},
{
glyphname = J;
kernLeft = KO_J;
kernRight = KO_J;
lastChange = "2023-02-07 18:44:39 +0000";
layers = (
{
layerId = m01;
shapes = (
{
closed = 1;
nodes = (
(177,-10,o),
(243,28,o),
(243,123,cs),
(243,720,l),
(173,720,l),
(173,128,ls),
(173,75,o),
(137,54,o),
(79,54,cs),
(55,54,o),
(26,59,o),
(10,66,c),
(10,2,l),
(25,-5,o),
(49,-10,o),
(83,-10,cs)
);
}
);
width = 307;
},
{
layerId = m002;
shapes = (
{
closed = 1;
nodes = (
(295,-10,o),
(375,56,o),
(375,189,cs),
(375,720,l),
(293,720,l),
(293,192,ls),
(293,104,o),
(243,62,o),
(147,62,cs),
(100,62,o),
(52,71,o),
(20,85,c),
(20,9,l),
(41,-2,o),
(93,-10,o),
(144,-10,cs)
);
}
);
width = 455;
},
{
background = {
shapes = (
{
closed = 1;
nodes = (
(186,-10,o),
(256,30,o),
(256,130,cs),
(256,720,l),
(114,720,l),
(114,160,ls),
(114,126,o),
(91,112,o),
(54,112,cs),
(38,112,o),
(20,116,o),
(10,120,c),
(10,3,l),
(26,-5,o),
(51,-10,o),
(87,-10,cs)
);
}
);
};
layerId = m003;
shapes = (
{
closed = 1;
nodes = (
(186,-10,o),
(256,30,o),
(256,130,cs),
(256,720,l),
(114,720,l),
(114,150,ls),
(114,116,o),
(91,102,o),
(54,102,cs),
(38,102,o),
(20,106,o),
(10,110,c),
(10,3,l),
(26,-5,o),
(51,-10,o),
(87,-10,cs)
);
}
);
width = 302;
},
{
background = {
shapes = (
{
closed = 1;
nodes = (
(285,-10,o),
(365,56,o),
(365,189,cs),
(365,720,l),
(211,720,l),
(211,206,ls),
(211,141,o),
(179,120,o),
(104,120,cs),
(69,120,o),
(34,127,o),
(10,137,c),
(10,9,l),
(31,-2,o),
(83,-10,o),
(134,-10,cs)
);
}
);
};
layerId = m004;
shapes = (
{
closed = 1;
nodes = (
(285,-10,o),
(365,56,o),
(365,189,cs),
(365,720,l),
(211,720,l),
(211,196,ls),
(211,131,o),
(179,110,o),
(104,110,cs),
(69,110,o),
(34,117,o),
(10,127,c),
(10,9,l),
(31,-2,o),
(83,-10,o),
(134,-10,cs)
);
}
);
width = 413;
}
);
unicode = 74;
userData = {
KernOnName = J;
};
},
{
glyphname = K;
kernRight = KO_K;
lastChange = "2023-02-07 18:45:04 +0000";
layers = (
{
anchors = (
{
name = bottom;
pos = (253,0);
},
{
name = top;
pos = (233,720);
}
);
background = {
shapes = (
{
ref = H;
}
);
};
guides = (
{
angle = 33.0131;
pos = (329,187);
showMeasurement = 1;
},
{
angle = -32.8021;
pos = (319,547);
showMeasurement = 1;
}
);
layerId = m01;
shapes = (
{
closed = 1;
nodes = (
(140,0,l),
(140,720,l),
(70,720,l),
(70,0,l)
);
},
{
closed = 1;
nodes = (
(207,374,l),
(430,720,l),
(353,720,l),
(131,374,l)
);
},
{
closed = 1;
nodes = (
(450,0,l),
(207,374,l),
(129,374,l),
(367,0,l)
);
}
);
width = 466;
},
{
anchors = (
{
name = bottom;
pos = (356,0);
},
{
name = top;
pos = (346,720);
}
);
background = {
shapes = (
{
ref = H;
}
);
};
guides = (
{
angle = 47.0665;
pos = (467,187);
showMeasurement = 1;
},
{
angle = 132.169;
pos = (457,547);
showMeasurement = 1;
}
);
layerId = m002;
shapes = (
{
closed = 1;
nodes = (
(168,0,l),
(168,720,l),
(86,720,l),
(86,0,l)
);
},
{
closed = 1;
nodes = (
(266,374,l),
(648,720,l),
(533,720,l),
(159,374,l)
);
},
{
closed = 1;
nodes = (
(668,0,l),
(266,374,l),
(157,374,l),
(549,0,l)
);
}
);
width = 692;
},
{
anchors = (
{
name = bottom;
pos = (262,0);
},
{
name = top;
pos = (252,720);
}
);
background = {
shapes = (
{
closed = 1;
nodes = (
(192,0,l),
(192,720,l),
(50,720,l),
(50,0,l)
);
},
{
closed = 1;
nodes = (
(318,374,l),
(472,720,l),
(325,720,l),
(176,374,l)
);
},
{
closed = 1;
nodes = (
(492,0,l),
(318,374,l),
(171,374,l),
(338,0,l)
);
}
);
};
guides = (
{
angle = -24.6806;
pos = (393,547);
showMeasurement = 1;
},
{
angle = 25.5762;
pos = (403,187);
showMeasurement = 1;
}
);
layerId = m003;
shapes = (
{
closed = 1;
nodes = (
(192,0,l),
(192,720,l),
(50,720,l),
(50,0,l)
);
},
{
closed = 1;
nodes = (
(313,374,l),
(472,720,l),
(325,720,l),
(176,374,l)
);
},
{
closed = 1;
nodes = (
(492,0,l),
(313,374,l),
(171,374,l),
(338,0,l)
);
}
);
width = 504;
},
{
anchors = (
{
name = bottom;
pos = (363,0);
},
{
name = top;
pos = (363,720);
}
);
background = {
shapes = (
{
closed = 1;
nodes = (
(204,0,l),
(204,720,l),
(50,720,l),
(50,0,l)
);
},
{
closed = 1;
nodes = (
(352,374,l),
(684,720,l),
(479,720,l),
(155,374,l)
);
},
{
closed = 1;
nodes = (
(704,0,l),
(352,374,l),
(153,374,l),
(495,0,l)
);
}
);
};
guides = (
{
angle = 44.0659;
pos = (523,187);
showMeasurement = 1;
},
{
angle = -44.6669;
pos = (513,547);
showMeasurement = 1;
}
);
layerId = m004;
shapes = (
{
closed = 1;
nodes = (
(204,0,l),
(204,720,l),
(50,720,l),
(50,0,l)
);
},
{
closed = 1;
nodes = (
(342,374,l),
(684,720,l),
(479,720,l),
(155,374,l)
);
},
{
closed = 1;
nodes = (
(704,0,l),
(342,374,l),
(153,374,l),
(495,0,l)
);
}
);
width = 722;
}
);
unicode = 75;
userData = {
KernOnSpecialSpacing = {
L = NoKerning;
};
};
},
{
glyphname = L;
kernRight = KO_L;
lastChange = "2023-02-07 18:47:34 +0000";
layers = (
{
anchors = (
{
name = bottom;
pos = (208,0);
},
{
name = center;
pos = (188,360);
},
{
name = top;
pos = (105,720);
},
{
name = topright;
pos = (268,720);
}
);
layerId = m01;
shapes = (
{
closed = 1;
nodes = (
(140,0,l),
(140,720,l),
(70,720,l),
(70,0,l)
);
},
{
closed = 1;
nodes = (
(335,0,l),
(335,62,l),
(112,62,l),
(112,0,l)
);
}
);
width = 375;
},
{
anchors = (
{
name = bottom;
pos = (331,0);
},
{
name = center;
pos = (294,360);
},
{
name = top;
pos = (126,720);
},
{
name = topright;
pos = (390,720);
}
);
layerId = m002;
shapes = (
{
closed = 1;
nodes = (
(168,0,l),
(168,720,l),
(86,720,l),
(86,0,l)
);
},
{
closed = 1;
nodes = (
(538,0,l),
(538,72,l),
(128,72,l),
(128,0,l)
);
}
);
width = 588;
},
{
anchors = (
{
name = bottom;
pos = (208,0);
},
{
name = center;
pos = (195,360);
},
{
name = top;
pos = (119,720);
},
{
name = topright;
pos = (264,720);
}
);
background = {
shapes = (
{
closed = 1;
nodes = (
(192,0,l),
(192,720,l),
(50,720,l),
(50,0,l)
);
},
{
closed = 1;
nodes = (
(358,0,l),
(358,120,l),
(122,120,l),
(122,0,l)
);
}
);
};
layerId = m003;
shapes = (
{
closed = 1;
nodes = (
(192,0,l),
(192,720,l),
(50,720,l),
(50,0,l)
);
},
{
closed = 1;
nodes = (
(358,0,l),
(358,110,l),
(122,110,l),
(122,0,l)
);
}
);
width = 390;
},
{
anchors = (
{
name = bottom;
pos = (314,0);
},
{
name = center;
pos = (297,360);
},
{
name = top;
pos = (127,720);
},
{
name = topright;
pos = (360,720);
}
);
background = {
shapes = (
{
closed = 1;
nodes = (
(204,0,l),
(204,720,l),
(50,720,l),
(50,0,l)
);
},
{
closed = 1;
nodes = (
(550,0,l),
(550,128,l),
(122,128,l),
(122,0,l)
);
}
);
};
layerId = m004;
shapes = (
{
closed = 1;
nodes = (
(204,0,l),
(204,720,l),
(50,720,l),
(50,0,l)
);
},
{
closed = 1;
nodes = (
(550,0,l),
(550,118,l),
(122,118,l),
(122,0,l)
);
}
);
width = 590;
}
);
unicode = 76;
userData = {
KernOnName = L;
KernOnSpecialSpacing = {
L = NoKerning;
};
};
},
{
glyphname = Lslash;
kernRight = KO_Lslash;
lastChange = "2023-03-03 21:01:44 +0000";
layers = (
{
layerId = m01;
shapes = (
{
ref = L;
},
{
closed = 1;
nodes = (
(100,404,l),
(0,352,l),
(0,292,l),
(101,345,l)
);
},
{
closed = 1;
nodes = (
(101,349,l),
(249,427,l),
(249,487,l),
(100,408,l)
);
}
);
width = 375;
},
{
layerId = m002;
shapes = (
{
ref = L;
},
{
closed = 1;
nodes = (
(131,408,l),
(0,356,l),
(0,292,l),
(133,345,l)
);
},
{
closed = 1;
nodes = (
(133,349,l),
(315,422,l),
(315,486,l),
(131,412,l)
);
}
);
width = 588;
},
{
layerId = m003;
shapes = (
{
pos = (10,0);
ref = L;
},
{
closed = 1;
nodes = (
(138,425,l),
(0,358,l),
(0,253,l),
(138,320,l)
);
},
{
closed = 1;
nodes = (
(148,330,l),
(298,404,l),
(298,509,l),
(148,435,l)
);
}
);
width = 400;
},
{
layerId = m004;
shapes = (
{
pos = (10,0);
ref = L;
},
{
closed = 1;
nodes = (
(161,433,l),
(0,367,l),
(0,259,l),
(161,325,l)
);
},
{
closed = 1;
nodes = (
(161,335,l),
(366,421,l),
(366,529,l),
(161,443,l)
);
}
);
width = 596;
}
);
unicode = 321;
},
{
glyphname = M;
lastChange = "2023-02-07 18:48:32 +0000";
layers = (
{
guides = (
{
angle = 14.6209;
pos = (211,311);
showMeasurement = 1;
},
{
angle = -14.6209;
pos = (453,311);
showMeasurement = 1;
}
);
layerId = m01;
shapes = (
{
closed = 1;
nodes = (
(133,0,l),
(133,622,l),
(130,621,l),
(292,0,l),
(372,0,l),
(534,621,l),
(531,622,l),
(531,0,l),
(601,0,l),
(601,720,l),
(497,720,l),
(323,44,l),
(349,44,l),
(174,720,l),
(70,720,l),
(70,0,l)
);
}
);
width = 671;
},
{
guides = (
{
angle = 20.5092;
pos = (276,336);
showMeasurement = 1;
},
{
angle = -20.3424;
pos = (625,339);
showMeasurement = 1;
}
);
layerId = m002;
shapes = (
{
closed = 1;
nodes = (
(161,0,l),
(161,671,l),
(150,671,l),
(401,0,l),
(499,0,l),
(750,677,l),
(739,677,l),
(739,0,l),
(820,0,l),
(820,720,l),
(692,720,l),
(434,26,l),
(472,26,l),
(212,720,l),
(86,720,l),
(86,0,l)
);
}
);
width = 906;
},
{
guides = (
{
angle = 12.4409;
pos = (228,311);
showMeasurement = 1;
},
{
angle = -12.4409;
pos = (469,311);
showMeasurement = 1;
}
);
layerId = m003;
shapes = (
{
closed = 1;
nodes = (
(180,0,l),
(180,622,l),
(159,621,l),
(296,0,l),
(400,0,l),
(537,621,l),
(516,622,l),
(516,0,l),
(654,0,l),
(654,720,l),
(454,720,l),
(304,44,l),
(401,44,l),
(249,720,l),
(50,720,l),
(50,0,l)
);
}
);
width = 704;
},
{
guides = (
{
angle = 16.0468;
pos = (268,336);
showMeasurement = 1;
},
{
angle = -16.0683;
pos = (621,339);
showMeasurement = 1;
}
);
layerId = m004;
shapes = (
{
closed = 1;
nodes = (
(196,0,l),
(196,671,l),
(171,671,l),
(364,0,l),
(523,0,l),
(718,677,l),
(692,677,l),
(692,0,l),
(844,0,l),
(844,720,l),
(603,720,l),
(403,26,l),
(490,26,l),
(290,720,l),
(50,720,l),
(50,0,l)
);
}
);
width = 894;
}
);
unicode = 77;
userData = {
KernOnSpecialSpacing = {
L = NoKerning;
R = NoKerning;
};
};
},
{
glyphname = N;
lastChange = "2023-02-07 18:49:00 +0000";
layers = (
{
anchors = (
{
name = bottom;
pos = (253,0);
},
{
name = top;
pos = (253,720);
}
);
guides = (
{
angle = 20.2862;
pos = (238,303);
showMeasurement = 1;
}
);
layerId = m01;
shapes = (
{
closed = 1;
nodes = (
(136,0,l),
(136,608,l),
(126,606,l),
(350,0,l),
(435,0,l),
(435,720,l),
(369,720,l),
(369,112,l),
(379,114,l),
(155,720,l),
(70,720,l),
(70,0,l)
);
}
);
width = 505;
},
{
anchors = (
{
name = bottom;
pos = (368,0);
},
{
name = top;
pos = (368,720);
}
);
background = {
shapes = (
{
closed = 1;
nodes = (
(168,0,l),
(168,720,l),
(86,720,l),
(86,0,l)
);
},
{
closed = 1;
nodes = (
(650,0,l),
(650,720,l),
(568,720,l),
(568,0,l)
);
},
{
closed = 1;
nodes = (
(128,339,l),
(604,339,l),
(604,411,l),
(128,411,l)
);
}
);
};
guides = (
{
angle = 34.2751;
pos = (378,417);
showMeasurement = 1;
}
);
layerId = m002;
shapes = (
{
closed = 1;
nodes = (
(164,0,l),
(164,608,l),
(152,606,l),
(565,0,l),
(650,0,l),
(650,720,l),
(572,720,l),
(572,112,l),
(584,114,l),
(171,720,l),
(86,720,l),
(86,0,l)
);
}
);
width = 736;
},
{
anchors = (
{
name = bottom;
pos = (260,0);
},
{
name = top;
pos = (260,720);
}
);
background = {
shapes = (
{
closed = 1;
nodes = (
(186,0,l),
(186,608,l),
(125,606,l),
(321,0,l),
(469,0,l),
(469,720,l),
(333,720,l),
(333,112,l),
(394,114,l),
(198,720,l),
(50,720,l),
(50,0,l)
);
}
);
};
guides = (
{
angle = 14.2112;
pos = (223,308);
showMeasurement = 1;
}
);
layerId = m003;
shapes = (
{
closed = 1;
nodes = (
(180,0,l),
(180,618,l),
(145,616,l),
(301,0,l),
(469,0,l),
(469,720,l),
(339,720,l),
(339,102,l),
(374,104,l),
(218,720,l),
(50,720,l),
(50,0,l)
);
}
);
width = 519;
},
{
anchors = (
{
name = bottom;
pos = (360,0);
},
{
name = top;
pos = (360,720);
}
);
background = {
shapes = (
{
closed = 1;
nodes = (
(202,0,l),
(202,608,l),
(121,596,l),
(501,0,l),
(670,0,l),
(670,720,l),
(518,720,l),
(518,112,l),
(599,124,l),
(219,720,l),
(50,720,l),
(50,0,l)
);
}
);
};
guides = (
{
angle = 26.709;
pos = (311,318);
showMeasurement = 1;
}
);
layerId = m004;
shapes = (
{
closed = 1;
nodes = (
(200,0,l),
(200,648,l),
(151,636,l),
(471,0,l),
(670,0,l),
(670,720,l),
(520,720,l),
(520,72,l),
(569,84,l),
(249,720,l),
(50,720,l),
(50,0,l)
);
}
);
width = 720;
}
);
unicode = 78;
userData = {
KernOnSpecialSpacing = {
L = NoKerning;
R = NoKerning;
};
};
},
{
glyphname = Eng;
kernLeft = KO_B;
kernRight = KO_Iacute;
lastChange = "2023-02-07 18:50:06 +0000";
layers = (
{
layerId = m01;
shapes = (
{
closed = 1;
nodes = (
(136,0,l),
(136,608,l),
(126,606,l),
(370,0,l),
(435,0,l),
(435,720,l),
(369,720,l),
(369,112,l),
(399,114,l),
(155,720,l),
(70,720,l),
(70,0,l)
);
},
{
closed = 1;
nodes = (
(393,-215,o),
(435,-168,o),
(435,-98,cs),
(435,21,l),
(367,21,l),
(367,-88,ls),
(367,-133,o),
(347,-151,o),
(306,-151,cs),
(292,-151,o),
(280,-149,o),
(264,-145,c),
(264,-208,l),
(282,-213,o),
(292,-215,o),
(318,-215,cs)
);
}
);
width = 505;
},
{
guides = (
{
angle = 34.7885;
pos = (382,417);
showMeasurement = 1;
}
);
layerId = m002;
shapes = (
{
closed = 1;
nodes = (
(164,0,l),
(164,608,l),
(152,606,l),
(573,0,l),
(650,0,l),
(650,720,l),
(572,720,l),
(572,112,l),
(592,114,l),
(171,720,l),
(86,720,l),
(86,0,l)
);
},
{
closed = 1;
nodes = (
(607,-215,o),
(650,-160,o),
(650,-77,c),
(650,25,l),
(570,25,l),
(570,-75,ls),
(570,-121,o),
(553,-143,o),
(491,-143,cs),
(462,-143,o),
(438,-138,o),
(425,-134,c),
(425,-205,l),
(436,-209,o),
(460,-215,o),
(496,-215,cs)
);
}
);
width = 736;
},
{
background = {
shapes = (
{
closed = 1;
nodes = (
(186,0,l),
(186,608,l),
(125,606,l),
(334,0,l),
(469,0,l),
(469,720,l),
(333,720,l),
(333,112,l),
(407,114,l),
(198,720,l),
(50,720,l),
(50,0,l)
);
},
{
closed = 1;
nodes = (
(420,-215,o),
(469,-163,o),
(469,-69,cs),
(469,31,l),
(331,31,l),
(331,-47,ls),
(331,-81,o),
(311,-93,o),
(278,-93,cs),
(263,-93,o),
(249,-90,o),
(242,-87,c),
(242,-206,l),
(258,-211,o),
(279,-215,o),
(312,-215,cs)
);
}
);
};
guides = (
{
angle = 16.72;
pos = (294,467);
showMeasurement = 1;
}
);
layerId = m003;
shapes = (
{
closed = 1;
nodes = (
(180,0,l),
(180,588,l),
(156,586,l),
(334,0,l),
(469,0,l),
(469,720,l),
(339,720,l),
(339,212,l),
(374,214,l),
(218,720,l),
(50,720,l),
(50,0,l)
);
},
{
closed = 1;
nodes = (
(420,-215,o),
(469,-163,o),
(469,-69,cs),
(469,31,l),
(331,31,l),
(331,-57,ls),
(331,-91,o),
(311,-103,o),
(278,-103,cs),
(263,-103,o),
(249,-100,o),
(242,-97,c),
(242,-206,l),
(258,-211,o),
(279,-215,o),
(312,-215,cs)
);
}
);
width = 519;
},
{
background = {
shapes = (
{
closed = 1;
nodes = (
(196,0,l),
(196,608,l),
(147,596,l),
(517,0,l),
(666,0,l),
(666,720,l),
(516,720,l),
(516,112,l),
(615,124,l),
(245,720,l),
(46,720,l),
(46,0,l)
);
},
{
closed = 1;
nodes = (
(609,-215,o),
(666,-152,o),
(666,-39,cs),
(666,50,l),
(514,50,l),
(514,-25,ls),
(514,-68,o),
(494,-85,o),
(450,-85,cs),
(428,-85,o),
(409,-81,o),
(394,-76,c),
(394,-205,l),
(414,-211,o),
(443,-215,o),
(476,-215,cs)
);
}
);
};
guides = (
{
angle = 30.5854;
pos = (430,407);
showMeasurement = 1;
}
);
layerId = m004;
shapes = (
{
closed = 1;
nodes = (
(196,0,l),
(196,638,l),
(147,626,l),
(517,0,l),
(666,0,l),
(666,720,l),
(516,720,l),
(516,112,l),
(615,94,l),
(245,720,l),
(46,720,l),
(46,0,l)
);
},
{
closed = 1;
nodes = (
(609,-215,o),
(666,-152,o),
(666,-39,cs),
(666,50,l),
(514,50,l),
(514,-35,ls),
(514,-78,o),
(494,-95,o),
(450,-95,cs),
(428,-95,o),
(409,-91,o),
(394,-86,c),
(394,-205,l),
(414,-211,o),
(443,-215,o),
(476,-215,cs)
);
}
);
width = 712;
}
);
unicode = 330;
},
{
glyphname = O;
kernLeft = KO_O;
kernRight = KO_O;
lastChange = "2023-02-07 18:53:29 +0000";
layers = (
{
anchors = (
{
name = bottom;
pos = (250,0);
},
{
name = center;
pos = (250,360);
},
{
name = ogonek;
pos = (344,20);
},
{
name = top;
pos = (250,720);
},
{
name = topleft;
pos = (20,720);
},
{
name = topright;
pos = (480,720);
}
);
background = {
shapes = (
{
closed = 1;
nodes = (
(381,-10,o),
(460,130,o),
(460,362,cs),
(460,593,o),
(382,730,o),
(249,730,cs),
(118,730,o),
(40,593,o),
(40,363,cs),
(40,130,o),
(119,-10,o),
(250,-10,cs)
);
},
{
closed = 1;
nodes = (
(161,54,o),
(112,165,o),
(112,364,cs),
(112,560,o),
(160,666,o),
(249,666,cs),
(339,666,o),
(388,559,o),
(388,364,cs),
(388,166,o),
(338,54,o),
(249,54,cs)
);
}
);
};
layerId = m01;
shapes = (
{
closed = 1;
nodes = (
(381,-10,o),
(460,130,o),
(460,362,cs),
(460,593,o),
(382,730,o),
(249,730,cs),
(118,730,o),
(40,593,o),
(40,363,cs),
(40,130,o),
(119,-10,o),
(250,-10,cs)
);
},
{
closed = 1;
nodes = (
(161,54,o),
(112,165,o),
(112,364,cs),
(112,560,o),
(160,666,o),
(249,666,cs),
(339,666,o),
(388,559,o),
(388,364,cs),
(388,166,o),
(338,54,o),
(249,54,cs)
);
}
);
width = 500;
},
{
anchors = (
{
name = bottom;
pos = (393,0);
},
{
name = center;
pos = (393,360);
},
{
name = ogonek;
pos = (534,20);
},
{
name = top;
pos = (393,720);
},
{
name = topleft;
pos = (20,720);
},
{
name = topright;
pos = (766,720);
}
);
background = {
anchors = (
{
name = ogonek;
pos = (534,20);
}
);
};
guides = (
{
pos = (576,730);
},
{
angle = 90;
pos = (157,665);
},
{
angle = 90;
pos = (617,665);
}
);
layerId = m002;
shapes = (
{
closed = 1;
nodes = (
(591,-10,o),
(736,147,o),
(736,362,cs),
(736,577,o),
(593,730,o),
(392,730,cs),
(193,730,o),
(50,577,o),
(50,363,cs),
(50,147,o),
(194,-10,o),
(393,-10,cs)
);
},
{
closed = 1;
nodes = (
(238,64,o),
(134,188,o),
(134,364,cs),
(134,537,o),
(236,656,o),
(392,656,cs),
(548,656,o),
(652,536,o),
(652,364,cs),
(652,189,o),
(546,64,o),
(392,64,cs)
);
}
);
width = 786;
},
{
anchors = (
{
name = bottom;
pos = (268,0);
},
{
name = center;
pos = (268,360);
},
{
name = ogonek;
pos = (381,20);
},
{
name = top;
pos = (268,720);
},
{
name = topleft;
pos = (18,720);
},
{
name = topright;
pos = (518,720);
}
);
background = {
shapes = (
{
closed = 1;
nodes = (
(423,-10,o),
(506,119,o),
(506,362,cs),
(506,604,o),
(424,730,o),
(267,730,cs),
(112,730,o),
(30,603,o),
(30,363,cs),
(30,120,o),
(113,-10,o),
(268,-10,cs)
);
},
{
closed = 1;
nodes = (
(203,112,o),
(174,191,o),
(174,364,cs),
(174,535,o),
(202,608,o),
(267,608,cs),
(333,608,o),
(362,533,o),
(362,364,cs),
(362,192,o),
(332,112,o),
(267,112,cs)
);
}
);
};
guides = (
{
pos = (457,730);
},
{
angle = 90;
pos = (38,665);
},
{
angle = 90;
pos = (498,665);
}
);
layerId = m003;
shapes = (
{
closed = 1;
nodes = (
(423,-10,o),
(506,119,o),
(506,362,cs),
(506,604,o),
(424,730,o),
(267,730,cs),
(112,730,o),
(30,603,o),
(30,363,cs),
(30,120,o),
(113,-10,o),
(268,-10,cs)
);
},
{
closed = 1;
nodes = (
(203,102,o),
(174,181,o),
(174,364,cs),
(174,545,o),
(202,618,o),
(267,618,cs),
(333,618,o),
(362,543,o),
(362,364,cs),
(362,182,o),
(332,102,o),
(267,102,cs)
);
}
);
width = 536;
},
{
anchors = (
{
name = bottom;
pos = (399,0);
},
{
name = center;
pos = (399,360);
},
{
name = ogonek;
pos = (553,20);
},
{
name = top;
pos = (399,720);
},
{
name = topleft;
pos = (20,720);
},
{
name = topright;
pos = (778,720);
}
);
background = {
shapes = (
{
closed = 1;
nodes = (
(613,-10,o),
(768,142,o),
(768,362,cs),
(768,582,o),
(615,730,o),
(398,730,cs),
(183,730,o),
(30,582,o),
(30,363,cs),
(30,141,o),
(185,-10,o),
(399,-10,cs)
);
},
{
closed = 1;
nodes = (
(273,120,o),
(186,220,o),
(186,364,cs),
(186,505,o),
(271,600,o),
(398,600,cs),
(525,600,o),
(612,504,o),
(612,364,cs),
(612,222,o),
(523,120,o),
(398,120,cs)
);
}
);
};
guides = (
{
pos = (465,730);
},
{
angle = 90;
pos = (46,665);
},
{
angle = 90;
pos = (506,665);
}
);
layerId = m004;
shapes = (
{
closed = 1;
nodes = (
(613,-10,o),
(768,142,o),
(768,362,cs),
(768,582,o),
(615,730,o),
(398,730,cs),
(183,730,o),
(30,582,o),
(30,363,cs),
(30,141,o),
(185,-10,o),
(399,-10,cs)
);
},
{
closed = 1;
nodes = (
(273,112,o),
(186,212,o),
(186,364,cs),
(186,513,o),
(271,608,o),
(398,608,cs),
(525,608,o),
(612,512,o),
(612,364,cs),
(612,214,o),
(523,112,o),
(398,112,cs)
);
}
);
width = 798;
}
);
unicode = 79;
userData = {
KernOnName = O;
};
},
{
glyphname = Oslash;
lastChange = "2023-02-02 18:22:21 +0000";
layers = (
{
background = {
shapes = (
{
closed = 1;
nodes = (
(79,-60,ls),
(84,-60,o),
(88,-58,o),
(90,-52,cs),
(342,538,ls),
(345,545,o),
(341,550,o),
(334,550,cs),
(327,550,ls),
(322,550,o),
(318,548,o),
(316,542,cs),
(64,-48,ls),
(61,-55,o),
(65,-60,o),
(72,-60,cs)
);
}
);
};
layerId = m01;
shapes = (
{
ref = O;
},
{
closed = 1;
nodes = (
(475,706,l),
(433,730,l),
(25,14,l),
(67,-10,l)
);
}
);
width = 500;
},
{
background = {
shapes = (
{
closed = 1;
nodes = (
(714,682,l),
(664,720,l),
(44,6,l),
(94,-32,l)
);
}
);
};
layerId = m002;
shapes = (
{
ref = O;
},
{
closed = 1;
nodes = (
(724,689,l),
(674,730,l),
(62,31,l),
(112,-10,l)
);
}
);
width = 786;
},
{
background = {
shapes = (
{
closed = 1;
nodes = (
(79,-60,ls),
(84,-60,o),
(88,-58,o),
(90,-52,cs),
(342,538,ls),
(345,545,o),
(341,550,o),
(334,550,cs),
(327,550,ls),
(322,550,o),
(318,548,o),
(316,542,cs),
(64,-48,ls),
(61,-55,o),
(65,-60,o),
(72,-60,cs)
);
}
);
};
layerId = m003;
shapes = (
{
ref = O;
},
{
closed = 1;
nodes = (
(530,679,l),
(454,730,l),
(6,41,l),
(82,-10,l)
);
}
);
width = 536;
},
{
background = {
shapes = (
{
closed = 1;
nodes = (
(79,-60,ls),
(84,-60,o),
(88,-58,o),
(90,-52,cs),
(342,538,ls),
(345,545,o),
(341,550,o),
(334,550,cs),
(327,550,ls),
(322,550,o),
(318,548,o),
(316,542,cs),
(64,-48,ls),
(61,-55,o),
(65,-60,o),
(72,-60,cs)
);
}
);
};
layerId = m004;
shapes = (
{
ref = O;
},
{
closed = 1;
nodes = (
(743,657,l),
(664,730,l),
(43,63,l),
(122,-10,l)
);
}
);
width = 798;
}
);
unicode = 216;
},
{
glyphname = OE;
kernLeft = KO_O;
kernRight = KO_E;
lastChange = "2023-02-07 18:54:18 +0000";
layers = (
{
layerId = m01;
shapes = (
{
closed = 1;
nodes = (
(300,-10,o),
(330,-5,o),
(361,12,c),
(361,93,l),
(338,67,o),
(308,54,o),
(267,54,cs),
(160,54,o),
(112,160,o),
(112,361,cs),
(112,560,o),
(160,666,o),
(267,666,cs),
(308,666,o),
(338,653,o),
(361,627,c),
(361,708,l),
(330,725,o),
(300,730,o),
(267,730,cs),
(118,730,o),
(40,593,o),
(40,361,cs),
(40,127,o),
(118,-10,o),
(267,-10,cs)
);
},
{
closed = 1;
nodes = (
(615,0,l),
(615,62,l),
(400,62,l),
(400,344,l),
(593,344,l),
(593,406,l),
(400,406,l),
(400,658,l),
(607,658,l),
(607,720,l),
(330,720,l),
(330,0,l)
);
}
);
width = 665;
},
{
layerId = m002;
shapes = (
{
closed = 1;
nodes = (
(483,-10,o),
(528,-5,o),
(566,6,c),
(566,86,l),
(537,71,o),
(480,64,o),
(422,64,cs),
(236,64,o),
(134,183,o),
(134,361,cs),
(134,537,o),
(236,656,o),
(422,656,cs),
(480,656,o),
(537,649,o),
(566,634,c),
(566,714,l),
(528,725,o),
(483,730,o),
(422,730,cs),
(193,730,o),
(50,577,o),
(50,361,cs),
(50,143,o),
(193,-10,o),
(422,-10,cs)
);
},
{
closed = 1;
nodes = (
(994,0,l),
(994,72,l),
(614,72,l),
(614,339,l),
(958,339,l),
(958,411,l),
(614,411,l),
(614,648,l),
(986,648,l),
(986,720,l),
(532,720,l),
(532,0,l)
);
}
);
width = 1064;
},
{
background = {
shapes = (
{
closed = 1;
nodes = (
(343,-10,o),
(385,6,o),
(424,39,c),
(356,131,l),
(342,120,o),
(315,112,o),
(285,112,cs),
(205,112,o),
(174,185,o),
(174,361,cs),
(174,535,o),
(205,608,o),
(285,608,cs),
(315,608,o),
(342,600,o),
(356,589,c),
(424,681,l),
(385,714,o),
(343,730,o),
(277,730,cs),
(122,730,o),
(30,603,o),
(30,361,cs),
(30,117,o),
(122,-10,o),
(277,-10,cs)
);
},
{
closed = 1;
nodes = (
(666,0,l),
(666,120,l),
(486,120,l),
(486,312,l),
(648,312,l),
(648,430,l),
(486,430,l),
(486,600,l),
(658,600,l),
(658,720,l),
(344,720,l),
(344,0,l)
);
}
);
};
layerId = m003;
shapes = (
{
closed = 1;
nodes = (
(343,-10,o),
(385,6,o),
(424,39,c),
(356,121,l),
(342,110,o),
(315,102,o),
(285,102,cs),
(205,102,o),
(174,175,o),
(174,361,cs),
(174,545,o),
(205,618,o),
(285,618,cs),
(315,618,o),
(342,610,o),
(356,599,c),
(424,681,l),
(385,714,o),
(343,730,o),
(277,730,cs),
(122,730,o),
(30,603,o),
(30,361,cs),
(30,117,o),
(122,-10,o),
(277,-10,cs)
);
},
{
closed = 1;
nodes = (
(666,0,l),
(666,110,l),
(486,110,l),
(486,317,l),
(648,317,l),
(648,425,l),
(486,425,l),
(486,610,l),
(658,610,l),
(658,720,l),
(344,720,l),
(344,0,l)
);
}
);
width = 704;
},
{
background = {
shapes = (
{
closed = 1;
nodes = (
(488,-10,o),
(535,-6,o),
(576,1,c),
(576,141,l),
(535,127,o),
(493,120,o),
(430,120,cs),
(270,120,o),
(186,215,o),
(186,361,cs),
(186,505,o),
(270,600,o),
(430,600,cs),
(493,600,o),
(535,593,o),
(576,579,c),
(576,719,l),
(535,726,o),
(488,730,o),
(430,730,cs),
(193,730,o),
(30,582,o),
(30,361,cs),
(30,138,o),
(193,-10,o),
(430,-10,cs)
);
},
{
closed = 1;
nodes = (
(1050,0,l),
(1050,128,l),
(708,128,l),
(708,305,l),
(1015,305,l),
(1015,431,l),
(708,431,l),
(708,592,l),
(1038,592,l),
(1038,720,l),
(554,720,l),
(554,0,l)
);
}
);
};
layerId = m004;
shapes = (
{
closed = 1;
nodes = (
(488,-10,o),
(535,-6,o),
(576,1,c),
(576,133,l),
(535,119,o),
(493,112,o),
(430,112,cs),
(270,112,o),
(186,207,o),
(186,361,cs),
(186,513,o),
(270,608,o),
(430,608,cs),
(493,608,o),
(535,601,o),
(576,587,c),
(576,719,l),
(535,726,o),
(488,730,o),
(430,730,cs),
(193,730,o),
(30,582,o),
(30,361,cs),
(30,138,o),
(193,-10,o),
(430,-10,cs)
);
},
{
closed = 1;
nodes = (
(1050,0,l),
(1050,118,l),
(708,118,l),
(708,310,l),
(1015,310,l),
(1015,426,l),
(708,426,l),
(708,602,l),
(1038,602,l),
(1038,720,l),
(554,720,l),
(554,0,l)
);
}
);
width = 1090;
}
);
metricLeft = O;
metricRight = E;
unicode = 338;
},
{
glyphname = P;
kernRight = KO_P;
lastChange = "2023-02-07 18:55:19 +0000";
layers = (
{
background = {
shapes = (
{
ref = H;
}
);
};
guides = (
{
pos = (261,326);
}
);
layerId = m01;
shapes = (
{
closed = 1;
nodes = (
(140,0,l),
(140,658,l),
(204,658,ls),
(288,658,o),
(336,600,o),
(336,510,cs),
(336,418,o),
(288,359,o),
(204,359,cs),
(118,359,l),
(118,297,l),
(206,297,ls),
(333,297,o),
(406,384,o),
(406,510,cs),
(406,635,o),
(334,720,o),
(206,720,cs),
(70,720,l),
(70,0,l)
);
}
);
width = 434;
},
{
background = {
shapes = (
{
ref = H;
}
);
};
guides = (
{
pos = (261,326);
}
);
layerId = m002;
shapes = (
{
closed = 1;
nodes = (
(168,0,l),
(168,648,l),
(369,648,ls),
(477,648,o),
(532,600,o),
(532,510,cs),
(532,419,o),
(475,369,o),
(369,369,cs),
(146,369,l),
(146,297,l),
(372,297,ls),
(525,297,o),
(614,378,o),
(614,510,cs),
(614,641,o),
(526,720,o),
(372,720,cs),
(86,720,l),
(86,0,l)
);
}
);
width = 656;
},
{
background = {
shapes = (
{
closed = 1;
nodes = (
(192,0,l),
(192,600,l),
(228,600,ls),
(280,600,o),
(306,565,o),
(306,496,cs),
(306,426,o),
(280,391,o),
(228,391,cs),
(160,391,l),
(160,271,l),
(231,271,ls),
(366,271,o),
(448,356,o),
(448,494,cs),
(448,633,o),
(364,720,o),
(231,720,cs),
(50,720,l),
(50,0,l)
);
}
);
};
guides = (
{
pos = (261,326);
}
);
layerId = m003;
shapes = (
{
closed = 1;
nodes = (
(192,0,l),
(192,610,l),
(228,610,ls),
(280,610,o),
(306,575,o),
(306,496,cs),
(306,416,o),
(280,381,o),
(228,381,cs),
(160,381,l),
(160,271,l),
(231,271,ls),
(366,271,o),
(448,356,o),
(448,494,cs),
(448,633,o),
(364,720,o),
(231,720,cs),
(50,720,l),
(50,0,l)
);
}
);
width = 468;
},
{
background = {
shapes = (
{
closed = 1;
nodes = (
(204,0,l),
(204,592,l),
(394,592,ls),
(459,592,o),
(496,554,o),
(496,496,cs),
(496,438,o),
(458,399,o),
(394,399,cs),
(172,399,l),
(172,271,l),
(392,271,ls),
(549,271,o),
(650,362,o),
(650,497,cs),
(650,631,o),
(551,720,o),
(392,720,cs),
(50,720,l),
(50,0,l)
);
}
);
};
guides = (
{
pos = (265,326);
}
);
layerId = m004;
shapes = (
{
closed = 1;
nodes = (
(204,0,l),
(204,602,l),
(384,602,ls),
(455,602,o),
(496,560,o),
(496,496,cs),
(496,432,o),
(454,389,o),
(384,389,cs),
(172,389,l),
(172,271,l),
(392,271,ls),
(549,271,o),
(650,362,o),
(650,497,cs),
(650,631,o),
(551,720,o),
(392,720,cs),
(50,720,l),
(50,0,l)
);
}
);
width = 672;
}
);
unicode = 80;
userData = {
KernOnSpecialSpacing = {
L = NoKerning;
};
};
},
{
glyphname = Thorn;
kernLeft = KO_B;
lastChange = "2023-02-07 18:56:40 +0000";
layers = (
{
layerId = m01;
shapes = (
{
closed = 1;
nodes = (
(196,170,ls),
(318,170,o),
(406,247,o),
(406,370,cs),
(406,493,o),
(318,570,o),
(196,570,cs),
(118,570,l),
(118,508,l),
(194,508,ls),
(288,508,o),
(336,459,o),
(336,370,cs),
(336,281,o),
(288,232,o),
(194,232,cs),
(118,232,l),
(118,170,l)
);
},
{
closed = 1;
nodes = (
(140,0,l),
(140,720,l),
(70,720,l),
(70,0,l)
);
}
);
width = 434;
},
{
layerId = m002;
shapes = (
{
closed = 1;
nodes = (
(372,160,ls),
(525,160,o),
(614,241,o),
(614,370,cs),
(614,499,o),
(525,580,o),
(372,580,cs),
(146,580,l),
(146,508,l),
(369,508,ls),
(475,508,o),
(532,458,o),
(532,370,cs),
(532,282,o),
(475,232,o),
(369,232,cs),
(146,232,l),
(146,160,l)
);
},
{
closed = 1;
nodes = (
(168,0,l),
(168,720,l),
(86,720,l),
(86,0,l)
);
}
);
width = 656;
},
{
background = {
shapes = (
{
closed = 1;
nodes = (
(221,160,ls),
(347,160,o),
(448,235,o),
(448,370,cs),
(448,505,o),
(347,580,o),
(221,580,cs),
(160,580,l),
(160,460,l),
(218,460,ls),
(270,460,o),
(306,435,o),
(306,370,cs),
(306,305,o),
(270,280,o),
(218,280,cs),
(160,280,l),
(160,160,l)
);
},
{
closed = 1;
nodes = (
(192,0,l),
(192,720,l),
(50,720,l),
(50,0,l)
);
}
);
};
layerId = m003;
shapes = (
{
closed = 1;
nodes = (
(221,160,ls),
(347,160,o),
(448,235,o),
(448,370,cs),
(448,505,o),
(347,580,o),
(221,580,cs),
(160,580,l),
(160,470,l),
(218,470,ls),
(270,470,o),
(306,445,o),
(306,370,cs),
(306,295,o),
(270,270,o),
(218,270,cs),
(160,270,l),
(160,160,l)
);
},
{
closed = 1;
nodes = (
(192,0,l),
(192,720,l),
(50,720,l),
(50,0,l)
);
}
);
width = 468;
},
{
background = {
shapes = (
{
closed = 1;
nodes = (
(388,150,ls),
(545,150,o),
(646,241,o),
(646,370,cs),
(646,499,o),
(545,590,o),
(388,590,cs),
(168,590,l),
(168,462,l),
(390,462,ls),
(454,462,o),
(492,423,o),
(492,370,cs),
(492,317,o),
(454,278,o),
(390,278,cs),
(168,278,l),
(168,150,l)
);
},
{
closed = 1;
nodes = (
(200,0,l),
(200,720,l),
(46,720,l),
(46,0,l)
);
}
);
};
layerId = m004;
shapes = (
{
closed = 1;
nodes = (
(388,150,ls),
(545,150,o),
(646,241,o),
(646,370,cs),
(646,499,o),
(545,590,o),
(388,590,cs),
(168,590,l),
(168,472,l),
(378,472,ls),
(449,472,o),
(492,429,o),
(492,370,cs),
(492,311,o),
(449,268,o),
(378,268,cs),
(168,268,l),
(168,150,l)
);
},
{
closed = 1;
nodes = (
(200,0,l),
(200,720,l),
(46,720,l),
(46,0,l)
);
}
);
width = 668;
}
);
unicode = 222;
},
{
glyphname = Q;
kernLeft = KO_O;
kernRight = KO_Q;
lastChange = "2023-02-07 18:59:37 +0000";
layers = (
{
background = {
shapes = (
{
closed = 1;
nodes = (
(381,-10,o),
(460,130,o),
(460,362,cs),
(460,593,o),
(382,730,o),
(249,730,cs),
(118,730,o),
(40,593,o),
(40,363,cs),
(40,130,o),
(119,-10,o),
(250,-10,cs)
);
},
{
closed = 1;
nodes = (
(161,54,o),
(112,165,o),
(112,364,cs),
(112,560,o),
(160,666,o),
(249,666,cs),
(339,666,o),
(388,559,o),
(388,364,cs),
(388,166,o),
(338,54,o),
(249,54,cs)
);
},
{
closed = 1;
nodes = (
(252,-10,l),
(316,-10,o),
(356,-49,o),
(356,-130,cs),
(356,-205,l),
(423,-205,l),
(423,-117,ls),
(423,-36,o),
(392,18,o),
(295,34,c)
);
}
);
};
guides = (
{
angle = 90;
pos = (460,56);
}
);
layerId = m01;
shapes = (
{
closed = 1;
nodes = (
(317,22,l),
(416,66,o),
(460,188,o),
(460,362,cs),
(460,593,o),
(382,730,o),
(249,730,cs),
(118,730,o),
(40,593,o),
(40,363,cs),
(40,130,o),
(119,-10,o),
(250,-10,c)
);
},
{
closed = 1;
nodes = (
(161,54,o),
(112,165,o),
(112,364,cs),
(112,560,o),
(160,666,o),
(249,666,cs),
(339,666,o),
(388,559,o),
(388,364,cs),
(388,166,o),
(338,54,o),
(249,54,cs)
);
},
{
closed = 1;
nodes = (
(327,-10,o),
(380,0,o),
(480,0,c),
(480,62,l),
(250,42,l),
(250,-10,l)
);
}
);
width = 500;
},
{
background = {
shapes = (
{
closed = 1;
nodes = (
(591,-10,o),
(736,147,o),
(736,362,cs),
(736,577,o),
(593,730,o),
(392,730,cs),
(193,730,o),
(50,577,o),
(50,363,cs),
(50,147,o),
(194,-10,o),
(393,-10,cs)
);
},
{
closed = 1;
nodes = (
(238,64,o),
(134,188,o),
(134,364,cs),
(134,537,o),
(236,656,o),
(392,656,cs),
(548,656,o),
(652,536,o),
(652,364,cs),
(652,189,o),
(546,64,o),
(392,64,cs)
);
},
{
closed = 1;
nodes = (
(393,-10,l),
(512,-10,o),
(556,-57,o),
(556,-143,cs),
(556,-205,l),
(634,-205,l),
(634,-127,ls),
(634,-26,o),
(574,34,o),
(448,31,c)
);
}
);
};
layerId = m002;
shapes = (
{
closed = 1;
nodes = (
(501,37,l),
(654,68,o),
(736,201,o),
(736,362,cs),
(736,577,o),
(593,730,o),
(392,730,cs),
(193,730,o),
(50,577,o),
(50,363,cs),
(50,147,o),
(184,-10,o),
(411,-10,c)
);
},
{
closed = 1;
nodes = (
(238,60,o),
(134,188,o),
(134,364,cs),
(134,537,o),
(236,656,o),
(392,656,cs),
(548,656,o),
(652,536,o),
(652,364,cs),
(652,189,o),
(549,60,o),
(392,60,cs)
);
},
{
closed = 1;
nodes = (
(565,-10,o),
(601,0,o),
(763,0,c),
(763,72,l),
(393,44,l),
(411,-10,l)
);
}
);
width = 787;
},
{
background = {
shapes = (
{
closed = 1;
nodes = (
(423,-10,o),
(506,119,o),
(506,362,cs),
(506,604,o),
(424,730,o),
(267,730,cs),
(112,730,o),
(30,603,o),
(30,363,cs),
(30,120,o),
(113,-10,o),
(268,-10,cs)
);
},
{
closed = 1;
nodes = (
(203,102,o),
(174,181,o),
(174,364,cs),
(174,545,o),
(202,618,o),
(267,618,cs),
(333,618,o),
(362,543,o),
(362,364,cs),
(362,182,o),
(332,102,o),
(267,102,cs)
);
},
{
closed = 1;
nodes = (
(267,-10,l),
(315,-10,o),
(338,-33,o),
(338,-80,cs),
(338,-205,l),
(470,-205,l),
(470,-75,ls),
(470,6,o),
(439,50,o),
(340,66,c)
);
}
);
};
layerId = m003;
shapes = (
{
closed = 1;
nodes = (
(357,50,l),
(472,98,o),
(506,207,o),
(506,362,cs),
(506,604,o),
(424,730,o),
(267,730,cs),
(112,730,o),
(30,603,o),
(30,363,cs),
(30,120,o),
(106,-10,o),
(288,-10,c)
);
},
{
closed = 1;
nodes = (
(203,102,o),
(174,181,o),
(174,364,cs),
(174,545,o),
(202,618,o),
(267,618,cs),
(333,618,o),
(362,543,o),
(362,364,cs),
(362,182,o),
(332,102,o),
(267,102,cs)
);
},
{
closed = 1;
nodes = (
(366,-10,o),
(434,0,o),
(528,0,c),
(528,110,l),
(268,80,l),
(288,-10,l)
);
}
);
width = 546;
},
{
background = {
shapes = (
{
ref = O;
},
{
closed = 1;
nodes = (
(399,-10,l),
(503,-10,o),
(542,-52,o),
(542,-143,cs),
(542,-205,l),
(690,-205,l),
(690,-102,ls),
(690,1,o),
(630,59,o),
(496,56,c)
);
}
);
};
layerId = m004;
shapes = (
{
closed = 1;
nodes = (
(543,56,l),
(705,99,o),
(768,221,o),
(768,362,cs),
(768,582,o),
(615,730,o),
(398,730,cs),
(183,730,o),
(30,582,o),
(30,363,cs),
(30,141,o),
(185,-10,o),
(399,-10,c)
);
},
{
closed = 1;
nodes = (
(273,106,o),
(186,202,o),
(186,364,cs),
(186,513,o),
(271,608,o),
(398,608,cs),
(525,608,o),
(612,512,o),
(612,364,cs),
(612,204,o),
(523,106,o),
(398,106,cs)
);
},
{
closed = 1;
nodes = (
(552,-10,o),
(634,0,o),
(805,0,c),
(805,118,l),
(399,98,l),
(399,-10,l)
);
}
);
width = 815;
}
);
unicode = 81;
},
{
glyphname = R;
kernLeft = KO_B;
kernRight = KO_R.ss05;
lastChange = "2023-02-07 19:01:00 +0000";
layers = (
{
anchors = (
{
name = bottom;
pos = (217,0);
},
{
name = top;
pos = (217,720);
}
);
background = {
shapes = (
{
closed = 1;
nodes = (
(140,0,l),
(140,658,l),
(204,658,ls),
(288,658,o),
(336,600,o),
(336,510,cs),
(336,418,o),
(288,359,o),
(204,359,cs),
(118,359,l),
(118,297,l),
(206,297,ls),
(333,297,o),
(406,384,o),
(406,510,cs),
(406,635,o),
(334,720,o),
(206,720,cs),
(70,720,l),
(70,0,l)
);
}
);
};
guides = (
{
angle = 32.9052;
pos = (260,312);
showMeasurement = 1;
}
);
layerId = m01;
shapes = (
{
closed = 1;
nodes = (
(140,0,l),
(140,658,l),
(204,658,ls),
(278,658,o),
(326,600,o),
(326,520,cs),
(326,438,o),
(278,379,o),
(204,379,cs),
(118,379,l),
(118,317,l),
(206,317,ls),
(323,317,o),
(396,404,o),
(396,520,cs),
(396,635,o),
(324,720,o),
(206,720,cs),
(70,720,l),
(70,0,l)
);
},
{
closed = 1;
nodes = (
(424,0,l),
(182,374,l),
(104,374,l),
(341,0,l)
);
}
);
width = 434;
},
{
anchors = (
{
name = bottom;
pos = (328,0);
},
{
name = top;
pos = (328,720);
}
);
background = {
shapes = (
{
closed = 1;
nodes = (
(168,0,l),
(168,648,l),
(349,648,ls),
(457,648,o),
(512,600,o),
(512,520,cs),
(512,439,o),
(455,389,o),
(349,389,cs),
(146,389,l),
(146,317,l),
(352,317,ls),
(505,317,o),
(594,398,o),
(594,520,cs),
(594,641,o),
(506,720,o),
(352,720,cs),
(86,720,l),
(86,0,l)
);
},
{
closed = 1;
nodes = (
(632,0,l),
(228,357,l),
(121,357,l),
(513,0,l)
);
}
);
};
guides = (
{
angle = 47.8928;
pos = (435,179);
showMeasurement = 1;
}
);
layerId = m002;
shapes = (
{
closed = 1;
nodes = (
(168,0,l),
(168,648,l),
(349,648,ls),
(457,648,o),
(512,600,o),
(512,520,cs),
(512,439,o),
(455,389,o),
(349,389,cs),
(146,389,l),
(146,317,l),
(352,317,ls),
(505,317,o),
(594,398,o),
(594,520,cs),
(594,641,o),
(506,720,o),
(352,720,cs),
(86,720,l),
(86,0,l)
);
},
{
closed = 1;
nodes = (
(632,0,l),
(237,357,l),
(125,357,l),
(508,0,l)
);
}
);
width = 656;
},
{
anchors = (
{
name = bottom;
pos = (234,0);
},
{
name = top;
pos = (234,720);
}
);
background = {
shapes = (
{
closed = 1;
nodes = (
(192,0,l),
(192,600,l),
(228,600,ls),
(270,600,o),
(296,565,o),
(296,506,cs),
(296,446,o),
(270,411,o),
(228,411,cs),
(160,411,l),
(160,299,l),
(231,299,ls),
(356,299,o),
(438,384,o),
(438,508,cs),
(438,633,o),
(354,720,o),
(231,720,cs),
(50,720,l),
(50,0,l)
);
},
{
closed = 1;
nodes = (
(466,0,l),
(307,374,l),
(162,374,l),
(312,0,l)
);
}
);
};
guides = (
{
angle = 23.032;
pos = (387,187);
showMeasurement = 1;
}
);
layerId = m003;
shapes = (
{
closed = 1;
nodes = (
(192,0,l),
(192,610,l),
(224,610,ls),
(271,610,o),
(300,571,o),
(300,506,cs),
(300,440,o),
(271,401,o),
(224,401,cs),
(160,401,l),
(160,299,l),
(231,299,ls),
(356,299,o),
(438,384,o),
(438,508,cs),
(438,633,o),
(354,720,o),
(231,720,cs),
(50,720,l),
(50,0,l)
);
},
{
closed = 1;
nodes = (
(466,0,l),
(307,374,l),
(172,374,l),
(312,0,l)
);
}
);
width = 468;
},
{
anchors = (
{
name = bottom;
pos = (334,0);
},
{
name = top;
pos = (334,720);
}
);
background = {
shapes = (
{
closed = 1;
nodes = (
(200,0,l),
(200,592,l),
(370,592,ls),
(436,592,o),
(472,562,o),
(472,506,cs),
(472,450,o),
(435,419,o),
(370,419,cs),
(168,419,l),
(168,296,l),
(368,296,ls),
(523,296,o),
(626,380,o),
(626,507,cs),
(626,635,o),
(523,720,o),
(368,720,cs),
(46,720,l),
(46,0,l)
);
},
{
closed = 1;
nodes = (
(660,0,l),
(326,374,l),
(133,374,l),
(452,0,l)
);
}
);
};
guides = (
{
angle = 41.7664;
pos = (493,187);
showMeasurement = 1;
}
);
layerId = m004;
shapes = (
{
closed = 1;
nodes = (
(200,0,l),
(200,602,l),
(364,602,ls),
(438,602,o),
(478,569,o),
(478,506,cs),
(478,444,o),
(437,409,o),
(364,409,cs),
(168,409,l),
(168,296,l),
(368,296,ls),
(523,296,o),
(626,380,o),
(626,507,cs),
(626,635,o),
(523,720,o),
(368,720,cs),
(46,720,l),
(46,0,l)
);
},
{
closed = 1;
nodes = (
(660,0,l),
(326,374,l),
(163,374,l),
(452,0,l)
);
}
);
width = 668;
}
);
unicode = 82;
},
{
glyphname = S;
kernLeft = KO_S;
kernRight = KO_S;
lastChange = "2023-03-04 13:28:54 +0000";
layers = (
{
anchors = (
{
name = bottom;
pos = (216,0);
},
{
name = top;
pos = (216,720);
}
);
background = {
shapes = (
{
closed = 1;
nodes = (
(322,-9,o),
(384,57,o),
(384,170,cs),
(384,248,o),
(355,313,o),
(242,396,cs),
(142,470,o),
(122,512,o),
(122,568,cs),
(122,636,o),
(152,669,o),
(209,669,cs),
(278,669,o),
(311,620,o),
(311,514,c),
(379,514,l),
(379,653,o),
(319,731,o),
(210,731,cs),
(114,731,o),
(52,670,o),
(52,562,cs),
(52,472,o),
(95,419,o),
(204,335,cs),
(294,265,o),
(314,225,o),
(314,166,cs),
(314,90,o),
(281,53,o),
(223,53,cs),
(145,53,o),
(99,119,o),
(99,230,c),
(32,230,l),
(32,80,o),
(101,-9,o),
(220,-9,cs)
);
}
);
};
guides = (
{
angle = 50.6122;
pos = (242,396);
showMeasurement = 1;
}
);
layerId = m01;
shapes = (
{
closed = 1;
nodes = (
(320,-9,o),
(384,56,o),
(384,160,cs),
(384,235,o),
(350,307,o),
(289,357,cs),
(194,435,ls),
(144,476,o),
(122,518,o),
(122,571,cs),
(122,634,o),
(153,669,o),
(210,669,cs),
(279,669,o),
(312,619,o),
(312,514,c),
(379,514,l),
(379,653,o),
(319,731,o),
(212,731,cs),
(115,731,o),
(52,667,o),
(52,569,cs),
(52,498,o),
(86,431,o),
(149,380,cs),
(244,302,ls),
(293,262,o),
(314,220,o),
(314,163,cs),
(314,91,o),
(283,53,o),
(224,53,cs),
(145,53,o),
(99,119,o),
(99,230,c),
(32,230,l),
(32,80,o),
(101,-9,o),
(219,-9,cs)
);
}
);
width = 414;
},
{
anchors = (
{
name = bottom;
pos = (313,0);
},
{
name = top;
pos = (313,720);
}
);
background = {
shapes = (
{
closed = 1;
nodes = (
(483,-9,o),
(566,60,o),
(566,187,cs),
(566,303,o),
(494,370,o),
(330,408,cs),
(205,437,o),
(156,474,o),
(156,544,cs),
(156,618,o),
(210,659,o),
(306,659,cs),
(407,659,o),
(459,614,o),
(476,514,c),
(556,514,l),
(542,652,o),
(452,731,o),
(308,731,cs),
(167,731,o),
(74,655,o),
(74,540,cs),
(74,433,o),
(148,367,o),
(304,330,cs),
(436,299,o),
(484,260,o),
(484,183,cs),
(484,103,o),
(433,63,o),
(329,63,cs),
(206,63,o),
(137,119,o),
(122,230,c),
(42,230,l),
(59,76,o),
(162,-9,o),
(330,-9,cs)
);
}
);
};
guides = (
{
angle = 70.7693;
pos = (334,407);
showMeasurement = 1;
}
);
layerId = m002;
shapes = (
{
closed = 1;
nodes = (
(480,-9,o),
(566,60,o),
(566,180,cs),
(566,281,o),
(510,345,o),
(398,384,cs),
(269,429,ls),
(190,456,o),
(154,488,o),
(154,548,cs),
(154,618,o),
(210,659,o),
(306,659,cs),
(407,659,o),
(459,614,o),
(476,514,c),
(556,514,l),
(542,652,o),
(452,731,o),
(308,731,cs),
(167,731,o),
(74,655,o),
(74,540,cs),
(74,447,o),
(131,390,o),
(254,347,cs),
(375,305,ls),
(451,279,o),
(486,244,o),
(486,179,cs),
(486,103,o),
(433,63,o),
(329,63,cs),
(206,63,o),
(137,119,o),
(122,230,c),
(42,230,l),
(59,76,o),
(162,-9,o),
(330,-9,cs)
);
}
);
width = 608;
},
{
anchors = (
{
name = bottom;
pos = (237,0);
},
{
name = top;
pos = (237,720);
}
);
background = {
shapes = (
{
closed = 1;
nodes = (
(363,-9,o),
(431,59,o),
(431,181,cs),
(431,273,o),
(391,345,o),
(308,403,cs),
(210,473,o),
(184,503,o),
(184,549,cs),
(184,589,o),
(202,611,o),
(234,611,cs),
(273,611,o),
(292,579,o),
(292,514,c),
(425,514,l),
(425,655,o),
(360,731,o),
(237,731,cs),
(119,731,o),
(48,661,o),
(48,543,cs),
(48,452,o),
(91,381,o),
(185,314,cs),
(262,260,o),
(295,218,o),
(295,172,cs),
(295,134,o),
(272,111,o),
(236,111,cs),
(186,111,o),
(157,155,o),
(157,230,c),
(24,230,l),
(24,79,o),
(104,-9,o),
(242,-9,cs)
);
}
);
};
layerId = m003;
shapes = (
{
closed = 1;
nodes = (
(354,-10,o),
(431,60,o),
(431,181,cs),
(431,261,o),
(401,331,o),
(319,394,cs),
(246,450,ls),
(202,484,o),
(180,515,o),
(180,557,cs),
(180,599,o),
(202,620,o),
(234,620,cs),
(273,620,o),
(295,588,o),
(295,514,c),
(425,514,l),
(425,655,o),
(360,730,o),
(237,730,cs),
(119,730,o),
(48,661,o),
(48,541,cs),
(48,460,o),
(81,393,o),
(157,335,cs),
(231,279,ls),
(279,243,o),
(299,205,o),
(299,167,cs),
(299,124,o),
(274,100,o),
(238,100,cs),
(188,100,o),
(157,145,o),
(157,230,c),
(24,230,l),
(24,79,o),
(95,-10,o),
(232,-10,cs)
);
}
);
width = 454;
},
{
anchors = (
{
name = bottom;
pos = (346,0);
},
{
name = top;
pos = (336,720);
}
);
background = {
shapes = (
{
closed = 1;
nodes = (
(525,-9,o),
(630,71,o),
(630,215,cs),
(630,336,o),
(555,411,o),
(356,442,cs),
(247,459,o),
(211,488,o),
(211,533,cs),
(211,581,o),
(253,607,o),
(323,607,cs),
(403,607,o),
(453,574,o),
(466,514,c),
(618,514,l),
(605,645,o),
(500,731,o),
(332,731,cs),
(168,731,o),
(61,650,o),
(61,520,cs),
(61,405,o),
(144,323,o),
(327,296,cs),
(440,279,o),
(480,247,o),
(480,194,cs),
(480,142,o),
(436,115,o),
(353,115,cs),
(251,115,o),
(185,163,o),
(176,230,c),
(24,230,l),
(43,78,o),
(159,-9,o),
(346,-9,cs)
);
}
);
};
guides = (
{
angle = 74.5641;
pos = (364,441);
showMeasurement = 1;
}
);
layerId = m004;
shapes = (
{
closed = 1;
nodes = (
(525,-9,o),
(630,71,o),
(630,215,cs),
(630,317,o),
(572,383,o),
(431,422,cs),
(297,459,ls),
(225,479,o),
(209,508,o),
(209,543,cs),
(209,588,o),
(253,617,o),
(323,617,cs),
(403,617,o),
(457,584,o),
(470,514,c),
(618,514,l),
(605,645,o),
(500,731,o),
(332,731,cs),
(168,731,o),
(61,650,o),
(61,520,cs),
(61,418,o),
(121,352,o),
(259,314,cs),
(393,277,ls),
(458,259,o),
(482,232,o),
(482,186,cs),
(482,136,o),
(436,105,o),
(353,105,cs),
(251,105,o),
(181,153,o),
(172,230,c),
(24,230,l),
(43,78,o),
(159,-9,o),
(346,-9,cs)
);
}
);
width = 652;
}
);
unicode = 83;
userData = {
KernOnName = S;
};
},
{
glyphname = Germandbls;
lastChange = "2023-02-07 19:05:53 +0000";
layers = (
{
guides = (
{
angle = -29.3159;
pos = (375,501);
showMeasurement = 1;
}
);
layerId = m01;
shapes = (
{
closed = 1;
nodes = (
(391,-9,o),
(448,67,o),
(448,175,cs),
(448,264,o),
(395,357,o),
(290,429,c),
(302,371,l),
(448,631,l),
(401,698,o),
(337,731,o),
(259,731,cs),
(138,731,o),
(70,653,o),
(70,514,cs),
(70,0,l),
(140,0,l),
(140,514,ls),
(140,620,o),
(183,669,o),
(257,669,cs),
(308,669,o),
(354,645,o),
(389,589,c),
(378,645,l),
(230,381,l),
(258,361,ls),
(339,303,o),
(376,237,o),
(376,176,cs),
(376,100,o),
(343,53,o),
(268,53,cs),
(243,53,o),
(214,57,o),
(194,63,c),
(194,0,l),
(216,-6,o),
(248,-9,o),
(272,-9,cs)
);
}
);
width = 478;
},
{
background = {
shapes = (
{
ref = H;
}
);
};
guides = (
{
angle = 90;
pos = (671,0);
}
);
layerId = m002;
shapes = (
{
closed = 1;
nodes = (
(579,-9,o),
(671,60,o),
(671,183,cs),
(671,299,o),
(588,383,o),
(426,429,c),
(455,371,l),
(664,624,l),
(581,701,o),
(505,731,o),
(394,731,cs),
(193,731,o),
(86,628,o),
(86,434,cs),
(86,0,l),
(168,0,l),
(168,434,ls),
(168,583,o),
(243,659,o),
(390,659,cs),
(471,659,o),
(534,635,o),
(580,586,c),
(583,645,l),
(358,374,l),
(383,367,ls),
(531,326,o),
(589,277,o),
(589,192,cs),
(589,105,o),
(533,63,o),
(417,63,cs),
(361,63,o),
(311,72,o),
(278,88,c),
(278,11,l),
(310,-2,o),
(360,-9,o),
(415,-9,cs)
);
}
);
width = 713;
},
{
background = {
shapes = (
{
closed = 1;
nodes = (
(412,-9,o),
(488,67,o),
(488,175,cs),
(488,284,o),
(425,377,o),
(315,449,c),
(359,371,l),
(488,631,l),
(434,698,o),
(359,731,o),
(269,731,cs),
(129,731,o),
(50,653,o),
(50,514,cs),
(50,0,l),
(192,0,l),
(192,514,ls),
(192,582,o),
(222,611,o),
(272,611,cs),
(321,611,o),
(346,587,o),
(363,561,c),
(359,640,l),
(219,358,l),
(250,336,ls),
(319,287,o),
(348,245,o),
(348,190,cs),
(348,142,o),
(320,111,o),
(279,111,cs),
(258,111,o),
(243,113,o),
(230,116,c),
(230,0,l),
(245,-6,o),
(266,-9,o),
(294,-9,cs)
);
}
);
};
guides = (
{
angle = 90;
pos = (488,407);
}
);
layerId = m003;
shapes = (
{
closed = 1;
nodes = (
(412,-9,o),
(488,67,o),
(488,175,cs),
(488,284,o),
(425,367,o),
(315,439,c),
(359,371,l),
(488,631,l),
(434,698,o),
(359,731,o),
(269,731,cs),
(129,731,o),
(50,653,o),
(50,514,cs),
(50,0,l),
(192,0,l),
(192,524,ls),
(192,592,o),
(222,621,o),
(272,621,cs),
(321,621,o),
(346,597,o),
(363,571,c),
(359,640,l),
(219,358,l),
(250,336,ls),
(319,287,o),
(348,245,o),
(348,185,cs),
(348,132,o),
(320,101,o),
(279,101,cs),
(258,101,o),
(243,103,o),
(230,106,c),
(230,0,l),
(245,-6,o),
(266,-9,o),
(294,-9,cs)
);
}
);
width = 511;
},
{
background = {
shapes = (
{
closed = 1;
nodes = (
(588,-9,o),
(695,71,o),
(695,202,cs),
(695,319,o),
(611,404,o),
(440,459,c),
(500,381,l),
(687,620,l),
(605,694,o),
(503,731,o),
(379,731,cs),
(165,731,o),
(50,622,o),
(50,420,cs),
(50,0,l),
(204,0,l),
(204,428,ls),
(204,541,o),
(262,603,o),
(369,603,cs),
(429,603,o),
(476,585,o),
(510,549,c),
(530,630,l),
(331,366,l),
(377,353,ls),
(492,320,o),
(539,280,o),
(539,217,cs),
(539,150,o),
(494,119,o),
(397,119,cs),
(353,119,o),
(319,125,o),
(281,141,c),
(281,9,l),
(323,-3,o),
(368,-9,o),
(414,-9,cs)
);
}
);
};
layerId = m004;
shapes = (
{
closed = 1;
nodes = (
(588,-9,o),
(695,71,o),
(695,202,cs),
(695,319,o),
(620,391,o),
(440,449,c),
(500,381,l),
(687,620,l),
(605,694,o),
(503,731,o),
(379,731,cs),
(165,731,o),
(50,622,o),
(50,420,cs),
(50,0,l),
(204,0,l),
(204,436,ls),
(204,549,o),
(262,611,o),
(369,611,cs),
(429,611,o),
(476,593,o),
(510,557,c),
(530,630,l),
(331,366,l),
(377,353,ls),
(492,320,o),
(539,280,o),
(539,213,cs),
(539,142,o),
(494,111,o),
(397,111,cs),
(353,111,o),
(319,117,o),
(281,133,c),
(281,9,l),
(323,-3,o),
(368,-9,o),
(414,-9,cs)
);
}
);
width = 717;
}
);
metricLeft = H;
metricRight = S;
unicode = 7838;
},
{
glyphname = T;
kernLeft = KO_T;
kernRight = KO_T;
lastChange = "2023-02-07 19:08:37 +0000";
layers = (
{
anchors = (
{
name = bottom;
pos = (207,0);
},
{
name = center;
pos = (207,376);
},
{
name = top;
pos = (207,720);
}
);
background = {
shapes = (
{
pos = (-43,0);
ref = H;
}
);
};
layerId = m01;
shapes = (
{
closed = 1;
nodes = (
(242,0,l),
(242,658,l),
(394,658,l),
(394,720,l),
(20,720,l),
(20,658,l),
(172,658,l),
(172,0,l)
);
}
);
width = 414;
},
{
anchors = (
{
name = bottom;
pos = (324,0);
},
{
name = center;
pos = (324,377);
},
{
name = top;
pos = (324,720);
}
);
background = {
shapes = (
{
pos = (-44,0);
ref = H;
}
);
};
layerId = m002;
shapes = (
{
closed = 1;
nodes = (
(365,0,l),
(365,648,l),
(612,648,l),
(612,720,l),
(36,720,l),
(36,648,l),
(283,648,l),
(283,0,l)
);
}
);
width = 648;
},
{
anchors = (
{
name = bottom;
pos = (215,0);
},
{
name = center;
pos = (215,377);
},
{
name = top;
pos = (215,720);
}
);
background = {
shapes = (
{
closed = 1;
nodes = (
(286,0,l),
(286,600,l),
(420,600,l),
(420,720,l),
(10,720,l),
(10,600,l),
(144,600,l),
(144,0,l)
);
}
);
};
layerId = m003;
shapes = (
{
closed = 1;
nodes = (
(286,0,l),
(286,610,l),
(420,610,l),
(420,720,l),
(10,720,l),
(10,610,l),
(144,610,l),
(144,0,l)
);
}
);
width = 430;
},
{
anchors = (
{
name = bottom;
pos = (336,0);
},
{
name = center;
pos = (336,378);
},
{
name = top;
pos = (336,720);
}
);
background = {
shapes = (
{
closed = 1;
nodes = (
(413,0,l),
(413,592,l),
(648,592,l),
(648,720,l),
(24,720,l),
(24,592,l),
(259,592,l),
(259,0,l)
);
}
);
};
layerId = m004;
shapes = (
{
closed = 1;
nodes = (
(413,0,l),
(413,602,l),
(648,602,l),
(648,720,l),
(24,720,l),
(24,602,l),
(259,602,l),
(259,0,l)
);
}
);
width = 672;
}
);
metricRight = "=|";
unicode = 84;
userData = {
KernOnName = T;
};
},
{
glyphname = U;
kernLeft = KO_U;
kernRight = KO_U;
lastChange = "2023-02-07 19:09:51 +0000";
layers = (
{
anchors = (
{
name = bottom;
pos = (238,0);
},
{
name = ogonek;
pos = (341,20);
},
{
name = top;
pos = (238,720);
},
{
name = topright;
pos = (456,720);
}
);
background = {
shapes = (
{
closed = 1;
nodes = (
(350,-10,o),
(412,66,o),
(412,188,cs),
(412,720,l),
(342,720,l),
(342,182,ls),
(342,93,o),
(303,54,o),
(238,54,cs),
(173,54,o),
(134,93,o),
(134,183,cs),
(134,720,l),
(64,720,l),
(64,189,ls),
(64,66,o),
(126,-10,o),
(238,-10,cs)
);
}
);
};
layerId = m01;
shapes = (
{
closed = 1;
nodes = (
(350,-10,o),
(412,66,o),
(412,188,cs),
(412,720,l),
(342,720,l),
(342,182,ls),
(342,93,o),
(303,54,o),
(238,54,cs),
(173,54,o),
(134,93,o),
(134,183,cs),
(134,720,l),
(64,720,l),
(64,189,ls),
(64,66,o),
(126,-10,o),
(238,-10,cs)
);
}
);
width = 476;
},
{
anchors = (
{
name = bottom;
pos = (356,0);
},
{
name = ogonek;
pos = (493,20);
},
{
name = top;
pos = (356,720);
},
{
name = topright;
pos = (692,720);
}
);
background = {
anchors = (
{
name = ogonek;
pos = (493,20);
}
);
};
layerId = m002;
shapes = (
{
closed = 1;
nodes = (
(530,-10,o),
(632,101,o),
(632,291,cs),
(632,720,l),
(550,720,l),
(550,288,ls),
(550,143,o),
(481,64,o),
(355,64,cs),
(231,64,o),
(162,144,o),
(162,288,cs),
(162,720,l),
(80,720,l),
(80,292,ls),
(80,101,o),
(181,-10,o),
(355,-10,cs)
);
}
);
width = 712;
},
{
anchors = (
{
name = bottom;
pos = (249,0);
},
{
name = ogonek;
pos = (366,20);
},
{
name = top;
pos = (249,720);
},
{
name = topright;
pos = (478,720);
}
);
background = {
shapes = (
{
closed = 1;
nodes = (
(382,-10,o),
(452,73,o),
(452,207,cs),
(452,720,l),
(310,720,l),
(310,184,ls),
(310,136,o),
(287,112,o),
(249,112,cs),
(211,112,o),
(188,136,o),
(188,184,cs),
(188,720,l),
(46,720,l),
(46,207,ls),
(46,73,o),
(116,-10,o),
(249,-10,cs)
);
}
);
};
layerId = m003;
shapes = (
{
closed = 1;
nodes = (
(382,-10,o),
(452,73,o),
(452,207,cs),
(452,720,l),
(310,720,l),
(310,174,ls),
(310,126,o),
(287,102,o),
(249,102,cs),
(211,102,o),
(188,126,o),
(188,174,cs),
(188,720,l),
(46,720,l),
(46,207,ls),
(46,73,o),
(116,-10,o),
(249,-10,cs)
);
}
);
width = 498;
},
{
anchors = (
{
name = bottom;
pos = (350,0);
},
{
name = ogonek;
pos = (505,20);
},
{
name = top;
pos = (350,720);
},
{
name = topright;
pos = (686,720);
}
);
background = {
shapes = (
{
closed = 1;
nodes = (
(555,-10,o),
(658,105,o),
(658,319,cs),
(658,720,l),
(504,720,l),
(504,301,ls),
(504,177,o),
(446,120,o),
(350,120,cs),
(254,120,o),
(196,177,o),
(196,302,cs),
(196,720,l),
(42,720,l),
(42,321,ls),
(42,105,o),
(144,-10,o),
(349,-10,cs)
);
}
);
};
layerId = m004;
shapes = (
{
closed = 1;
nodes = (
(555,-10,o),
(658,105,o),
(658,319,cs),
(658,720,l),
(504,720,l),
(504,293,ls),
(504,169,o),
(446,112,o),
(350,112,cs),
(254,112,o),
(196,169,o),
(196,294,cs),
(196,720,l),
(42,720,l),
(42,321,ls),
(42,105,o),
(144,-10,o),
(349,-10,cs)
);
}
);
width = 700;
}
);
unicode = 85;
userData = {
KernOnName = U;
};
},
{
glyphname = V;
kernLeft = KO_V;
kernRight = KO_V;
lastChange = "2023-02-07 19:10:56 +0000";
layers = (
{
background = {
shapes = (
{
closed = 1;
nodes = (
(234,-10,o),
(241,-7,o),
(244,6,cs),
(399,631,ls),
(408,668,o),
(420,689,o),
(446,694,cs),
(461,697,ls),
(470,699,o),
(475,703,o),
(475,710,cs),
(475,717,o),
(469,720,o),
(460,720,cs),
(320,720,ls),
(311,720,o),
(306,716,o),
(306,709,cs),
(306,703,o),
(311,699,o),
(323,697,cs),
(338,695,ls),
(369,691,o),
(377,670,o),
(368,632,cs),
(250,157,l),
(245,157,l),
(125,653,ls),
(118,682,o),
(123,693,o),
(146,695,cs),
(165,697,ls),
(177,698,o),
(182,703,o),
(182,709,cs),
(182,716,o),
(177,720,o),
(168,720,cs),
(-3,720,ls),
(-12,720,o),
(-18,717,o),
(-18,710,cs),
(-18,703,o),
(-13,699,o),
(-4,697,cs),
(11,694,ls),
(37,689,o),
(46,677,o),
(55,640,cs),
(213,6,ls),
(216,-7,o),
(223,-10,o),
(229,-10,cs)
);
}
);
};
guides = (
{
angle = 12.1491;
pos = (102,360);
showMeasurement = 1;
},
{
angle = -12.1491;
pos = (347,360);
showMeasurement = 1;
}
);
layerId = m01;
shapes = (
{
closed = 1;
nodes = (
(269,0,l),
(424,720,l),
(358,720,l),
(220,52,l),
(232,52,l),
(94,720,l),
(24,720,l),
(179,0,l)
);
}
);
width = 448;
},
{
background = {
shapes = (
{
closed = 1;
nodes = (
(391,0,l),
(120,720,l),
(36,720,l),
(314,0,l)
);
},
{
closed = 1;
nodes = (
(414,0,l),
(692,720,l),
(613,720,l),
(342,0,l)
);
}
);
};
layerId = m002;
shapes = (
{
closed = 1;
nodes = (
(414,0,l),
(692,720,l),
(609,720,l),
(352,36,l),
(382,36,l),
(124,720,l),
(36,720,l),
(314,0,l)
);
}
);
width = 728;
},
{
background = {
shapes = (
{
closed = 1;
nodes = (
(337,0,l),
(478,720,l),
(340,720,l),
(243,149,l),
(253,149,l),
(155,720,l),
(12,720,l),
(153,0,l)
);
}
);
};
layerId = m003;
shapes = (
{
closed = 1;
nodes = (
(337,0,l),
(478,720,l),
(345,720,l),
(248,99,l),
(253,99,l),
(155,720,l),
(12,720,l),
(153,0,l)
);
}
);
width = 490;
},
{
background = {
shapes = (
{
closed = 1;
nodes = (
(434,0,l),
(184,720,l),
(24,720,l),
(282,0,l)
);
},
{
closed = 1;
nodes = (
(454,0,l),
(712,720,l),
(559,720,l),
(308,0,l)
);
}
);
};
layerId = m004;
shapes = (
{
closed = 1;
nodes = (
(454,0,l),
(712,720,l),
(560,720,l),
(362,120,l),
(381,120,l),
(184,720,l),
(24,720,l),
(282,0,l)
);
}
);
width = 736;
}
);
unicode = 86;
userData = {
KernOnName = V;
};
},
{
glyphname = W;
kernLeft = KO_W;
kernRight = KO_W;
lastChange = "2023-02-07 19:14:24 +0000";
layers = (
{
anchors = (
{
name = bottom;
pos = (311,0);
},
{
name = top;
pos = (311,720);
}
);
guides = (
{
angle = 8.195;
pos = (352,309);
showMeasurement = 1;
},
{
angle = -8.0632;
pos = (537,360);
showMeasurement = 1;
}
);
layerId = m01;
shapes = (
{
closed = 1;
nodes = (
(226,0,l),
(315,618,l),
(307,618,l),
(396,0,l),
(486,0,l),
(588,720,l),
(522,720,l),
(437,81,l),
(445,81,l),
(358,720,l),
(268,720,l),
(181,81,l),
(189,81,l),
(104,720,l),
(34,720,l),
(136,0,l)
);
}
);
width = 622;
},
{
anchors = (
{
name = bottom;
pos = (545,0);
},
{
name = top;
pos = (545,720);
}
);
guides = (
{
angle = 16.1681;
pos = (633,323);
showMeasurement = 1;
},
{
angle = -16.48;
pos = (933,360);
showMeasurement = 1;
}
);
layerId = m002;
shapes = (
{
closed = 1;
nodes = (
(363,0,l),
(551,645,l),
(539,645,l),
(726,0,l),
(826,0,l),
(1039,720,l),
(960,720,l),
(770,55,l),
(785,55,l),
(597,720,l),
(497,720,l),
(310,55,l),
(325,55,l),
(134,720,l),
(50,720,l),
(263,0,l)
);
}
);
width = 1089;
},
{
anchors = (
{
name = bottom;
pos = (340,0);
},
{
name = top;
pos = (340,720);
}
);
background = {
shapes = (
{
closed = 1;
nodes = (
(282,0,l),
(354,612,l),
(326,612,l),
(397,0,l),
(571,0,l),
(657,720,l),
(529,720,l),
(472,114,l),
(490,114,l),
(414,720,l),
(270,720,l),
(194,114,l),
(212,114,l),
(155,720,l),
(22,720,l),
(108,0,l)
);
}
);
};
guides = (
{
angle = 180;
pos = (343,612);
},
{
angle = 5.8581;
pos = (362,346);
showMeasurement = 1;
},
{
angle = -6.8114;
pos = (614,360);
showMeasurement = 1;
}
);
layerId = m003;
shapes = (
{
closed = 1;
nodes = (
(282,0,l),
(354,692,l),
(326,692,l),
(397,0,l),
(571,0,l),
(657,720,l),
(529,720,l),
(472,34,l),
(490,34,l),
(414,720,l),
(270,720,l),
(194,34,l),
(212,34,l),
(155,720,l),
(22,720,l),
(108,0,l)
);
}
);
width = 679;
},
{
anchors = (
{
name = bottom;
pos = (543,0);
},
{
name = top;
pos = (543,720);
}
);
background = {
shapes = (
{
closed = 1;
nodes = (
(409,0,l),
(564,586,l),
(524,586,l),
(677,0,l),
(849,0,l),
(1052,720,l),
(903,720,l),
(734,121,l),
(782,121,l),
(634,720,l),
(459,720,l),
(309,121,l),
(358,121,l),
(190,720,l),
(34,720,l),
(237,0,l)
);
}
);
};
guides = (
{
angle = 13.3245;
pos = (601,323);
showMeasurement = 1;
},
{
angle = -15.7455;
pos = (951,360);
showMeasurement = 1;
}
);
layerId = m004;
shapes = (
{
closed = 1;
nodes = (
(409,0,l),
(564,646,l),
(524,646,l),
(677,0,l),
(849,0,l),
(1052,720,l),
(903,720,l),
(734,61,l),
(782,61,l),
(634,720,l),
(459,720,l),
(309,61,l),
(358,61,l),
(190,720,l),
(34,720,l),
(237,0,l)
);
}
);
width = 1086;
}
);
unicode = 87;
userData = {
KernOnName = W;
};
},
{
glyphname = X;
kernLeft = KO_X;
kernRight = KO_X;
lastChange = "2023-02-07 19:14:48 +0000";
layers = (
{
guides = (
{
angle = 156.8177;
pos = (61,51);
showMeasurement = 1;
},
{
angle = -23.5425;
pos = (330,530);
showMeasurement = 1;
},
{
angle = 156.4768;
pos = (114,213);
showMeasurement = 1;
}
);
layerId = m01;
shapes = (
{
closed = 1;
nodes = (
(423,0,l),
(245,416,l),
(115,720,l),
(41,720,l),
(202,343,l),
(349,0,l)
);
},
{
closed = 1;
nodes = (
(247,339,l),
(413,720,l),
(345,720,l),
(216,425,l)
);
},
{
closed = 1;
nodes = (
(206,425,l),
(21,0,l),
(89,0,l),
(237,339,l)
);
}
);
width = 445;
},
{
guides = (
{
angle = 34.6796;
pos = (186,529);
showMeasurement = 1;
},
{
angle = -35.3974;
pos = (511,527);
showMeasurement = 1;
}
);
layerId = m002;
shapes = (
{
closed = 1;
nodes = (
(648,0,l),
(370,401,l),
(149,720,l),
(53,720,l),
(318,337,l),
(552,0,l)
);
},
{
closed = 1;
nodes = (
(373,333,l),
(648,720,l),
(559,720,l),
(329,398,l)
);
},
{
closed = 1;
nodes = (
(317,394,l),
(38,0,l),
(127,0,l),
(361,329,l)
);
}
);
width = 688;
},
{
background = {
shapes = (
{
closed = 1;
nodes = (
(463,0,l),
(171,720,l),
(21,720,l),
(313,0,l)
);
},
{
closed = 1;
nodes = (
(282,274,l),
(463,720,l),
(326,720,l),
(214,442,l)
);
},
{
closed = 1;
nodes = (
(189,443,l),
(6,0,l),
(143,0,l),
(257,275,l)
);
}
);
};
guides = (
{
angle = -22.9656;
pos = (369,497);
showMeasurement = 1;
}
);
layerId = m003;
shapes = (
{
closed = 1;
nodes = (
(463,0,l),
(282,427,l),
(171,720,l),
(21,720,l),
(191,320,l),
(313,0,l)
);
},
{
closed = 1;
nodes = (
(274,274,l),
(463,720,l),
(326,720,l),
(222,442,l)
);
},
{
closed = 1;
nodes = (
(197,443,l),
(6,0,l),
(143,0,l),
(249,275,l)
);
}
);
width = 469;
},
{
background = {
shapes = (
{
closed = 1;
nodes = (
(696,0,l),
(219,720,l),
(39,720,l),
(516,0,l)
);
},
{
closed = 1;
nodes = (
(400,295,l),
(696,720,l),
(533,720,l),
(329,424,l)
);
},
{
closed = 1;
nodes = (
(313,420,l),
(20,0,l),
(183,0,l),
(384,291,l)
);
}
);
};
guides = (
{
angle = -35.7539;
pos = (543,508);
showMeasurement = 1;
}
);
layerId = m004;
shapes = (
{
closed = 1;
nodes = (
(696,0,l),
(406,423,l),
(219,720,l),
(39,720,l),
(317,315,l),
(516,0,l)
);
},
{
closed = 1;
nodes = (
(390,295,l),
(696,720,l),
(533,720,l),
(339,424,l)
);
},
{
closed = 1;
nodes = (
(323,420,l),
(20,0,l),
(183,0,l),
(374,291,l)
);
}
);
width = 716;
}
);
unicode = 88;
userData = {
KernOnName = X;
};
},
{
glyphname = Y;
kernLeft = KO_Y;
kernRight = KO_Y;
lastChange = "2023-02-07 19:17:38 +0000";
layers = (
{
anchors = (
{
name = bottom;
pos = (226,0);
},
{
name = top;
pos = (226,720);
},
{
name = topleft;
pos = (20,720);
}
);
guides = (
{
angle = 24.9924;
pos = (102,528);
showMeasurement = 1;
},
{
angle = -24.9924;
pos = (351,528);
showMeasurement = 1;
}
);
layerId = m01;
shapes = (
{
closed = 1;
nodes = (
(261,0,l),
(261,336,l),
(440,720,l),
(369,720,l),
(216,384,l),
(244,384,l),
(90,720,l),
(12,720,l),
(191,336,l),
(191,0,l)
);
}
);
width = 452;
},
{
anchors = (
{
name = bottom;
pos = (338,0);
},
{
name = top;
pos = (338,720);
},
{
name = topleft;
pos = (20,720);
}
);
layerId = m002;
shapes = (
{
closed = 1;
nodes = (
(379,0,l),
(379,326,l),
(652,720,l),
(560,720,l),
(323,374,l),
(361,374,l),
(124,720,l),
(24,720,l),
(297,326,l),
(297,0,l)
);
}
);
width = 676;
},
{
anchors = (
{
name = bottom;
pos = (253,0);
},
{
name = top;
pos = (253,720);
},
{
name = topleft;
pos = (20,720);
}
);
background = {
shapes = (
{
closed = 1;
nodes = (
(324,0,l),
(324,316,l),
(498,720,l),
(362,720,l),
(217,364,l),
(310,364,l),
(164,720,l),
(8,720,l),
(182,316,l),
(182,0,l)
);
}
);
};
guides = (
{
angle = 22.7965;
pos = (95,513);
showMeasurement = 1;
},
{
angle = -22.7965;
pos = (411,513);
showMeasurement = 1;
}
);
layerId = m003;
shapes = (
{
closed = 1;
nodes = (
(324,0,l),
(324,306,l),
(498,720,l),
(362,720,l),
(229,344,l),
(298,344,l),
(164,720,l),
(8,720,l),
(182,306,l),
(182,0,l)
);
}
);
width = 506;
},
{
anchors = (
{
name = bottom;
pos = (356,0);
},
{
name = top;
pos = (356,720);
},
{
name = topleft;
pos = (20,720);
}
);
background = {
shapes = (
{
closed = 1;
nodes = (
(433,0,l),
(433,311,l),
(701,720,l),
(532,720,l),
(307,359,l),
(422,359,l),
(196,720,l),
(11,720,l),
(279,311,l),
(279,0,l)
);
}
);
};
guides = (
{
angle = 31.9934;
pos = (145,506);
showMeasurement = 1;
},
{
angle = -31.9934;
pos = (567,506);
showMeasurement = 1;
}
);
layerId = m004;
shapes = (
{
closed = 1;
nodes = (
(433,0,l),
(433,291,l),
(701,720,l),
(532,720,l),
(321,339,l),
(408,339,l),
(196,720,l),
(11,720,l),
(279,291,l),
(279,0,l)
);
}
);
width = 712;
}
);
unicode = 89;
userData = {
KernOnName = Y;
};
},
{
glyphname = Z;
kernLeft = KO_Z;
kernRight = KO_Z;
lastChange = "2023-02-07 19:19:02 +0000";
layers = (
{
anchors = (
{
name = bottom;
pos = (226,0);
},
{
name = center;
pos = (226,360);
},
{
name = top;
pos = (226,720);
}
);
background = {
shapes = (
{
pos = (-22,0);
ref = H;
}
);
};
guides = (
{
angle = -22.3575;
pos = (258,350);
showMeasurement = 1;
}
);
layerId = m01;
shapes = (
{
closed = 1;
nodes = (
(394,0,l),
(394,62,l),
(108,62,l),
(127,31,l),
(389,668,l),
(389,720,l),
(73,720,l),
(73,658,l),
(343,658,l),
(324,689,l),
(62,52,l),
(62,0,l)
);
}
);
width = 452;
},
{
anchors = (
{
name = bottom;
pos = (312,0);
},
{
name = center;
pos = (312,360);
},
{
name = top;
pos = (312,720);
}
);
background = {
shapes = (
{
pos = (-54,0);
ref = H;
}
);
};
guides = (
{
angle = -34.0052;
pos = (348,345);
showMeasurement = 1;
}
);
layerId = m002;
shapes = (
{
closed = 1;
nodes = (
(569,0,l),
(569,72,l),
(106,72,l),
(136,31,l),
(559,658,l),
(559,720,l),
(70,720,l),
(70,648,l),
(513,648,l),
(483,689,l),
(60,62,l),
(60,0,l)
);
}
);
width = 623;
},
{
anchors = (
{
name = bottom;
pos = (227,0);
},
{
name = center;
pos = (227,360);
},
{
name = top;
pos = (227,720);
}
);
background = {
shapes = (
{
closed = 1;
nodes = (
(415,0,l),
(415,120,l),
(170,120,l),
(188,92,l),
(411,640,l),
(411,720,l),
(50,720,l),
(50,600,l),
(271,600,l),
(253,628,l),
(42,100,l),
(42,0,l)
);
}
);
};
guides = (
{
angle = -22.1431;
pos = (300,366);
showMeasurement = 1;
}
);
layerId = m003;
shapes = (
{
closed = 1;
nodes = (
(415,0,l),
(415,110,l),
(170,110,l),
(188,92,l),
(411,640,l),
(411,720,l),
(50,720,l),
(50,610,l),
(271,610,l),
(253,628,l),
(42,100,l),
(42,0,l)
);
}
);
width = 453;
},
{
anchors = (
{
name = bottom;
pos = (318,0);
},
{
name = center;
pos = (318,360);
},
{
name = top;
pos = (318,720);
}
);
background = {
shapes = (
{
closed = 1;
nodes = (
(599,0,l),
(599,128,l),
(168,128,l),
(203,68,l),
(595,616,l),
(595,720,l),
(54,720,l),
(54,592,l),
(475,592,l),
(438,659,l),
(40,104,l),
(40,0,l)
);
}
);
};
guides = (
{
angle = -35.5772;
pos = (399,342);
showMeasurement = 1;
}
);
layerId = m004;
shapes = (
{
closed = 1;
nodes = (
(599,0,l),
(599,118,l),
(168,118,l),
(203,68,l),
(595,616,l),
(595,720,l),
(54,720,l),
(54,602,l),
(475,602,l),
(438,659,l),
(40,104,l),
(40,0,l)
);
}
);
width = 635;
}
);
unicode = 90;
userData = {
KernOnName = Z;
};
},
{
color = 7;
glyphname = K.ss04;
kernLeft = KO_B;
kernRight = KO_K.ss08;
lastChange = "2023-02-07 19:19:59 +0000";
layers = (
{
anchors = (
{
name = bottom;
pos = (253,0);
},
{
name = top;
pos = (233,720);
}
);
background = {
shapes = (
{
closed = 1;
nodes = (
(140,0,l),
(140,720,l),
(70,720,l),
(70,0,l)
);
},
{
closed = 1;
nodes = (
(207,374,l),
(430,720,l),
(353,720,l),
(131,374,l)
);
},
{
closed = 1;
nodes = (
(450,0,l),
(207,374,l),
(129,374,l),
(367,0,l)
);
}
);
};
guides = (
{
angle = -30.8624;
pos = (331,554);
showMeasurement = 1;
}
);
layerId = m01;
shapes = (
{
closed = 1;
nodes = (
(140,0,l),
(140,720,l),
(70,720,l),
(70,0,l)
);
},
{
closed = 1;
nodes = (
(105,184,l),
(221,378,l),
(231,387,l),
(430,720,l),
(353,720,l),
(91,267,l)
);
},
{
closed = 1;
nodes = (
(450,0,l),
(243,423,l),
(178,404,l),
(367,0,l)
);
}
);
width = 466;
},
{
anchors = (
{
name = bottom;
pos = (356,0);
},
{
name = top;
pos = (346,720);
}
);
background = {
shapes = (
{
closed = 1;
nodes = (
(168,0,l),
(168,720,l),
(86,720,l),
(86,0,l)
);
},
{
closed = 1;
nodes = (
(266,374,l),
(648,720,l),
(533,720,l),
(159,374,l)
);
},
{
closed = 1;
nodes = (
(668,0,l),
(266,374,l),
(157,374,l),
(549,0,l)
);
}
);
};
guides = (
{
angle = -43.6382;
pos = (494,559);
showMeasurement = 1;
},
{
angle = 37.1787;
pos = (511,207);
showMeasurement = 1;
}
);
layerId = m002;
shapes = (
{
closed = 1;
nodes = (
(168,0,l),
(168,720,l),
(86,720,l),
(86,0,l)
);
},
{
closed = 1;
nodes = (
(136,194,l),
(321,388,l),
(340,397,l),
(648,720,l),
(539,720,l),
(105,254,l)
);
},
{
closed = 1;
nodes = (
(668,0,l),
(354,414,l),
(259,414,l),
(564,0,l)
);
}
);
width = 692;
},
{
anchors = (
{
name = bottom;
pos = (262,0);
},
{
name = top;
pos = (252,720);
}
);
background = {
shapes = (
{
closed = 1;
nodes = (
(192,0,l),
(192,720,l),
(50,720,l),
(50,0,l)
);
},
{
closed = 1;
nodes = (
(313,374,l),
(472,720,l),
(325,720,l),
(176,374,l)
);
},
{
closed = 1;
nodes = (
(492,0,l),
(313,374,l),
(171,374,l),
(338,0,l)
);
}
);
};
guides = (
{
angle = 21.347;
pos = (403,229);
showMeasurement = 1;
}
);
layerId = m003;
shapes = (
{
closed = 1;
nodes = (
(192,0,l),
(192,720,l),
(50,720,l),
(50,0,l)
);
},
{
closed = 1;
nodes = (
(157,184,l),
(263,378,l),
(289,387,l),
(482,720,l),
(335,720,l),
(93,267,l)
);
},
{
closed = 1;
nodes = (
(492,0,l),
(313,458,l),
(189,439,l),
(340,0,l)
);
}
);
width = 504;
},
{
anchors = (
{
name = bottom;
pos = (363,0);
},
{
name = top;
pos = (363,720);
}
);
guides = (
{
angle = -40.7842;
pos = (518,527);
showMeasurement = 1;
},
{
angle = 34.8907;
pos = (545,228);
showMeasurement = 1;
}
);
layerId = m004;
shapes = (
{
closed = 1;
nodes = (
(204,0,l),
(204,720,l),
(50,720,l),
(50,0,l)
);
},
{
closed = 1;
nodes = (
(158,132,l),
(327,327,l),
(351,334,l),
(684,720,l),
(490,720,l),
(155,324,l)
);
},
{
closed = 1;
nodes = (
(704,0,l),
(386,456,l),
(251,396,l),
(515,0,l)
);
}
);
width = 722;
}
);
},
{
color = 4;
glyphname = R.ss05;
kernRight = KO_R;
lastChange = "2023-02-07 19:21:46 +0000";
layers = (
{
anchors = (
{
name = bottom;
pos = (220,0);
},
{
name = top;
pos = (220,720);
}
);
background = {
shapes = (
{
closed = 1;
nodes = (
(140,0,l),
(140,658,l),
(204,658,ls),
(288,658,o),
(336,600,o),
(336,510,cs),
(336,418,o),
(288,359,o),
(204,359,cs),
(118,359,l),
(118,297,l),
(206,297,ls),
(333,297,o),
(406,384,o),
(406,510,cs),
(406,635,o),
(334,720,o),
(206,720,cs),
(70,720,l),
(70,0,l)
);
}
);
};
layerId = m01;
shapes = (
{
closed = 1;
nodes = (
(140,0,l),
(140,658,l),
(204,658,ls),
(282,658,o),
(326,605,o),
(326,525,cs),
(326,443,o),
(278,379,o),
(204,379,cs),
(118,379,l),
(118,321,l),
(211,321,ls),
(275,321,o),
(314,282,o),
(314,201,cs),
(314,0,l),
(384,0,l),
(384,214,ls),
(384,295,o),
(353,349,o),
(254,365,c),
(264,344,l),
(344,372,o),
(396,436,o),
(396,529,cs),
(396,639,o),
(328,720,o),
(206,720,cs),
(70,720,l),
(70,0,l)
);
}
);
width = 430;
},
{
anchors = (
{
name = bottom;
pos = (336,0);
},
{
name = top;
pos = (326,720);
}
);
background = {
shapes = (
{
closed = 1;
nodes = (
(168,0,l),
(168,648,l),
(349,648,ls),
(457,648,o),
(512,600,o),
(512,520,cs),
(512,439,o),
(455,389,o),
(349,389,cs),
(146,389,l),
(146,317,l),
(352,317,ls),
(505,317,o),
(594,398,o),
(594,520,cs),
(594,641,o),
(506,720,o),
(352,720,cs),
(86,720,l),
(86,0,l)
);
},
{
closed = 1;
nodes = (
(632,0,l),
(237,357,l),
(125,357,l),
(508,0,l)
);
}
);
};
layerId = m002;
shapes = (
{
closed = 1;
nodes = (
(168,0,l),
(168,648,l),
(349,648,ls),
(454,648,o),
(512,602,o),
(512,520,cs),
(512,437,o),
(452,389,o),
(349,389,cs),
(146,389,l),
(146,321,l),
(357,321,ls),
(448,321,o),
(500,274,o),
(500,188,cs),
(500,0,l),
(582,0,l),
(582,204,ls),
(582,305,o),
(518,365,o),
(412,362,c),
(402,335,l),
(531,363,o),
(594,425,o),
(594,524,cs),
(594,644,o),
(501,720,o),
(352,720,cs),
(86,720,l),
(86,0,l)
);
}
);
width = 648;
},
{
anchors = (
{
name = bottom;
pos = (234,0);
},
{
name = top;
pos = (234,720);
}
);
background = {
shapes = (
{
closed = 1;
nodes = (
(192,0,l),
(192,606,l),
(228,606,ls),
(270,606,o),
(296,571,o),
(296,509,cs),
(296,446,o),
(270,411,o),
(228,411,cs),
(160,411,l),
(160,299,l),
(223,299,ls),
(261,299,o),
(284,276,o),
(284,229,cs),
(284,0,l),
(426,0,l),
(426,234,ls),
(426,315,o),
(395,369,o),
(296,385,c),
(286,334,l),
(386,362,o),
(438,426,o),
(438,524,cs),
(438,629,o),
(376,720,o),
(248,720,cs),
(50,720,l),
(50,0,l)
);
}
);
};
layerId = m003;
shapes = (
{
closed = 1;
nodes = (
(192,0,l),
(192,616,l),
(228,616,ls),
(270,616,o),
(296,581,o),
(296,514,cs),
(296,446,o),
(270,411,o),
(228,411,cs),
(160,411,l),
(160,299,l),
(223,299,ls),
(261,299,o),
(284,276,o),
(284,229,cs),
(284,0,l),
(426,0,l),
(426,234,ls),
(426,315,o),
(395,369,o),
(296,385,c),
(286,334,l),
(386,362,o),
(438,426,o),
(438,524,cs),
(438,629,o),
(376,720,o),
(248,720,cs),
(50,720,l),
(50,0,l)
);
}
);
width = 466;
},
{
anchors = (
{
name = bottom;
pos = (336,0);
},
{
name = top;
pos = (331,720);
}
);
background = {
shapes = (
{
closed = 1;
nodes = (
(204,0,l),
(204,592,l),
(374,592,ls),
(440,592,o),
(476,562,o),
(476,506,cs),
(476,450,o),
(439,419,o),
(374,419,cs),
(110,419,l),
(110,296,l),
(341,296,ls),
(425,296,o),
(464,254,o),
(464,163,cs),
(464,0,l),
(618,0,l),
(618,204,ls),
(618,307,o),
(552,365,o),
(438,362,c),
(438,335,l),
(568,361,o),
(630,420,o),
(630,520,cs),
(630,645,o),
(537,720,o),
(382,720,cs),
(50,720,l),
(50,0,l)
);
}
);
};
layerId = m004;
shapes = (
{
closed = 1;
nodes = (
(204,0,l),
(204,602,l),
(362,602,ls),
(436,602,o),
(476,569,o),
(476,506,cs),
(476,444,o),
(435,409,o),
(362,409,cs),
(110,409,l),
(110,296,l),
(341,296,ls),
(425,296,o),
(464,254,o),
(464,163,cs),
(464,0,l),
(618,0,l),
(618,204,ls),
(618,307,o),
(552,365,o),
(438,362,c),
(438,335,l),
(568,361,o),
(630,420,o),
(630,520,cs),
(630,645,o),
(537,720,o),
(382,720,cs),
(50,720,l),
(50,0,l)
);
}
);
width = 662;
}
);
userData = {
KernOnName = R;
KernOnSpecialSpacing = {
L = NoKerning;
};
};
},
{
color = 5;
glyphname = M.ss06;
kernLeft = KO_M.ss06;
kernRight = KO_M.ss06;
lastChange = "2023-02-07 19:22:19 +0000";
layers = (
{
background = {
shapes = (
{
closed = 1;
nodes = (
(310,10,o),
(317,13,o),
(320,26,cs),
(472,640,ls),
(474,648,o),
(483,647,o),
(483,638,cs),
(500,66,ls),
(501,38,o),
(494,32,o),
(466,27,cs),
(443,23,ls),
(434,21,o),
(430,17,o),
(430,11,cs),
(430,4,o),
(435,0,o),
(445,0,cs),
(626,0,ls),
(636,0,o),
(641,4,o),
(641,11,cs),
(641,17,o),
(637,21,o),
(628,23,cs),
(605,27,ls),
(577,32,o),
(572,38,o),
(571,66,cs),
(551,654,ls),
(550,682,o),
(557,688,o),
(585,693,cs),
(608,697,ls),
(617,699,o),
(621,703,o),
(621,709,cs),
(621,716,o),
(616,720,o),
(606,720,cs),
(488,720,ls),
(469,720,o),
(460,712,o),
(456,695,cs),
(330,191,ls),
(328,182,o),
(320,182,o),
(318,191,cs),
(197,690,ls),
(192,711,o),
(180,720,o),
(159,720,cs),
(39,720,ls),
(29,720,o),
(24,716,o),
(24,709,cs),
(24,703,o),
(28,699,o),
(37,697,cs),
(60,693,ls),
(90,688,o),
(97,682,o),
(96,654,cs),
(76,86,ls),
(75,48,o),
(65,30,o),
(30,25,cs),
(17,23,ls),
(8,22,o),
(4,17,o),
(4,11,cs),
(4,4,o),
(9,0,o),
(19,0,cs),
(162,0,ls),
(172,0,o),
(177,4,o),
(177,11,cs),
(177,17,o),
(173,22,o),
(164,23,cs),
(151,25,ls),
(118,30,o),
(106,48,o),
(107,86,cs),
(127,638,ls),
(127,647,o),
(136,648,o),
(138,639,cs),
(289,26,ls),
(292,13,o),
(299,10,o),
(305,10,cs)
);
}
);
};
guides = (
{
angle = 167.1664;
pos = (393,382);
showMeasurement = 1;
},
{
angle = 2.3859;
pos = (580,360);
showMeasurement = 1;
}
);
layerId = m01;
shapes = (
{
closed = 1;
nodes = (
(113,0,l),
(138,622,l),
(130,621,l),
(272,0,l),
(366,0,l),
(508,621,l),
(500,622,l),
(525,0,l),
(595,0,l),
(565,720,l),
(470,720,l),
(316,44,l),
(330,44,l),
(175,720,l),
(80,720,l),
(50,0,l)
);
}
);
width = 645;
},
{
background = {
shapes = (
{
closed = 1;
nodes = (
(141,0,l),
(211,671,l),
(187,671,l),
(381,0,l),
(499,0,l),
(694,677,l),
(668,677,l),
(739,0,l),
(820,0,l),
(748,720,l),
(632,720,l),
(430,26,l),
(455,26,l),
(252,720,l),
(137,720,l),
(66,0,l)
);
}
);
};
guides = (
{
angle = 163.7715;
pos = (531,373);
showMeasurement = 1;
},
{
angle = 5.7106;
pos = (784,360);
showMeasurement = 1;
}
);
layerId = m002;
shapes = (
{
closed = 1;
nodes = (
(141,0,l),
(211,671,l),
(187,671,l),
(381,0,l),
(499,0,l),
(694,677,l),
(668,677,l),
(739,0,l),
(820,0,l),
(748,720,l),
(632,720,l),
(430,26,l),
(455,26,l),
(252,720,l),
(137,720,l),
(66,0,l)
);
}
);
width = 886;
},
{
background = {
shapes = (
{
closed = 1;
nodes = (
(162,0,l),
(206,622,l),
(141,621,l),
(278,0,l),
(382,0,l),
(519,621,l),
(453,622,l),
(498,0,l),
(636,0,l),
(582,720,l),
(436,720,l),
(286,44,l),
(383,44,l),
(231,720,l),
(85,720,l),
(32,0,l)
);
}
);
};
guides = (
{
angle = 169.1145;
pos = (371,382);
showMeasurement = 1;
},
{
angle = 4.2892;
pos = (609,360);
showMeasurement = 1;
}
);
layerId = m003;
shapes = (
{
closed = 1;
nodes = (
(162,0,l),
(196,642,l),
(151,641,l),
(278,0,l),
(382,0,l),
(509,641,l),
(463,642,l),
(498,0,l),
(636,0,l),
(582,720,l),
(436,720,l),
(306,44,l),
(363,44,l),
(231,720,l),
(85,720,l),
(32,0,l)
);
}
);
width = 668;
},
{
background = {
shapes = (
{
closed = 1;
nodes = (
(176,0,l),
(252,671,l),
(161,671,l),
(354,0,l),
(513,0,l),
(708,677,l),
(615,677,l),
(692,0,l),
(844,0,l),
(766,720,l),
(601,720,l),
(393,26,l),
(480,26,l),
(271,720,l),
(107,720,l),
(30,0,l)
);
}
);
};
guides = (
{
angle = 166.1527;
pos = (483,363);
showMeasurement = 1;
},
{
angle = 6.1829;
pos = (805,360);
showMeasurement = 1;
}
);
layerId = m004;
shapes = (
{
closed = 1;
nodes = (
(176,0,l),
(247,691,l),
(193,691,l),
(354,0,l),
(513,0,l),
(676,697,l),
(620,697,l),
(692,0,l),
(844,0,l),
(766,720,l),
(571,720,l),
(395,6,l),
(478,6,l),
(301,720,l),
(107,720,l),
(30,0,l)
);
}
);
width = 874;
}
);
},
{
color = 6;
glyphname = G.ss07;
kernLeft = KO_O;
kernRight = KO_G.ss07;
lastChange = "2023-03-04 15:39:05 +0000";
layers = (
{
anchors = (
{
name = bottom;
pos = (251,0);
},
{
name = top;
pos = (251,720);
}
);
background = {
shapes = (
{
closed = 1;
nodes = (
(330,-10,o),
(385,12,o),
(426,55,c),
(356,83,l),
(336,64,o),
(307,54,o),
(271,54,cs),
(161,54,o),
(112,146,o),
(112,355,cs),
(112,560,o),
(159,666,o),
(251,666,cs),
(321,666,o),
(357,603,o),
(357,481,c),
(427,481,l),
(427,635,o),
(359,730,o),
(249,730,cs),
(116,730,o),
(40,593,o),
(40,352,cs),
(40,112,o),
(116,-10,o),
(266,-10,cs)
);
},
{
closed = 1;
nodes = (
(426,55,l),
(426,375,l),
(246,375,l),
(246,313,l),
(387,313,l),
(356,344,l),
(356,69,l)
);
}
);
};
guides = (
{
pos = (361,730);
},
{
angle = 90;
pos = (452,530);
}
);
layerId = m01;
shapes = (
{
closed = 1;
nodes = (
(370,-10,o),
(433,86,o),
(433,355,c),
(365,355,l),
(365,120,o),
(329,54,o),
(243,54,cs),
(158,54,o),
(112,161,o),
(112,355,cs),
(112,560,o),
(159,666,o),
(251,666,cs),
(321,666,o),
(357,603,o),
(357,481,c),
(427,481,l),
(427,635,o),
(359,730,o),
(249,730,cs),
(116,730,o),
(40,593,o),
(40,352,cs),
(40,127,o),
(115,-10,o),
(242,-10,cs)
);
},
{
closed = 1;
nodes = (
(433,355,l),
(433,375,l),
(258,375,l),
(258,313,l),
(394,313,l)
);
}
);
width = 473;
},
{
anchors = (
{
name = bottom;
pos = (393,0);
},
{
name = top;
pos = (393,720);
}
);
background = {
shapes = (
{
closed = 1;
nodes = (
(526,-10,o),
(622,29,o),
(695,106,c),
(613,136,l),
(561,87,o),
(498,64,o),
(417,64,cs),
(239,64,o),
(134,173,o),
(134,356,cs),
(134,537,o),
(238,656,o),
(396,656,cs),
(513,656,o),
(598,592,o),
(611,494,c),
(693,494,l),
(674,634,o),
(551,730,o),
(393,730,cs),
(191,730,o),
(50,575,o),
(50,354,cs),
(50,132,o),
(190,-10,o),
(410,-10,cs)
);
},
{
closed = 1;
nodes = (
(695,106,l),
(695,380,l),
(416,380,l),
(416,308,l),
(644,308,l),
(613,339,l),
(613,106,l)
);
}
);
};
guides = (
{
pos = (361,730);
},
{
angle = 90;
pos = (452,530);
}
);
layerId = m002;
shapes = (
{
closed = 1;
nodes = (
(574,-10,o),
(715,99,o),
(715,326,c),
(637,326,l),
(637,136,o),
(532,64,o),
(403,64,cs),
(232,64,o),
(134,184,o),
(134,357,cs),
(134,535,o),
(237,656,o),
(401,656,cs),
(533,656,o),
(607,578,o),
(621,494,c),
(703,494,l),
(683,622,o),
(570,730,o),
(399,730,cs),
(194,730,o),
(50,575,o),
(50,358,cs),
(50,145,o),
(189,-10,o),
(400,-10,cs)
);
},
{
closed = 1;
nodes = (
(715,326,l),
(715,370,l),
(421,370,l),
(421,298,l),
(654,298,l)
);
}
);
width = 765;
},
{
anchors = (
{
name = bottom;
pos = (267,0);
},
{
name = top;
pos = (267,720);
}
);
background = {
shapes = (
{
closed = 1;
nodes = (
(360,-10,o),
(440,28,o),
(475,88,c),
(334,121,l),
(321,108,o),
(305,102,o),
(282,102,cs),
(203,102,o),
(174,166,o),
(174,357,cs),
(174,540,o),
(201,618,o),
(263,618,cs),
(312,618,o),
(335,573,o),
(335,467,c),
(475,467,l),
(475,636,o),
(402,730,o),
(269,730,cs),
(113,730,o),
(30,597,o),
(30,350,cs),
(30,107,o),
(110,-10,o),
(271,-10,cs)
);
},
{
closed = 1;
nodes = (
(475,88,l),
(475,395,l),
(259,395,l),
(259,285,l),
(364,285,l),
(333,316,l),
(333,78,l)
);
}
);
};
guides = (
{
pos = (361,730);
},
{
angle = 90;
pos = (452,530);
}
);
layerId = m003;
shapes = (
{
closed = 1;
nodes = (
(415,-10,o),
(485,99,o),
(485,343,c),
(344,343,l),
(344,161,o),
(328,102,o),
(269,102,cs),
(202,102,o),
(174,175,o),
(174,364,cs),
(174,551,o),
(207,618,o),
(265,618,cs),
(316,618,o),
(335,562,o),
(335,467,c),
(475,467,l),
(475,624,o),
(404,730,o),
(268,730,cs),
(118,730,o),
(30,600,o),
(30,360,cs),
(30,121,o),
(111,-10,o),
(269,-10,cs)
);
},
{
closed = 1;
nodes = (
(485,343,l),
(485,385,l),
(259,385,l),
(259,275,l),
(445,275,l)
);
}
);
width = 515;
},
{
anchors = (
{
name = bottom;
pos = (392,0);
},
{
name = top;
pos = (392,720);
}
);
background = {
shapes = (
{
closed = 1;
nodes = (
(550,-10,o),
(648,31,o),
(725,109,c),
(579,167,l),
(550,131,o),
(493,110,o),
(413,110,cs),
(265,110,o),
(186,201,o),
(186,362,cs),
(186,516,o),
(268,608,o),
(395,608,cs),
(485,608,o),
(551,560,o),
(564,482,c),
(718,482,l),
(701,627,o),
(571,730,o),
(393,730,cs),
(177,730,o),
(30,579,o),
(30,359,cs),
(30,136,o),
(172,-10,o),
(406,-10,cs)
);
},
{
closed = 1;
nodes = (
(725,109,l),
(725,394,l),
(412,394,l),
(412,276,l),
(602,276,l),
(571,307,l),
(571,109,l)
);
}
);
};
guides = (
{
pos = (361,730);
}
);
layerId = m004;
shapes = (
{
closed = 1;
nodes = (
(609,-10,o),
(746,126,o),
(746,335,c),
(604,335,l),
(604,196,o),
(529,112,o),
(403,112,cs),
(270,112,o),
(186,209,o),
(186,362,cs),
(186,513,o),
(270,608,o),
(402,608,cs),
(495,608,o),
(566,559,o),
(584,482,c),
(734,482,l),
(712,627,o),
(574,730,o),
(401,730,cs),
(183,730,o),
(30,577,o),
(30,361,cs),
(30,144,o),
(183,-10,o),
(400,-10,cs)
);
},
{
closed = 1;
nodes = (
(746,335,l),
(746,392,l),
(412,392,l),
(412,274,l),
(632,274,l)
);
}
);
width = 776;
}
);
metricLeft = O;
metricRight = O;
},
{
color = 8;
glyphname = J.ss08;
kernLeft = KO_J.ss09;
kernRight = KO_U;
lastChange = "2023-02-07 19:24:39 +0000";
layers = (
{
background = {
shapes = (
{
closed = 1;
nodes = (
(139,-10,o),
(205,28,o),
(205,123,cs),
(205,720,l),
(135,720,l),
(135,128,ls),
(135,75,o),
(99,54,o),
(41,54,cs),
(17,54,o),
(-12,59,o),
(-28,66,c),
(-28,2,l),
(-13,-5,o),
(11,-10,o),
(45,-10,cs)
);
}
);
};
layerId = m01;
shapes = (
{
closed = 1;
nodes = (
(312,-10,o),
(374,59,o),
(374,181,cs),
(374,720,l),
(304,720,l),
(304,175,ls),
(304,86,o),
(265,54,o),
(210,54,cs),
(153,54,o),
(114,88,o),
(114,186,c),
(46,186,l),
(46,56,o),
(108,-10,o),
(210,-10,cs)
);
}
);
width = 438;
},
{
layerId = m002;
shapes = (
{
closed = 1;
nodes = (
(438,-10,o),
(540,81,o),
(540,251,cs),
(540,720,l),
(458,720,l),
(458,248,ls),
(458,123,o),
(389,64,o),
(298,64,cs),
(209,64,o),
(140,124,o),
(140,230,c),
(60,230,l),
(60,81,o),
(161,-10,o),
(299,-10,cs)
);
}
);
width = 620;
},
{
background = {
shapes = (
{
closed = 1;
nodes = (
(352,-10,o),
(422,73,o),
(422,207,cs),
(422,720,l),
(280,720,l),
(280,174,ls),
(280,126,o),
(257,102,o),
(219,102,cs),
(181,102,o),
(158,126,o),
(158,174,cs),
(158,720,l),
(16,720,l),
(16,207,ls),
(16,73,o),
(86,-10,o),
(219,-10,cs)
);
}
);
};
layerId = m003;
shapes = (
{
closed = 1;
nodes = (
(354,-10,o),
(422,73,o),
(422,177,cs),
(422,720,l),
(280,720,l),
(280,174,ls),
(280,129,o),
(264,102,o),
(229,102,cs),
(194,102,o),
(170,126,o),
(170,201,c),
(32,201,l),
(32,67,o),
(104,-10,o),
(229,-10,cs)
);
}
);
width = 468;
},
{
background = {
shapes = (
{
closed = 1;
nodes = (
(225,-10,o),
(305,56,o),
(305,189,cs),
(305,720,l),
(151,720,l),
(151,206,ls),
(151,141,o),
(119,120,o),
(44,120,cs),
(9,120,o),
(-26,127,o),
(-50,137,c),
(-50,9,l),
(-29,-2,o),
(23,-10,o),
(74,-10,cs)
);
}
);
};
layerId = m004;
shapes = (
{
closed = 1;
nodes = (
(503,-10,o),
(598,95,o),
(598,299,cs),
(598,720,l),
(444,720,l),
(444,273,ls),
(444,150,o),
(387,112,o),
(313,112,cs),
(238,112,o),
(182,170,o),
(182,263,c),
(32,263,l),
(32,115,o),
(128,-10,o),
(312,-10,cs)
);
}
);
width = 640;
}
);
},
{
color = 9;
glyphname = Q.ss09;
kernLeft = KO_O;
kernRight = KO_O;
lastChange = "2023-02-07 19:26:22 +0000";
layers = (
{
background = {
shapes = (
{
closed = 1;
nodes = (
(381,-10,o),
(460,130,o),
(460,362,cs),
(460,593,o),
(382,730,o),
(249,730,cs),
(118,730,o),
(40,593,o),
(40,363,cs),
(40,130,o),
(119,-10,o),
(250,-10,cs)
);
},
{
closed = 1;
nodes = (
(161,54,o),
(112,165,o),
(112,364,cs),
(112,560,o),
(160,666,o),
(249,666,cs),
(339,666,o),
(388,559,o),
(388,364,cs),
(388,166,o),
(338,54,o),
(249,54,cs)
);
},
{
closed = 1;
nodes = (
(386,-83,l),
(440,-52,l),
(295,200,l),
(241,169,l)
);
}
);
};
guides = (
{
angle = 90;
pos = (460,56);
}
);
layerId = m01;
shapes = (
{
closed = 1;
nodes = (
(381,-10,o),
(460,130,o),
(460,362,cs),
(460,593,o),
(382,730,o),
(249,730,cs),
(118,730,o),
(40,593,o),
(40,363,cs),
(40,130,o),
(119,-10,o),
(250,-10,cs)
);
},
{
closed = 1;
nodes = (
(161,54,o),
(112,165,o),
(112,364,cs),
(112,560,o),
(160,666,o),
(249,666,cs),
(339,666,o),
(388,559,o),
(388,364,cs),
(388,166,o),
(338,54,o),
(249,54,cs)
);
},
{
closed = 1;
nodes = (
(386,-83,l),
(440,-52,l),
(295,200,l),
(241,169,l)
);
}
);
width = 500;
},
{
background = {
shapes = (
{
closed = 1;
nodes = (
(501,37,l),
(654,68,o),
(736,201,o),
(736,362,cs),
(736,577,o),
(593,730,o),
(392,730,cs),
(193,730,o),
(50,577,o),
(50,363,cs),
(50,147,o),
(184,-10,o),
(411,-10,c)
);
},
{
closed = 1;
nodes = (
(238,60,o),
(134,188,o),
(134,364,cs),
(134,537,o),
(236,656,o),
(392,656,cs),
(548,656,o),
(652,536,o),
(652,364,cs),
(652,189,o),
(549,60,o),
(392,60,cs)
);
},
{
closed = 1;
nodes = (
(565,-10,o),
(601,0,o),
(763,0,c),
(763,72,l),
(393,44,l),
(411,-10,l)
);
}
);
};
guides = (
{
angle = 29.9352;
pos = (564,87);
showMeasurement = 1;
}
);
layerId = m002;
shapes = (
{
closed = 1;
nodes = (
(591,-10,o),
(736,147,o),
(736,362,cs),
(736,577,o),
(593,730,o),
(392,730,cs),
(193,730,o),
(50,577,o),
(50,363,cs),
(50,147,o),
(194,-10,o),
(393,-10,cs)
);
},
{
closed = 1;
nodes = (
(238,64,o),
(134,188,o),
(134,364,cs),
(134,537,o),
(236,656,o),
(392,656,cs),
(548,656,o),
(652,536,o),
(652,364,cs),
(652,189,o),
(546,64,o),
(392,64,cs)
);
},
{
closed = 1;
nodes = (
(603,-127,l),
(666,-91,l),
(461,265,l),
(398,229,l)
);
}
);
width = 786;
},
{
background = {
shapes = (
{
closed = 1;
nodes = (
(357,50,l),
(472,98,o),
(506,207,o),
(506,362,cs),
(506,604,o),
(424,730,o),
(267,730,cs),
(112,730,o),
(30,603,o),
(30,363,cs),
(30,120,o),
(106,-10,o),
(288,-10,c)
);
},
{
closed = 1;
nodes = (
(203,102,o),
(174,181,o),
(174,364,cs),
(174,545,o),
(202,618,o),
(267,618,cs),
(333,618,o),
(362,543,o),
(362,364,cs),
(362,182,o),
(332,102,o),
(267,102,cs)
);
},
{
closed = 1;
nodes = (
(366,-10,o),
(434,0,o),
(528,0,c),
(528,110,l),
(268,80,l),
(288,-10,l)
);
}
);
};
guides = (
{
angle = 29.9272;
pos = (404,91);
showMeasurement = 1;
}
);
layerId = m003;
shapes = (
{
closed = 1;
nodes = (
(423,-10,o),
(506,119,o),
(506,362,cs),
(506,604,o),
(424,730,o),
(267,730,cs),
(112,730,o),
(30,603,o),
(30,363,cs),
(30,120,o),
(113,-10,o),
(268,-10,cs)
);
},
{
closed = 1;
nodes = (
(203,92,o),
(169,171,o),
(169,364,cs),
(169,545,o),
(202,618,o),
(267,618,cs),
(333,618,o),
(367,543,o),
(367,364,cs),
(367,101,o),
(332,92,o),
(267,92,cs)
);
},
{
closed = 1;
nodes = (
(395,-116,l),
(491,-61,l),
(316,243,l),
(220,188,l)
);
}
);
width = 536;
},
{
background = {
shapes = (
{
closed = 1;
nodes = (
(543,56,l),
(705,99,o),
(768,221,o),
(768,362,cs),
(768,582,o),
(615,730,o),
(398,730,cs),
(183,730,o),
(30,582,o),
(30,363,cs),
(30,141,o),
(185,-10,o),
(399,-10,c)
);
},
{
closed = 1;
nodes = (
(273,106,o),
(186,202,o),
(186,364,cs),
(186,513,o),
(271,608,o),
(398,608,cs),
(525,608,o),
(612,512,o),
(612,364,cs),
(612,204,o),
(523,106,o),
(398,106,cs)
);
},
{
closed = 1;
nodes = (
(552,-10,o),
(634,0,o),
(805,0,c),
(805,118,l),
(399,98,l),
(399,-10,l)
);
}
);
};
guides = (
{
angle = 29.9696;
pos = (582,109);
showMeasurement = 1;
}
);
layerId = m004;
shapes = (
{
closed = 1;
nodes = (
(613,-10,o),
(768,142,o),
(768,362,cs),
(768,582,o),
(615,730,o),
(398,730,cs),
(183,730,o),
(30,582,o),
(30,363,cs),
(30,141,o),
(185,-10,o),
(399,-10,cs)
);
},
{
closed = 1;
nodes = (
(273,112,o),
(186,212,o),
(186,364,cs),
(186,513,o),
(271,608,o),
(398,608,cs),
(525,608,o),
(612,512,o),
(612,364,cs),
(612,214,o),
(523,112,o),
(398,112,cs)
);
},
{
closed = 1;
nodes = (
(598,-156,l),
(700,-97,l),
(463,314,l),
(361,255,l)
);
}
);
width = 798;
}
);
},
{
glyphname = a;
kernLeft = KO_a;
kernRight = KO_a;
lastChange = "2023-03-04 15:41:52 +0000";
layers = (
{
anchors = (
{
name = bottom;
pos = (195,0);
},
{
name = ogonek;
pos = (337,0);
},
{
name = top;
pos = (195,510);
}
);
background = {
shapes = (
{
closed = 1;
nodes = (
(337,0,l),
(332,28,o),
(329,57,o),
(329,85,cs),
(329,380,ls),
(329,469,o),
(282,520,o),
(200,520,cs),
(105,520,o),
(53,456,o),
(53,352,c),
(115,352,l),
(115,418,o),
(141,460,o),
(194,460,cs),
(234,460,o),
(261,433,o),
(261,387,cs),
(261,85,l),
(269,85,l),
(269,53,o),
(272,24,o),
(277,0,c)
);
},
{
closed = 1;
nodes = (
(208,-10,o),
(255,22,o),
(273,85,c),
(261,164,l),
(261,97,o),
(225,50,o),
(174,50,cs),
(133,50,o),
(108,76,o),
(108,122,cs),
(108,168,o),
(132,202,o),
(179,226,c),
(274,274,l),
(274,333,l),
(160,278,ls),
(78,238,o),
(40,188,o),
(40,117,cs),
(40,40,o),
(85,-10,o),
(154,-10,cs)
);
}
);
};
layerId = m01;
shapes = (
{
closed = 1;
nodes = (
(337,0,l),
(332,28,o),
(329,57,o),
(329,85,cs),
(329,380,ls),
(329,469,o),
(282,520,o),
(200,520,cs),
(105,520,o),
(53,456,o),
(53,362,c),
(115,362,l),
(115,418,o),
(141,460,o),
(194,460,cs),
(234,460,o),
(261,433,o),
(261,387,cs),
(261,85,l),
(269,85,l),
(269,53,o),
(272,24,o),
(277,0,c)
);
},
{
closed = 1;
nodes = (
(208,-10,o),
(255,22,o),
(273,85,c),
(261,164,l),
(261,97,o),
(225,50,o),
(174,50,cs),
(133,50,o),
(108,76,o),
(108,122,cs),
(108,168,o),
(132,202,o),
(179,226,c),
(274,274,l),
(274,333,l),
(160,278,ls),
(78,238,o),
(40,188,o),
(40,117,cs),
(40,40,o),
(85,-10,o),
(154,-10,cs)
);
}
);
width = 389;
},
{
anchors = (
{
name = bottom;
pos = (267,0);
},
{
name = ogonek;
pos = (470,0);
},
{
name = top;
pos = (267,510);
}
);
background = {
shapes = (
{
closed = 1;
nodes = (
(460,0,l),
(453,35,o),
(449,66,o),
(449,95,cs),
(449,340,ls),
(449,460,o),
(389,520,o),
(265,520,cs),
(138,520,o),
(59,456,o),
(59,352,c),
(137,352,l),
(137,415,o),
(185,452,o),
(262,452,cs),
(337,452,o),
(369,416,o),
(369,339,cs),
(369,95,l),
(374,95,l),
(374,54,o),
(376,23,o),
(381,0,c)
);
},
{
closed = 1;
nodes = (
(298,-10,o),
(360,29,o),
(382,97,c),
(369,168,l),
(369,103,o),
(309,58,o),
(224,58,cs),
(158,58,o),
(124,85,o),
(124,137,cs),
(124,188,o),
(157,216,o),
(233,228,cs),
(392,254,l),
(392,320,l),
(220,290,ls),
(100,269,o),
(44,219,o),
(44,134,cs),
(44,45,o),
(108,-10,o),
(211,-10,cs)
);
}
);
};
guides = (
{
angle = 180;
pos = (98,362);
}
);
layerId = m002;
shapes = (
{
closed = 1;
nodes = (
(470,0,l),
(463,35,o),
(459,65,o),
(459,95,cs),
(459,340,ls),
(459,460,o),
(398,520,o),
(272,520,cs),
(149,520,o),
(68,460,o),
(61,362,c),
(138,362,l),
(143,419,o),
(192,452,o),
(269,452,cs),
(347,452,o),
(381,416,o),
(381,339,cs),
(381,95,l),
(386,95,l),
(386,50,o),
(388,23,o),
(393,0,c)
);
},
{
closed = 1;
nodes = (
(307,-10,o),
(372,29,o),
(394,97,c),
(381,168,l),
(381,103,o),
(318,58,o),
(229,58,cs),
(160,58,o),
(124,85,o),
(124,137,cs),
(124,190,o),
(163,216,o),
(238,228,cs),
(404,254,l),
(404,320,l),
(226,290,ls),
(108,270,o),
(46,223,o),
(46,134,cs),
(46,45,o),
(112,-10,o),
(218,-10,cs)
);
}
);
width = 533;
},
{
anchors = (
{
name = bottom;
pos = (209,0);
},
{
name = ogonek;
pos = (390,0);
},
{
name = top;
pos = (209,510);
}
);
background = {
shapes = (
{
closed = 1;
nodes = (
(390,0,l),
(381,28,o),
(378,57,o),
(378,85,cs),
(378,360,ls),
(378,461,o),
(320,520,o),
(216,520,cs),
(109,520,o),
(42,450,o),
(42,356,c),
(167,356,l),
(167,389,o),
(182,410,o),
(210,410,cs),
(234,410,o),
(246,392,o),
(246,356,cs),
(246,85,l),
(250,85,l),
(250,53,o),
(253,24,o),
(262,0,c)
);
},
{
closed = 1;
nodes = (
(195,-10,o),
(234,15,o),
(255,72,c),
(246,137,l),
(246,115,o),
(228,100,o),
(204,100,cs),
(180,100,o),
(164,116,o),
(164,144,cs),
(164,172,o),
(177,188,o),
(199,200,cs),
(280,243,l),
(280,356,l),
(143,286,ls),
(59,243,o),
(32,194,o),
(32,121,cs),
(32,40,o),
(79,-10,o),
(140,-10,cs)
);
}
);
};
layerId = m003;
shapes = (
{
closed = 1;
nodes = (
(390,0,l),
(381,28,o),
(378,57,o),
(378,85,cs),
(378,360,ls),
(378,461,o),
(320,520,o),
(216,520,cs),
(109,520,o),
(42,450,o),
(42,356,c),
(163,356,l),
(163,399,o),
(178,420,o),
(206,420,cs),
(234,420,o),
(246,402,o),
(246,356,cs),
(246,85,l),
(250,85,l),
(250,53,o),
(253,24,o),
(262,0,c)
);
},
{
closed = 1;
nodes = (
(195,-10,o),
(234,15,o),
(255,72,c),
(246,127,l),
(246,105,o),
(228,90,o),
(204,90,cs),
(180,90,o),
(164,106,o),
(164,137,cs),
(164,169,o),
(180,194,o),
(223,217,cs),
(280,248,l),
(280,351,l),
(143,281,ls),
(59,238,o),
(32,194,o),
(32,121,cs),
(32,40,o),
(79,-10,o),
(140,-10,cs)
);
}
);
width = 418;
},
{
anchors = (
{
name = bottom;
pos = (294,0);
},
{
name = ogonek;
pos = (533,0);
},
{
name = top;
pos = (294,510);
}
);
background = {
shapes = (
{
closed = 1;
nodes = (
(515,0,l),
(505,37,o),
(501,70,o),
(501,105,cs),
(501,330,ls),
(501,453,o),
(422,520,o),
(280,520,cs),
(143,520,o),
(63,453,o),
(50,361,c),
(196,361,l),
(205,384,o),
(231,402,o),
(275,402,cs),
(325,402,o),
(351,377,o),
(351,336,cs),
(351,105,l),
(354,105,l),
(354,64,o),
(357,29,o),
(365,0,c)
);
},
{
closed = 1;
nodes = (
(273,-10,o),
(336,29,o),
(364,105,c),
(351,193,l),
(351,148,o),
(302,108,o),
(246,108,cs),
(209,108,o),
(186,126,o),
(186,155,cs),
(186,187,o),
(207,203,o),
(248,210,cs),
(369,231,l),
(369,328,l),
(222,306,ls),
(100,288,o),
(36,226,o),
(36,131,cs),
(36,45,o),
(97,-10,o),
(193,-10,cs)
);
}
);
};
guides = (
{
angle = 180;
pos = (121,361);
}
);
layerId = m004;
shapes = (
{
closed = 1;
nodes = (
(531,0,l),
(520,39,o),
(516,71,o),
(516,105,cs),
(516,330,ls),
(516,453,o),
(436,520,o),
(290,520,cs),
(148,520,o),
(65,453,o),
(52,361,c),
(195,361,l),
(204,394,o),
(234,412,o),
(285,412,cs),
(338,412,o),
(366,387,o),
(366,346,cs),
(366,105,l),
(370,105,l),
(370,61,o),
(373,29,o),
(381,0,c)
);
},
{
closed = 1;
nodes = (
(289,-10,o),
(351,29,o),
(380,105,c),
(366,185,l),
(366,140,o),
(316,100,o),
(253,100,cs),
(213,100,o),
(187,118,o),
(187,151,cs),
(187,188,o),
(211,209,o),
(265,217,cs),
(389,236,l),
(389,323,l),
(240,302,ls),
(112,284,o),
(37,226,o),
(37,131,cs),
(37,45,o),
(102,-10,o),
(203,-10,cs)
);
}
);
width = 571;
}
);
unicode = 97;
userData = {
KernOnName = a;
};
},
{
glyphname = ae;
kernLeft = KO_a;
kernRight = KO_e;
lastChange = "2023-02-08 19:04:01 +0000";
layers = (
{
background = {
shapes = (
{
closed = 1;
nodes = (
(169,-9,o),
(199,14,o),
(231,58,cs),
(240,71,o),
(252,70,o),
(313,95,c),
(313,401,ls),
(313,479,o),
(278,516,o),
(214,516,cs),
(129,516,o),
(31,433,o),
(31,355,cs),
(31,337,o),
(42,327,o),
(59,327,cs),
(81,327,o),
(107,345,o),
(114,388,cs),
(126,458,o),
(155,486,o),
(189,486,cs),
(223,486,o),
(245,461,o),
(245,397,cs),
(245,306,ls),
(245,298,o),
(241,292,o),
(232,289,cs),
(111,250,o),
(24,173,o),
(24,88,cs),
(24,29,o),
(64,-9,o),
(120,-9,cs)
);
},
{
closed = 1;
nodes = (
(114,37,o),
(96,61,o),
(96,106,cs),
(96,178,o),
(143,229,o),
(224,259,cs),
(237,264,o),
(245,259,o),
(245,248,cs),
(245,175,ls),
(245,97,o),
(198,37,o),
(147,37,cs)
);
},
{
closed = 1;
nodes = (
(476,-9,o),
(524,32,o),
(546,151,cs),
(548,163,o),
(545,171,o),
(537,171,cs),
(530,171,o),
(526,167,o),
(524,160,cs),
(504,74,o),
(474,42,o),
(423,42,cs),
(359,42,o),
(313,113,o),
(313,254,cs),
(313,270,o),
(320,277,o),
(333,277,cs),
(523,277,ls),
(540,277,o),
(548,289,o),
(548,310,cs),
(548,455,o),
(494,516,o),
(416,516,cs),
(317,516,o),
(251,406,o),
(251,249,cs),
(251,94,o),
(314,-9,o),
(410,-9,cs)
);
},
{
closed = 1;
nodes = (
(320,302,o),
(314,308,o),
(315,318,cs),
(325,428,o),
(363,491,o),
(415,491,cs),
(457,491,o),
(479,439,o),
(479,352,cs),
(479,317,o),
(464,302,o),
(431,302,cs),
(330,302,ls)
);
}
);
};
layerId = m01;
shapes = (
{
closed = 1;
nodes = (
(329,125,l),
(329,380,ls),
(329,469,o),
(282,520,o),
(200,520,cs),
(105,520,o),
(53,456,o),
(53,362,c),
(115,362,l),
(115,418,o),
(141,460,o),
(194,460,cs),
(234,460,o),
(261,433,o),
(261,387,cs),
(261,125,l)
);
},
{
closed = 1;
nodes = (
(225,-10,o),
(285,22,o),
(313,115,c),
(261,164,l),
(261,97,o),
(225,50,o),
(174,50,cs),
(133,50,o),
(108,76,o),
(108,122,cs),
(108,168,o),
(128,211,o),
(197,231,cs),
(274,254,l),
(274,313,l),
(178,283,ls),
(73,251,o),
(40,188,o),
(40,117,cs),
(40,40,o),
(85,-10,o),
(154,-10,cs)
);
},
{
closed = 1;
nodes = (
(507,-10,o),
(564,58,o),
(574,162,c),
(510,162,l),
(504,93,o),
(473,50,o),
(424,50,cs),
(365,50,o),
(329,123,o),
(329,253,cs),
(329,387,o),
(366,460,o),
(429,460,cs),
(487,460,o),
(514,400,o),
(515,258,c),
(543,298,l),
(304,298,l),
(304,240,l),
(579,240,l),
(579,246,o),
(579,253,o),
(579,259,cs),
(579,437,o),
(526,520,o),
(434,520,cs),
(326,520,o),
(269,420,o),
(269,253,cs),
(269,89,o),
(322,-10,o),
(422,-10,cs)
);
}
);
width = 615;
},
{
background = {
shapes = (
{
closed = 1;
nodes = (
(169,-9,o),
(199,14,o),
(231,58,cs),
(240,71,o),
(252,70,o),
(313,95,c),
(313,401,ls),
(313,479,o),
(278,516,o),
(214,516,cs),
(129,516,o),
(31,433,o),
(31,355,cs),
(31,337,o),
(42,327,o),
(59,327,cs),
(81,327,o),
(107,345,o),
(114,388,cs),
(126,458,o),
(155,486,o),
(189,486,cs),
(223,486,o),
(245,461,o),
(245,397,cs),
(245,306,ls),
(245,298,o),
(241,292,o),
(232,289,cs),
(111,250,o),
(24,173,o),
(24,88,cs),
(24,29,o),
(64,-9,o),
(120,-9,cs)
);
},
{
closed = 1;
nodes = (
(114,37,o),
(96,61,o),
(96,106,cs),
(96,178,o),
(143,229,o),
(224,259,cs),
(237,264,o),
(245,259,o),
(245,248,cs),
(245,175,ls),
(245,97,o),
(198,37,o),
(147,37,cs)
);
},
{
closed = 1;
nodes = (
(476,-9,o),
(524,32,o),
(546,151,cs),
(548,163,o),
(545,171,o),
(537,171,cs),
(530,171,o),
(526,167,o),
(524,160,cs),
(504,74,o),
(474,42,o),
(423,42,cs),
(359,42,o),
(313,113,o),
(313,254,cs),
(313,270,o),
(320,277,o),
(333,277,cs),
(523,277,ls),
(540,277,o),
(548,289,o),
(548,310,cs),
(548,455,o),
(494,516,o),
(416,516,cs),
(317,516,o),
(251,406,o),
(251,249,cs),
(251,94,o),
(314,-9,o),
(410,-9,cs)
);
},
{
closed = 1;
nodes = (
(320,302,o),
(314,308,o),
(315,318,cs),
(325,428,o),
(363,491,o),
(415,491,cs),
(457,491,o),
(479,439,o),
(479,352,cs),
(479,317,o),
(464,302,o),
(431,302,cs),
(330,302,ls)
);
}
);
};
layerId = m002;
shapes = (
{
closed = 1;
nodes = (
(451,135,l),
(451,340,ls),
(451,460,o),
(391,520,o),
(267,520,cs),
(146,520,o),
(68,460,o),
(61,362,c),
(139,362,l),
(144,419,o),
(191,452,o),
(264,452,cs),
(339,452,o),
(371,416,o),
(371,339,cs),
(371,135,l)
);
},
{
closed = 1;
nodes = (
(310,-10,o),
(392,29,o),
(434,137,c),
(371,168,l),
(371,103,o),
(311,58,o),
(226,58,cs),
(160,58,o),
(126,85,o),
(126,132,cs),
(126,183,o),
(159,211,o),
(235,223,cs),
(394,249,l),
(394,315,l),
(222,285,ls),
(102,264,o),
(46,214,o),
(46,129,cs),
(46,45,o),
(110,-10,o),
(214,-10,cs)
);
},
{
closed = 1;
nodes = (
(703,-10,o),
(777,47,o),
(810,141,c),
(734,141,l),
(711,88,o),
(668,58,o),
(608,58,cs),
(510,58,o),
(451,137,o),
(451,258,cs),
(451,376,o),
(518,452,o),
(606,452,cs),
(699,452,o),
(747,383,o),
(747,261,c),
(773,298,l),
(429,298,l),
(429,231,l),
(822,231,l),
(824,245,o),
(825,256,o),
(825,270,cs),
(825,422,o),
(742,520,o),
(606,520,cs),
(471,520,o),
(379,413,o),
(379,257,cs),
(379,101,o),
(464,-10,o),
(604,-10,cs)
);
}
);
width = 865;
},
{
background = {
shapes = (
{
closed = 1;
nodes = (
(390,105,l),
(390,360,ls),
(390,461,o),
(332,520,o),
(222,520,cs),
(109,520,o),
(42,450,o),
(42,356,c),
(167,356,l),
(167,389,o),
(182,410,o),
(216,410,cs),
(246,410,o),
(258,392,o),
(258,356,cs),
(258,105,l)
);
},
{
closed = 1;
nodes = (
(240,-10,o),
(296,15,o),
(337,112,c),
(258,137,l),
(258,115,o),
(240,100,o),
(210,100,cs),
(183,100,o),
(164,116,o),
(164,144,cs),
(164,172,o),
(175,193,o),
(217,204,cs),
(292,223,l),
(292,326,l),
(179,297,ls),
(70,269,o),
(32,204,o),
(32,126,cs),
(32,45,o),
(91,-10,o),
(172,-10,cs)
);
},
{
closed = 1;
nodes = (
(551,-10,o),
(612,62,o),
(629,162,c),
(507,162,l),
(500,124,o),
(482,100,o),
(454,100,cs),
(412,100,o),
(390,150,o),
(390,257,cs),
(390,362,o),
(412,410,o),
(454,410,cs),
(496,410,o),
(518,369,o),
(518,279,c),
(546,315,l),
(335,315,l),
(335,216,l),
(634,216,l),
(636,229,o),
(637,245,o),
(637,264,cs),
(637,429,o),
(570,520,o),
(455,520,cs),
(333,520,o),
(261,418,o),
(261,257,cs),
(261,97,o),
(333,-10,o),
(449,-10,cs)
);
}
);
};
layerId = m003;
shapes = (
{
closed = 1;
nodes = (
(390,105,l),
(390,360,ls),
(390,461,o),
(332,520,o),
(225,520,cs),
(115,520,o),
(48,450,o),
(48,356,c),
(169,356,l),
(169,399,o),
(186,420,o),
(216,420,cs),
(246,420,o),
(258,402,o),
(258,356,cs),
(258,105,l)
);
},
{
closed = 1;
nodes = (
(240,-10,o),
(296,15,o),
(337,112,c),
(258,137,l),
(258,105,o),
(236,90,o),
(210,90,cs),
(185,90,o),
(164,109,o),
(164,144,cs),
(164,180,o),
(184,200,o),
(226,211,cs),
(292,228,l),
(292,321,l),
(179,292,ls),
(70,264,o),
(32,204,o),
(32,126,cs),
(32,45,o),
(91,-10,o),
(172,-10,cs)
);
},
{
closed = 1;
nodes = (
(551,-10,o),
(612,62,o),
(629,162,c),
(512,162,l),
(505,114,o),
(487,90,o),
(456,90,cs),
(412,90,o),
(390,140,o),
(390,257,cs),
(390,372,o),
(412,420,o),
(458,420,cs),
(504,420,o),
(526,379,o),
(526,279,c),
(546,310,l),
(335,310,l),
(335,221,l),
(634,221,l),
(636,234,o),
(637,250,o),
(637,269,cs),
(637,429,o),
(570,520,o),
(455,520,cs),
(333,520,o),
(261,418,o),
(261,257,cs),
(261,97,o),
(333,-10,o),
(449,-10,cs)
);
}
);
width = 658;
},
{
background = {
shapes = (
{
closed = 1;
nodes = (
(502,145,l),
(502,330,ls),
(502,453,o),
(423,520,o),
(281,520,cs),
(144,520,o),
(64,453,o),
(51,361,c),
(197,361,l),
(206,384,o),
(232,402,o),
(276,402,cs),
(326,402,o),
(352,377,o),
(352,336,cs),
(352,145,l)
);
},
{
closed = 1;
nodes = (
(323,-10,o),
(396,29,o),
(444,135,c),
(352,193,l),
(352,148,o),
(303,108,o),
(247,108,cs),
(210,108,o),
(187,126,o),
(187,150,cs),
(187,177,o),
(208,193,o),
(249,200,cs),
(370,221,l),
(370,318,l),
(223,296,ls),
(101,278,o),
(37,216,o),
(37,136,cs),
(37,45,o),
(109,-10,o),
(213,-10,cs)
);
},
{
closed = 1;
nodes = (
(740,-10,o),
(820,50,o),
(854,149,c),
(710,149,l),
(695,123,o),
(670,108,o),
(622,108,cs),
(545,108,o),
(502,158,o),
(502,252,cs),
(502,349,o),
(547,402,o),
(619,402,cs),
(679,402,o),
(716,363,o),
(716,291,c),
(742,314,l),
(441,314,l),
(441,205,l),
(863,205,l),
(865,221,o),
(867,238,o),
(867,260,cs),
(867,418,o),
(766,520,o),
(618,520,cs),
(464,520,o),
(363,413,o),
(363,255,cs),
(363,98,o),
(463,-10,o),
(623,-10,cs)
);
}
);
};
layerId = m004;
shapes = (
{
closed = 1;
nodes = (
(502,145,l),
(502,330,ls),
(502,453,o),
(423,520,o),
(281,520,cs),
(144,520,o),
(64,453,o),
(51,361,c),
(194,361,l),
(203,394,o),
(239,412,o),
(283,412,cs),
(333,412,o),
(365,387,o),
(365,346,cs),
(365,145,l)
);
},
{
closed = 1;
nodes = (
(323,-10,o),
(396,29,o),
(444,145,c),
(365,185,l),
(365,140,o),
(303,100,o),
(257,100,cs),
(210,100,o),
(186,118,o),
(186,150,cs),
(186,182,o),
(207,204,o),
(269,214,cs),
(370,231,l),
(370,318,l),
(233,298,ls),
(93,278,o),
(37,216,o),
(37,136,cs),
(37,45,o),
(109,-10,o),
(213,-10,cs)
);
},
{
closed = 1;
nodes = (
(740,-10,o),
(820,50,o),
(854,149,c),
(710,149,l),
(695,113,o),
(670,98,o),
(622,98,cs),
(545,98,o),
(502,148,o),
(502,252,cs),
(502,369,o),
(547,412,o),
(624,412,cs),
(689,412,o),
(729,373,o),
(729,291,c),
(752,309,l),
(441,309,l),
(441,210,l),
(863,210,l),
(865,226,o),
(867,243,o),
(867,265,cs),
(867,418,o),
(766,520,o),
(618,520,cs),
(464,520,o),
(363,413,o),
(363,255,cs),
(363,98,o),
(463,-10,o),
(623,-10,cs)
);
}
);
width = 887;
}
);
metricLeft = a;
metricRight = e;
unicode = 230;
},
{
glyphname = b;
kernRight = KO_p;
lastChange = "2023-02-08 18:34:55 +0000";
layers = (
{
background = {
shapes = (
{
closed = 1;
nodes = (
(124,0,l),
(124,84,l),
(132,114,l),
(125,255,l),
(132,398,l),
(132,740,l),
(64,740,l),
(64,0,l)
);
},
{
closed = 1;
nodes = (
(347,-10,o),
(410,92,o),
(410,261,cs),
(410,423,o),
(352,520,o),
(253,520,cs),
(189,520,o),
(136,480,o),
(123,406,c),
(123,84,l),
(139,22,o),
(188,-10,o),
(243,-10,cs)
);
},
{
closed = 1;
nodes = (
(156,52,o),
(130,121,o),
(129,255,cs),
(128,393,o),
(153,458,o),
(229,458,cs),
(304,458,o),
(340,392,o),
(340,255,cs),
(340,118,o),
(306,52,o),
(231,52,cs)
);
}
);
};
layerId = m01;
shapes = (
{
closed = 1;
nodes = (
(347,-10,o),
(410,92,o),
(410,261,cs),
(410,423,o),
(352,520,o),
(253,520,cs),
(192,520,o),
(141,484,o),
(125,415,c),
(132,407,l),
(132,720,l),
(64,720,l),
(64,0,l),
(124,0,l),
(124,111,l),
(119,104,l),
(129,29,o),
(182,-10,o),
(243,-10,cs)
);
},
{
closed = 1;
nodes = (
(162,52,o),
(126,118,o),
(126,255,cs),
(126,392,o),
(160,458,o),
(232,458,cs),
(304,458,o),
(340,392,o),
(340,255,cs),
(340,118,o),
(306,52,o),
(234,52,cs)
);
}
);
width = 448;
},
{
background = {
shapes = (
{
closed = 1;
nodes = (
(474,-9,o),
(564,101,o),
(564,257,cs),
(564,410,o),
(477,520,o),
(343,520,cs),
(245,520,o),
(181,473,o),
(147,397,c),
(160,276,l),
(160,379,o),
(228,450,o),
(324,450,cs),
(424,450,o),
(482,375,o),
(482,257,cs),
(482,136,o),
(424,61,o),
(324,61,cs),
(228,61,o),
(160,132,o),
(160,235,c),
(147,114,l),
(178,38,o),
(236,-9,o),
(334,-9,cs)
);
},
{
closed = 1;
nodes = (
(155,0,l),
(155,114,l),
(160,114,l),
(160,740,l),
(80,740,l),
(80,0,l)
);
}
);
};
layerId = m002;
shapes = (
{
closed = 1;
nodes = (
(472,-9,o),
(564,97,o),
(564,257,cs),
(564,415,o),
(474,520,o),
(339,520,cs),
(246,520,o),
(174,472,o),
(149,394,c),
(160,391,l),
(160,720,l),
(80,720,l),
(80,0,l),
(155,0,l),
(155,127,l),
(144,125,l),
(168,40,o),
(236,-9,o),
(332,-9,cs)
);
},
{
closed = 1;
nodes = (
(219,61,o),
(156,135,o),
(156,254,cs),
(156,375,o),
(218,450,o),
(320,450,cs),
(421,450,o),
(482,377,o),
(482,257,cs),
(482,135,o),
(421,61,o),
(320,61,cs)
);
}
);
width = 606;
},
{
background = {
shapes = (
{
closed = 1;
nodes = (
(391,-10,o),
(454,95,o),
(454,262,cs),
(454,424,o),
(396,520,o),
(300,520,cs),
(241,520,o),
(187,481,o),
(174,412,c),
(182,411,l),
(182,720,l),
(44,720,l),
(44,0,l),
(174,0,l),
(174,102,l),
(167,102,l),
(178,30,o),
(234,-10,o),
(293,-10,cs)
);
},
{
closed = 1;
nodes = (
(200,110,o),
(177,157,o),
(177,253,cs),
(177,350,o),
(201,400,o),
(245,400,cs),
(289,400,o),
(312,353,o),
(312,257,cs),
(312,160,o),
(288,110,o),
(244,110,cs)
);
}
);
};
guides = (
{
pos = (308,388);
}
);
layerId = m003;
shapes = (
{
closed = 1;
nodes = (
(391,-10,o),
(454,95,o),
(454,262,cs),
(454,424,o),
(396,520,o),
(300,520,cs),
(241,520,o),
(187,481,o),
(174,412,c),
(182,411,l),
(182,720,l),
(44,720,l),
(44,0,l),
(174,0,l),
(174,102,l),
(167,102,l),
(178,30,o),
(234,-10,o),
(293,-10,cs)
);
},
{
closed = 1;
nodes = (
(202,100,o),
(177,147,o),
(177,253,cs),
(177,360,o),
(203,410,o),
(245,410,cs),
(287,410,o),
(312,363,o),
(312,257,cs),
(312,150,o),
(286,100,o),
(244,100,cs)
);
}
);
width = 479;
},
{
background = {
shapes = (
{
closed = 1;
nodes = (
(512,-10,o),
(604,95,o),
(604,257,cs),
(604,417,o),
(516,520,o),
(379,520,cs),
(283,520,o),
(215,473,o),
(201,399,c),
(210,397,l),
(210,740,l),
(60,740,l),
(60,0,l),
(207,0,l),
(207,118,l),
(199,117,l),
(210,38,o),
(274,-10,o),
(371,-10,cs)
);
},
{
closed = 1;
nodes = (
(254,120,o),
(208,172,o),
(208,255,cs),
(208,338,o),
(254,390,o),
(327,390,cs),
(402,390,o),
(448,339,o),
(448,256,cs),
(448,173,o),
(402,120,o),
(329,120,cs)
);
}
);
};
layerId = m004;
shapes = (
{
closed = 1;
nodes = (
(512,-10,o),
(604,95,o),
(604,257,cs),
(604,417,o),
(516,520,o),
(379,520,cs),
(283,520,o),
(215,473,o),
(201,399,c),
(210,397,l),
(210,720,l),
(60,720,l),
(60,0,l),
(207,0,l),
(207,118,l),
(199,117,l),
(210,38,o),
(274,-10,o),
(371,-10,cs)
);
},
{
closed = 1;
nodes = (
(257,110,o),
(208,162,o),
(208,255,cs),
(208,348,o),
(257,400,o),
(327,400,cs),
(399,400,o),
(448,349,o),
(448,256,cs),
(448,163,o),
(399,110,o),
(329,110,cs)
);
}
);
width = 628;
}
);
unicode = 98;
userData = {
KernOnSpecialSpacing = {
L = NoKerning;
};
};
},
{
glyphname = c;
kernLeft = KO_e;
kernRight = KO_c;
lastChange = "2023-02-08 18:38:48 +0000";
layers = (
{
anchors = (
{
name = bottom;
pos = (202,0);
},
{
name = top;
pos = (205,510);
}
);
background = {
shapes = (
{
closed = 1;
nodes = (
(293,-10,o),
(352,71,o),
(352,197,c),
(286,197,l),
(286,106,o),
(254,50,o),
(201,50,cs),
(139,50,o),
(106,121,o),
(106,256,cs),
(106,392,o),
(139,460,o),
(205,460,cs),
(259,460,o),
(286,412,o),
(286,313,c),
(352,313,l),
(352,444,o),
(298,520,o),
(205,520,cs),
(98,520,o),
(36,423,o),
(36,255,cs),
(36,89,o),
(97,-10,o),
(200,-10,cs)
);
}
);
};
layerId = m01;
shapes = (
{
closed = 1;
nodes = (
(293,-10,o),
(352,71,o),
(352,187,c),
(286,187,l),
(286,106,o),
(254,50,o),
(201,50,cs),
(139,50,o),
(106,121,o),
(106,256,cs),
(106,392,o),
(139,460,o),
(205,460,cs),
(259,460,o),
(286,412,o),
(286,323,c),
(352,323,l),
(352,444,o),
(298,520,o),
(205,520,cs),
(98,520,o),
(36,423,o),
(36,255,cs),
(36,89,o),
(97,-10,o),
(200,-10,cs)
);
}
);
width = 384;
},
{
anchors = (
{
name = bottom;
pos = (279,0);
},
{
name = top;
pos = (283,510);
}
);
background = {
shapes = (
{
closed = 1;
nodes = (
(400,-10,o),
(488,73,o),
(501,193,c),
(427,193,l),
(418,113,o),
(361,58,o),
(282,58,cs),
(187,58,o),
(122,139,o),
(122,258,cs),
(122,375,o),
(186,452,o),
(281,452,cs),
(360,452,o),
(418,395,o),
(426,316,c),
(500,316,l),
(489,438,o),
(404,520,o),
(281,520,cs),
(142,520,o),
(40,410,o),
(40,257,cs),
(40,103,o),
(142,-10,o),
(282,-10,cs)
);
}
);
};
guides = (
{
pos = (501,168);
},
{
pos = (426,341);
}
);
layerId = m002;
shapes = (
{
closed = 1;
nodes = (
(391,-10,o),
(479,61,o),
(497,168,c),
(423,168,l),
(409,102,o),
(357,58,o),
(284,58,cs),
(186,58,o),
(122,139,o),
(122,257,cs),
(122,375,o),
(185,452,o),
(283,452,cs),
(359,452,o),
(408,406,o),
(422,341,c),
(496,341,l),
(480,449,o),
(395,520,o),
(281,520,cs),
(142,520,o),
(40,410,o),
(40,257,cs),
(40,103,o),
(142,-10,o),
(282,-10,cs)
);
}
);
width = 533;
},
{
anchors = (
{
name = bottom;
pos = (219,0);
},
{
name = top;
pos = (219,510);
}
);
background = {
shapes = (
{
closed = 1;
nodes = (
(315,-10,o),
(400,60,o),
(400,202,c),
(278,202,l),
(278,133,o),
(255,108,o),
(224,108,cs),
(191,108,o),
(161,139,o),
(161,257,cs),
(161,372,o),
(191,402,o),
(224,402,cs),
(255,402,o),
(278,377,o),
(278,308,c),
(400,308,l),
(400,451,o),
(317,520,o),
(215,520,cs),
(104,520,o),
(21,428,o),
(21,257,cs),
(21,85,o),
(105,-10,o),
(215,-10,cs)
);
}
);
};
layerId = m003;
shapes = (
{
closed = 1;
nodes = (
(315,-10,o),
(400,60,o),
(400,202,c),
(278,202,l),
(278,123,o),
(255,98,o),
(224,98,cs),
(191,98,o),
(161,129,o),
(161,257,cs),
(161,382,o),
(191,412,o),
(224,412,cs),
(255,412,o),
(278,387,o),
(278,308,c),
(400,308,l),
(400,451,o),
(322,520,o),
(220,520,cs),
(109,520,o),
(21,428,o),
(21,257,cs),
(21,85,o),
(105,-10,o),
(215,-10,cs)
);
}
);
width = 418;
},
{
anchors = (
{
name = bottom;
pos = (283,0);
},
{
name = top;
pos = (295,510);
}
);
background = {
shapes = (
{
closed = 1;
nodes = (
(425,-10,o),
(524,68,o),
(544,183,c),
(397,183,l),
(382,144,o),
(345,118,o),
(295,118,cs),
(222,118,o),
(176,175,o),
(176,255,cs),
(176,335,o),
(222,392,o),
(295,392,cs),
(345,392,o),
(382,366,o),
(397,327,c),
(544,327,l),
(524,442,o),
(425,520,o),
(291,520,cs),
(131,520,o),
(20,409,o),
(20,255,cs),
(20,101,o),
(131,-10,o),
(291,-10,cs)
);
}
);
};
guides = (
{
pos = (477,183);
},
{
pos = (477,327);
}
);
layerId = m004;
shapes = (
{
closed = 1;
nodes = (
(425,-10,o),
(524,68,o),
(544,183,c),
(399,183,l),
(384,134,o),
(343,108,o),
(293,108,cs),
(220,108,o),
(176,165,o),
(176,255,cs),
(176,345,o),
(220,402,o),
(293,402,cs),
(343,402,o),
(384,376,o),
(399,327,c),
(544,327,l),
(524,442,o),
(425,520,o),
(291,520,cs),
(131,520,o),
(20,409,o),
(20,255,cs),
(20,101,o),
(131,-10,o),
(291,-10,cs)
);
}
);
width = 562;
}
);
unicode = 99;
},
{
glyphname = d;
kernLeft = KO_d;
lastChange = "2023-02-08 18:39:44 +0000";
layers = (
{
anchors = (
{
name = bottom;
pos = (224,0);
},
{
name = center;
pos = (224,255);
},
{
name = top;
pos = (224,720);
},
{
name = topright;
pos = (434,720);
}
);
background = {
shapes = (
{
closed = 1;
nodes = (
(223,-9,o),
(249,6,o),
(280,47,cs),
(298,71,l),
(307,71,l),
(303,169,l),
(303,95,o),
(254,37,o),
(203,37,cs),
(141,37,o),
(104,110,o),
(104,247,cs),
(104,397,o),
(154,491,o),
(229,491,cs),
(273,491,o),
(303,454,o),
(303,394,c),
(341,480,l),
(326,480,l),
(296,505,o),
(265,516,o),
(232,516,cs),
(115,516,o),
(30,400,o),
(30,233,cs),
(30,88,o),
(92,-9,o),
(181,-9,cs)
);
},
{
closed = 1;
nodes = (
(412,-9,o),
(452,32,o),
(452,129,cs),
(452,141,o),
(447,146,o),
(440,146,cs),
(433,146,o),
(427,141,o),
(427,130,cs),
(427,74,o),
(409,53,o),
(392,53,cs),
(379,53,o),
(371,66,o),
(371,95,cs),
(371,724,ls),
(371,735,o),
(367,740,o),
(360,740,cs),
(354,740,o),
(347,737,o),
(336,730,cs),
(319,719,o),
(294,708,o),
(252,700,cs),
(245,699,o),
(241,694,o),
(241,688,cs),
(241,682,o),
(245,677,o),
(252,676,cs),
(278,673,ls),
(297,671,o),
(303,664,o),
(303,640,cs),
(303,73,ls),
(303,21,o),
(333,-9,o),
(370,-9,cs)
);
}
);
};
layerId = m01;
shapes = (
{
closed = 1;
nodes = (
(384,0,l),
(384,720,l),
(316,720,l),
(316,399,l),
(329,406,l),
(319,481,o),
(266,520,o),
(205,520,cs),
(101,520,o),
(38,418,o),
(38,249,cs),
(38,87,o),
(96,-10,o),
(199,-10,cs),
(261,-10,o),
(312,26,o),
(328,95,c),
(321,103,l),
(321,0,l)
);
},
{
closed = 1;
nodes = (
(144,52,o),
(108,118,o),
(108,255,cs),
(108,392,o),
(142,458,o),
(214,458,cs),
(286,458,o),
(322,392,o),
(322,255,cs),
(322,118,o),
(288,52,o),
(216,52,cs)
);
}
);
width = 448;
},
{
anchors = (
{
name = bottom;
pos = (303,0);
},
{
name = center;
pos = (303,255);
},
{
name = top;
pos = (303,740);
},
{
name = topright;
pos = (596,720);
}
);
background = {
shapes = (
{
closed = 1;
nodes = (
(223,-9,o),
(249,6,o),
(280,47,cs),
(298,71,l),
(307,71,l),
(303,169,l),
(303,95,o),
(254,37,o),
(203,37,cs),
(141,37,o),
(104,110,o),
(104,247,cs),
(104,397,o),
(154,491,o),
(229,491,cs),
(273,491,o),
(303,454,o),
(303,394,c),
(341,480,l),
(326,480,l),
(296,505,o),
(265,516,o),
(232,516,cs),
(115,516,o),
(30,400,o),
(30,233,cs),
(30,88,o),
(92,-9,o),
(181,-9,cs)
);
},
{
closed = 1;
nodes = (
(412,-9,o),
(452,32,o),
(452,129,cs),
(452,141,o),
(447,146,o),
(440,146,cs),
(433,146,o),
(427,141,o),
(427,130,cs),
(427,74,o),
(409,53,o),
(392,53,cs),
(379,53,o),
(371,66,o),
(371,95,cs),
(371,724,ls),
(371,735,o),
(367,740,o),
(360,740,cs),
(354,740,o),
(347,737,o),
(336,730,cs),
(319,719,o),
(294,708,o),
(252,700,cs),
(245,699,o),
(241,694,o),
(241,688,cs),
(241,682,o),
(245,677,o),
(252,676,cs),
(278,673,ls),
(297,671,o),
(303,664,o),
(303,640,cs),
(303,73,ls),
(303,21,o),
(333,-9,o),
(370,-9,cs)
);
}
);
};
layerId = m002;
shapes = (
{
closed = 1;
nodes = (
(526,0,l),
(526,720,l),
(446,720,l),
(446,383,l),
(462,385,l),
(438,470,o),
(370,519,o),
(274,519,cs),
(134,519,o),
(42,413,o),
(42,253,cs),
(42,95,o),
(132,-10,o),
(271,-10,cs),
(364,-10,o),
(436,38,o),
(461,116,c),
(451,119,l),
(451,0,l)
);
},
{
closed = 1;
nodes = (
(185,60,o),
(124,133,o),
(124,253,cs),
(124,375,o),
(185,449,o),
(286,449,cs),
(387,449,o),
(450,375,o),
(450,256,cs),
(450,135,o),
(388,60,o),
(286,60,cs)
);
}
);
width = 606;
},
{
anchors = (
{
name = bottom;
pos = (240,0);
},
{
name = center;
pos = (240,255);
},
{
name = top;
pos = (240,720);
},
{
name = topright;
pos = (479,720);
}
);
background = {
shapes = (
{
closed = 1;
nodes = (
(435,0,l),
(435,720,l),
(297,720,l),
(297,408,l),
(312,408,l),
(301,480,o),
(245,520,o),
(186,520,cs),
(88,520,o),
(25,415,o),
(25,248,cs),
(25,86,o),
(83,-10,o),
(179,-10,cs),
(243,-10,o),
(297,29,o),
(310,98,c),
(302,99,l),
(302,0,l)
);
},
{
closed = 1;
nodes = (
(190,110,o),
(167,157,o),
(167,253,cs),
(167,350,o),
(191,400,o),
(235,400,cs),
(279,400,o),
(302,353,o),
(302,257,cs),
(302,160,o),
(278,110,o),
(234,110,cs)
);
}
);
};
layerId = m003;
shapes = (
{
closed = 1;
nodes = (
(435,0,l),
(435,720,l),
(297,720,l),
(297,408,l),
(312,408,l),
(301,480,o),
(245,520,o),
(186,520,cs),
(88,520,o),
(25,415,o),
(25,248,cs),
(25,86,o),
(83,-10,o),
(179,-10,cs),
(243,-10,o),
(297,29,o),
(310,98,c),
(302,99,l),
(302,0,l)
);
},
{
closed = 1;
nodes = (
(192,100,o),
(167,147,o),
(167,253,cs),
(167,360,o),
(193,410,o),
(235,410,cs),
(277,410,o),
(302,363,o),
(302,257,cs),
(302,150,o),
(276,100,o),
(234,100,cs)
);
}
);
width = 479;
},
{
anchors = (
{
name = bottom;
pos = (314,0);
},
{
name = center;
pos = (314,255);
},
{
name = top;
pos = (314,740);
},
{
name = topright;
pos = (618,720);
}
);
background = {
shapes = (
{
closed = 1;
nodes = (
(568,0,l),
(568,720,l),
(418,720,l),
(418,392,l),
(429,393,l),
(418,472,o),
(354,520,o),
(257,520,cs),
(116,520,o),
(24,415,o),
(24,253,cs),
(24,93,o),
(112,-10,o),
(253,-10,cs),
(345,-10,o),
(417,37,o),
(431,111,c),
(421,113,l),
(421,0,l)
);
},
{
closed = 1;
nodes = (
(226,120,o),
(180,171,o),
(180,254,cs),
(180,337,o),
(226,390,o),
(299,390,cs),
(374,390,o),
(420,338,o),
(420,255,cs),
(420,172,o),
(374,120,o),
(301,120,cs)
);
}
);
};
layerId = m004;
shapes = (
{
closed = 1;
nodes = (
(568,0,l),
(568,720,l),
(418,720,l),
(418,392,l),
(429,393,l),
(418,472,o),
(354,520,o),
(257,520,cs),
(116,520,o),
(24,415,o),
(24,253,cs),
(24,93,o),
(112,-10,o),
(253,-10,cs),
(345,-10,o),
(417,37,o),
(431,111,c),
(421,113,l),
(421,0,l)
);
},
{
closed = 1;
nodes = (
(229,110,o),
(180,161,o),
(180,254,cs),
(180,347,o),
(229,400,o),
(299,400,cs),
(371,400,o),
(420,348,o),
(420,255,cs),
(420,162,o),
(371,110,o),
(301,110,cs)
);
}
);
width = 628;
}
);
unicode = 100;
userData = {
KernOnName = d;
KernOnSpecialSpacing = {
R = NoKerning;
};
};
},
{
glyphname = eth;
lastChange = "2023-02-08 18:42:33 +0000";
layers = (
{
layerId = m01;
shapes = (
{
closed = 1;
nodes = (
(333,-10,o),
(394,108,o),
(394,311,cs),
(394,604,o),
(239,730,o),
(74,730,c),
(60,670,l),
(205,670,o),
(321,573,o),
(321,374,cs),
(321,366,l),
(333,380,l),
(318,459,o),
(268,504,o),
(195,504,cs),
(94,504,o),
(30,416,o),
(30,247,cs),
(30,76,o),
(97,-10,o),
(207,-10,cs)
);
},
{
closed = 1;
nodes = (
(137,52,o),
(102,109,o),
(102,248,cs),
(102,387,o),
(138,444,o),
(212,444,cs),
(286,444,o),
(324,387,o),
(324,254,cs),
(324,116,o),
(283,52,o),
(209,52,cs)
);
},
{
closed = 1;
nodes = (
(332,716,l),
(301,753,l),
(97,582,l),
(128,545,l)
);
}
);
width = 432;
},
{
layerId = m002;
shapes = (
{
closed = 1;
nodes = (
(447,-10,o),
(550,117,o),
(550,350,cs),
(550,592,o),
(383,730,o),
(119,730,c),
(109,665,l),
(338,665,o),
(470,556,o),
(470,354,cs),
(470,289,l),
(491,338,l),
(472,431,o),
(386,494,o),
(278,494,cs),
(149,494,o),
(40,399,o),
(40,240,cs),
(40,81,o),
(148,-10,o),
(284,-10,cs)
);
},
{
closed = 1;
nodes = (
(194,62,o),
(122,123,o),
(122,241,cs),
(122,362,o),
(188,424,o),
(282,424,cs),
(371,424,o),
(454,366,o),
(454,250,cs),
(454,130,o),
(381,62,o),
(280,62,cs)
);
},
{
closed = 1;
nodes = (
(476,705,l),
(445,755,l),
(161,577,l),
(192,527,l)
);
}
);
width = 592;
},
{
background = {
shapes = (
{
closed = 1;
nodes = (
(382,-10,o),
(446,104,o),
(446,305,cs),
(446,604,o),
(292,730,o),
(81,730,c),
(56,635,l),
(213,635,o),
(306,557,o),
(306,354,cs),
(306,331,l),
(339,392,l),
(320,462,o),
(291,506,o),
(219,506,cs),
(113,506,o),
(26,423,o),
(26,258,cs),
(26,81,o),
(104,-10,o),
(235,-10,cs)
);
},
{
closed = 1;
nodes = (
(190,108,o),
(166,150,o),
(166,255,cs),
(166,361,o),
(189,402,o),
(237,402,cs),
(284,402,o),
(308,361,o),
(308,256,cs),
(308,151,o),
(284,108,o),
(237,108,cs)
);
},
{
closed = 1;
nodes = (
(414,684,l),
(372,755,l),
(97,583,l),
(139,512,l)
);
}
);
};
layerId = m003;
shapes = (
{
closed = 1;
nodes = (
(382,-10,o),
(446,104,o),
(446,305,cs),
(446,604,o),
(292,730,o),
(81,730,c),
(56,635,l),
(213,635,o),
(306,557,o),
(306,354,cs),
(306,331,l),
(339,392,l),
(320,462,o),
(291,506,o),
(219,506,cs),
(113,506,o),
(26,423,o),
(26,258,cs),
(26,81,o),
(104,-10,o),
(235,-10,cs)
);
},
{
closed = 1;
nodes = (
(192,98,o),
(166,140,o),
(166,255,cs),
(166,371,o),
(191,412,o),
(237,412,cs),
(282,412,o),
(308,371,o),
(308,256,cs),
(308,141,o),
(282,98,o),
(237,98,cs)
);
},
{
closed = 1;
nodes = (
(414,684,l),
(372,755,l),
(97,583,l),
(139,512,l)
);
}
);
width = 471;
},
{
background = {
shapes = (
{
closed = 1;
nodes = (
(497,-10,o),
(592,110,o),
(592,314,cs),
(592,581,o),
(426,730,o),
(134,730,c),
(110,632,l),
(340,632,o),
(440,530,o),
(440,354,cs),
(440,289,l),
(479,338,l),
(466,434,o),
(398,494,o),
(287,494,cs),
(153,494,o),
(30,402,o),
(30,245,cs),
(30,83,o),
(146,-10,o),
(303,-10,cs)
);
},
{
closed = 1;
nodes = (
(243,118,o),
(192,158,o),
(192,244,cs),
(192,326,o),
(243,368,o),
(310,368,cs),
(378,368,o),
(433,329,o),
(433,246,cs),
(433,161,o),
(375,118,o),
(308,118,cs)
);
},
{
closed = 1;
nodes = (
(499,683,l),
(453,756,l),
(165,576,l),
(211,503,l)
);
}
);
};
layerId = m004;
shapes = (
{
closed = 1;
nodes = (
(497,-10,o),
(592,110,o),
(592,314,cs),
(592,581,o),
(426,730,o),
(134,730,c),
(110,632,l),
(340,632,o),
(440,530,o),
(440,354,cs),
(440,289,l),
(479,338,l),
(466,434,o),
(398,494,o),
(287,494,cs),
(153,494,o),
(30,402,o),
(30,245,cs),
(30,83,o),
(146,-10,o),
(303,-10,cs)
);
},
{
closed = 1;
nodes = (
(246,108,o),
(192,148,o),
(192,244,cs),
(192,336,o),
(246,378,o),
(310,378,cs),
(375,378,o),
(433,339,o),
(433,246,cs),
(433,151,o),
(372,108,o),
(308,108,cs)
);
},
{
closed = 1;
nodes = (
(499,683,l),
(453,756,l),
(165,576,l),
(211,503,l)
);
}
);
width = 616;
}
);
metricRight = "=|d";
unicode = 240;
},
{
glyphname = dcroat;
kernLeft = KO_d;
kernRight = KO_j;
lastChange = "2023-03-04 15:43:12 +0000";
layers = (
{
layerId = m01;
shapes = (
{
ref = d;
},
{
closed = 1;
nodes = (
(448,595,l),
(448,643,l),
(181,643,l),
(181,595,l)
);
}
);
width = 448;
},
{
layerId = m002;
shapes = (
{
ref = d;
},
{
closed = 1;
nodes = (
(606,595,l),
(606,653,l),
(271,653,l),
(271,595,l)
);
}
);
width = 606;
},
{
layerId = m003;
shapes = (
{
ref = d;
},
{
closed = 1;
nodes = (
(479,578,l),
(479,671,l),
(172,671,l),
(172,578,l)
);
}
);
width = 479;
},
{
layerId = m004;
shapes = (
{
ref = d;
},
{
closed = 1;
nodes = (
(628,578,l),
(628,676,l),
(242,676,l),
(242,578,l)
);
}
);
width = 628;
}
);
unicode = 273;
},
{
glyphname = e;
kernLeft = KO_e;
kernRight = KO_e;
lastChange = "2023-03-04 15:43:34 +0000";
layers = (
{
anchors = (
{
name = bottom;
pos = (201,0);
},
{
name = ogonek;
pos = (294,20);
},
{
name = top;
pos = (213,510);
}
);
background = {
shapes = (
{
closed = 1;
nodes = (
(294,-10,o),
(351,58,o),
(361,177,c),
(297,177,l),
(291,93,o),
(260,50,o),
(206,50,cs),
(142,50,o),
(106,123,o),
(106,253,cs),
(106,387,o),
(143,460,o),
(211,460,cs),
(274,460,o),
(301,400,o),
(302,258,c),
(330,298,l),
(81,298,l),
(81,240,l),
(366,240,l),
(366,246,o),
(366,253,o),
(366,259,cs),
(366,437,o),
(313,520,o),
(216,520,cs),
(103,520,o),
(36,420,o),
(36,253,cs),
(36,89,o),
(99,-10,o),
(204,-10,cs)
);
}
);
};
layerId = m01;
shapes = (
{
closed = 1;
nodes = (
(294,-10,o),
(351,58,o),
(361,162,c),
(297,162,l),
(291,93,o),
(260,50,o),
(206,50,cs),
(142,50,o),
(106,123,o),
(106,253,cs),
(106,387,o),
(143,460,o),
(211,460,cs),
(274,460,o),
(301,400,o),
(302,258,c),
(330,298,l),
(81,298,l),
(81,240,l),
(366,240,l),
(366,246,o),
(366,253,o),
(366,259,cs),
(366,437,o),
(313,520,o),
(216,520,cs),
(103,520,o),
(36,420,o),
(36,253,cs),
(36,89,o),
(99,-10,o),
(204,-10,cs)
);
}
);
width = 402;
},
{
anchors = (
{
name = bottom;
pos = (282,0);
},
{
name = ogonek;
pos = (409,20);
},
{
name = top;
pos = (293,510);
}
);
background = {
shapes = (
{
closed = 1;
nodes = (
(402,-10,o),
(486,57,o),
(514,169,c),
(438,169,l),
(417,96,o),
(367,58,o),
(282,58,cs),
(190,58,o),
(122,140,o),
(122,258,cs),
(122,375,o),
(190,452,o),
(287,452,cs),
(388,452,o),
(446,387,o),
(446,261,c),
(472,298,l),
(100,298,l),
(100,231,l),
(522,231,l),
(523,243,o),
(524,255,o),
(524,267,cs),
(524,420,o),
(437,520,o),
(287,520,cs),
(142,520,o),
(40,410,o),
(40,257,cs),
(40,105,o),
(141,-10,o),
(282,-10,cs)
);
}
);
};
layerId = m002;
shapes = (
{
closed = 1;
nodes = (
(393,-10,o),
(476,47,o),
(509,141,c),
(433,141,l),
(410,88,o),
(358,58,o),
(293,58,cs),
(189,58,o),
(122,137,o),
(122,258,cs),
(122,376,o),
(189,452,o),
(291,452,cs),
(390,452,o),
(446,383,o),
(446,261,c),
(472,298,l),
(100,298,l),
(100,231,l),
(521,231,l),
(523,245,o),
(524,256,o),
(524,270,cs),
(524,422,o),
(433,520,o),
(291,520,cs),
(142,520,o),
(40,413,o),
(40,257,cs),
(40,101,o),
(143,-10,o),
(289,-10,cs)
);
}
);
width = 564;
},
{
anchors = (
{
name = bottom;
pos = (220,0);
},
{
name = ogonek;
pos = (329,20);
},
{
name = top;
pos = (231,510);
}
);
background = {
shapes = (
{
closed = 1;
nodes = (
(333,-10,o),
(394,62,o),
(411,162,c),
(289,162,l),
(282,124,o),
(264,100,o),
(230,100,cs),
(182,100,o),
(160,150,o),
(160,257,cs),
(160,362,o),
(182,410,o),
(230,410,cs),
(278,410,o),
(300,369,o),
(300,279,c),
(328,315,l),
(105,315,l),
(105,216,l),
(416,216,l),
(418,229,o),
(419,245,o),
(419,264,cs),
(419,429,o),
(352,520,o),
(231,520,cs),
(103,520,o),
(21,418,o),
(21,257,cs),
(21,97,o),
(103,-10,o),
(225,-10,cs)
);
}
);
};
layerId = m003;
shapes = (
{
closed = 1;
nodes = (
(333,-10,o),
(394,62,o),
(411,162,c),
(289,162,l),
(282,114,o),
(264,90,o),
(230,90,cs),
(182,90,o),
(160,140,o),
(160,257,cs),
(160,372,o),
(185,420,o),
(230,420,cs),
(275,420,o),
(300,379,o),
(300,279,c),
(328,310,l),
(105,310,l),
(105,221,l),
(416,221,l),
(418,234,o),
(419,250,o),
(419,269,cs),
(419,429,o),
(352,520,o),
(231,520,cs),
(103,520,o),
(21,418,o),
(21,257,cs),
(21,97,o),
(103,-10,o),
(225,-10,cs)
);
}
);
width = 440;
},
{
anchors = (
{
name = bottom;
pos = (287,0);
},
{
name = ogonek;
pos = (435,20);
},
{
name = top;
pos = (297,510);
}
);
background = {
shapes = (
{
closed = 1;
nodes = (
(427,-10,o),
(507,50,o),
(541,149,c),
(397,149,l),
(382,123,o),
(347,108,o),
(299,108,cs),
(212,108,o),
(169,158,o),
(169,252,cs),
(169,349,o),
(214,402,o),
(296,402,cs),
(366,402,o),
(403,363,o),
(403,291,c),
(429,314,l),
(108,314,l),
(108,205,l),
(550,205,l),
(552,221,o),
(554,238,o),
(554,260,cs),
(554,418,o),
(453,520,o),
(295,520,cs),
(131,520,o),
(20,413,o),
(20,255,cs),
(20,98,o),
(130,-10,o),
(300,-10,cs)
);
}
);
};
layerId = m004;
shapes = (
{
closed = 1;
nodes = (
(427,-10,o),
(507,50,o),
(541,149,c),
(400,149,l),
(382,113,o),
(347,98,o),
(299,98,cs),
(212,98,o),
(169,148,o),
(169,252,cs),
(169,359,o),
(214,412,o),
(293,412,cs),
(361,412,o),
(403,373,o),
(403,291,c),
(429,309,l),
(108,309,l),
(108,210,l),
(550,210,l),
(552,226,o),
(554,243,o),
(554,265,cs),
(554,418,o),
(453,520,o),
(295,520,cs),
(131,520,o),
(20,413,o),
(20,255,cs),
(20,98,o),
(130,-10,o),
(300,-10,cs)
);
}
);
width = 574;
}
);
metricLeft = o;
metricRight = o;
unicode = 101;
userData = {
KernOnName = e;
};
},
{
glyphname = f;
kernLeft = KO_f;
kernRight = KO_f;
lastChange = "2023-02-08 18:45:53 +0000";
layers = (
{
background = {
shapes = (
{
closed = 1;
nodes = (
(148,0,l),
(148,620,ls),
(148,668,o),
(169,692,o),
(214,692,cs),
(226,692,o),
(235,690,o),
(241,688,c),
(241,745,l),
(233,748,o),
(223,750,o),
(207,750,cs),
(125,750,o),
(80,707,o),
(80,622,cs),
(80,0,l)
);
},
{
closed = 1;
nodes = (
(233,452,l),
(233,510,l),
(12,510,l),
(12,452,l)
);
}
);
};
layerId = m01;
shapes = (
{
closed = 1;
nodes = (
(148,0,l),
(148,612,ls),
(148,649,o),
(167,672,o),
(209,672,cs),
(223,672,o),
(235,670,o),
(241,668,c),
(241,725,l),
(233,728,o),
(223,730,o),
(197,730,cs),
(123,730,o),
(80,690,o),
(80,619,cs),
(80,0,l)
);
},
{
closed = 1;
nodes = (
(233,452,l),
(233,510,l),
(12,510,l),
(12,452,l)
);
}
);
width = 253;
},
{
background = {
shapes = (
{
closed = 1;
nodes = (
(202,0,l),
(202,582,ls),
(202,651,o),
(236,686,o),
(298,686,cs),
(315,686,o),
(328,683,o),
(337,680,c),
(337,744,l),
(326,748,o),
(313,750,o),
(292,750,cs),
(186,750,o),
(122,693,o),
(122,580,cs),
(122,0,l)
);
},
{
closed = 1;
nodes = (
(326,442,l),
(326,510,l),
(17,510,l),
(17,442,l)
);
}
);
};
guides = (
{
pos = (259,276);
}
);
layerId = m002;
shapes = (
{
closed = 1;
nodes = (
(202,0,l),
(202,578,ls),
(202,634,o),
(229,666,o),
(291,666,cs),
(310,666,o),
(328,663,o),
(337,660,c),
(337,723,l),
(326,727,o),
(312,730,o),
(286,730,cs),
(175,730,o),
(122,675,o),
(122,582,cs),
(122,0,l)
);
},
{
closed = 1;
nodes = (
(326,442,l),
(326,510,l),
(17,510,l),
(17,442,l)
);
}
);
width = 354;
},
{
background = {
shapes = (
{
closed = 1;
nodes = (
(205,0,l),
(205,562,ls),
(205,594,o),
(223,612,o),
(260,612,cs),
(271,612,o),
(280,611,o),
(287,608,c),
(287,723,l),
(271,728,o),
(255,730,o),
(232,730,cs),
(123,730,o),
(67,678,o),
(67,576,cs),
(67,0,l)
);
},
{
closed = 1;
nodes = (
(283,392,l),
(283,510,l),
(10,510,l),
(10,392,l)
);
}
);
};
guides = (
{
pos = (281,276);
}
);
layerId = m003;
shapes = (
{
closed = 1;
nodes = (
(205,0,l),
(205,572,ls),
(205,604,o),
(223,622,o),
(260,622,cs),
(271,622,o),
(280,621,o),
(287,618,c),
(287,723,l),
(271,728,o),
(255,730,o),
(232,730,cs),
(123,730,o),
(67,678,o),
(67,576,cs),
(67,0,l)
);
},
{
closed = 1;
nodes = (
(283,402,l),
(283,510,l),
(10,510,l),
(10,402,l)
);
}
);
width = 301;
},
{
background = {
shapes = (
{
closed = 1;
nodes = (
(249,0,l),
(249,532,ls),
(249,577,o),
(272,602,o),
(323,602,cs),
(341,602,o),
(354,600,o),
(364,596,c),
(364,721,l),
(344,727,o),
(325,730,o),
(297,730,cs),
(166,730,o),
(99,667,o),
(99,544,cs),
(99,0,l)
);
},
{
closed = 1;
nodes = (
(353,386,l),
(353,510,l),
(14,510,l),
(14,386,l)
);
}
);
};
guides = (
{
pos = (266,276);
}
);
layerId = m004;
shapes = (
{
closed = 1;
nodes = (
(249,0,l),
(249,542,ls),
(249,587,o),
(272,612,o),
(323,612,cs),
(341,612,o),
(354,610,o),
(364,606,c),
(364,721,l),
(344,727,o),
(325,730,o),
(297,730,cs),
(166,730,o),
(99,667,o),
(99,544,cs),
(99,0,l)
);
},
{
closed = 1;
nodes = (
(353,396,l),
(353,510,l),
(14,510,l),
(14,396,l)
);
}
);
width = 378;
}
);
unicode = 102;
userData = {
KernOnName = f;
};
},
{
glyphname = g;
kernLeft = KO_g;
lastChange = "2023-02-08 19:14:32 +0000";
layers = (
{
anchors = (
{
name = bottom;
pos = (224,-205);
},
{
name = top;
pos = (214,510);
}
);
background = {
shapes = (
{
closed = 1;
nodes = (
(316,-215,o),
(384,-154,o),
(384,-28,cs),
(384,510,l),
(324,510,l),
(324,408,l),
(331,408,l),
(324,476,o),
(275,520,o),
(208,520,cs),
(103,520,o),
(38,421,o),
(38,254,cs),
(38,94,o),
(98,0,o),
(196,0,cs),
(264,0,o),
(316,44,o),
(323,109,c),
(316,110,l),
(316,-38,ls),
(316,-124,o),
(277,-155,o),
(216,-155,cs),
(155,-155,o),
(120,-114,o),
(120,-61,c),
(58,-61,l),
(58,-152,o),
(113,-215,o),
(211,-215,cs)
);
},
{
closed = 1;
nodes = (
(144,62,o),
(108,127,o),
(108,260,cs),
(108,394,o),
(143,458,o),
(214,458,cs),
(286,458,o),
(322,393,o),
(322,260,cs),
(322,126,o),
(287,62,o),
(216,62,cs)
);
}
);
};
layerId = m01;
shapes = (
{
closed = 1;
nodes = (
(322,-215,o),
(384,-147,o),
(384,-28,cs),
(384,510,l),
(324,510,l),
(324,408,l),
(331,408,l),
(324,476,o),
(275,520,o),
(208,520,cs),
(102,520,o),
(38,420,o),
(38,254,cs),
(38,95,o),
(97,0,o),
(196,0,cs),
(264,0,o),
(316,44,o),
(323,109,c),
(316,110,l),
(316,-38,ls),
(316,-117,o),
(283,-155,o),
(216,-155,cs),
(158,-155,o),
(122,-124,o),
(120,-71,c),
(58,-71,l),
(63,-158,o),
(119,-215,o),
(213,-215,cs)
);
},
{
closed = 1;
nodes = (
(144,62,o),
(108,128,o),
(108,260,cs),
(108,393,o),
(143,458,o),
(214,458,cs),
(286,458,o),
(322,393,o),
(322,260,cs),
(322,127,o),
(287,62,o),
(216,62,cs)
);
}
);
width = 448;
},
{
anchors = (
{
name = bottom;
pos = (303,-205);
},
{
name = top;
pos = (287,510);
}
);
background = {
shapes = (
{
closed = 1;
nodes = (
(434,-215,o),
(526,-126,o),
(526,20,cs),
(526,510,l),
(451,510,l),
(451,383,l),
(460,384,l),
(439,470,o),
(371,519,o),
(275,519,cs),
(135,519,o),
(42,414,o),
(42,258,cs),
(42,104,o),
(132,0,o),
(267,0,cs),
(360,0,o),
(433,49,o),
(456,127,c),
(446,129,l),
(446,20,ls),
(446,-90,o),
(392,-147,o),
(288,-147,cs),
(200,-147,o),
(139,-108,o),
(128,-45,c),
(54,-45,l),
(64,-147,o),
(155,-215,o),
(283,-215,cs)
);
},
{
closed = 1;
nodes = (
(187,69,o),
(124,143,o),
(124,259,cs),
(124,377,o),
(186,450,o),
(287,450,cs),
(387,450,o),
(450,378,o),
(450,262,cs),
(450,143,o),
(387,69,o),
(287,69,cs)
);
}
);
};
guides = (
{
pos = (91,-60);
}
);
layerId = m002;
shapes = (
{
closed = 1;
nodes = (
(434,-215,o),
(526,-126,o),
(526,20,cs),
(526,510,l),
(451,510,l),
(451,383,l),
(460,384,l),
(439,470,o),
(371,519,o),
(275,519,cs),
(135,519,o),
(42,414,o),
(42,258,cs),
(42,104,o),
(132,0,o),
(267,0,cs),
(360,0,o),
(433,49,o),
(456,127,c),
(446,129,l),
(446,20,ls),
(446,-90,o),
(392,-147,o),
(288,-147,cs),
(200,-147,o),
(149,-114,o),
(134,-60,c),
(58,-60,l),
(75,-154,o),
(161,-215,o),
(283,-215,cs)
);
},
{
closed = 1;
nodes = (
(187,69,o),
(124,143,o),
(124,259,cs),
(124,377,o),
(186,450,o),
(287,450,cs),
(387,450,o),
(450,378,o),
(450,262,cs),
(450,143,o),
(387,69,o),
(287,69,cs)
);
}
);
width = 606;
},
{
anchors = (
{
name = bottom;
pos = (240,-205);
},
{
name = top;
pos = (235,510);
}
);
background = {
shapes = (
{
closed = 1;
nodes = (
(365,-215,o),
(435,-138,o),
(435,-2,cs),
(435,510,l),
(305,510,l),
(305,408,l),
(312,408,l),
(302,480,o),
(261,520,o),
(195,520,cs),
(91,520,o),
(25,420,o),
(25,261,cs),
(25,106,o),
(88,8,o),
(187,8,cs),
(249,8,o),
(294,50,o),
(304,117,c),
(297,117,l),
(297,-30,ls),
(297,-71,o),
(273,-97,o),
(237,-97,cs),
(201,-97,o),
(177,-72,o),
(177,-36,c),
(47,-36,l),
(47,-145,o),
(123,-215,o),
(241,-215,cs)
);
},
{
closed = 1;
nodes = (
(190,128,o),
(167,175,o),
(167,262,cs),
(167,351,o),
(191,400,o),
(235,400,cs),
(279,400,o),
(302,354,o),
(302,266,cs),
(302,177,o),
(278,128,o),
(234,128,cs)
);
}
);
};
guides = (
{
pos = (112,-46);
}
);
layerId = m003;
shapes = (
{
closed = 1;
nodes = (
(365,-215,o),
(435,-138,o),
(435,-2,cs),
(435,510,l),
(305,510,l),
(305,408,l),
(312,408,l),
(302,480,o),
(261,520,o),
(195,520,cs),
(91,520,o),
(25,420,o),
(25,261,cs),
(25,106,o),
(88,8,o),
(187,8,cs),
(249,8,o),
(294,50,o),
(304,117,c),
(297,117,l),
(297,-30,ls),
(297,-71,o),
(273,-97,o),
(237,-97,cs),
(204,-97,o),
(179,-77,o),
(177,-46,c),
(47,-46,l),
(52,-149,o),
(127,-215,o),
(241,-215,cs)
);
},
{
closed = 1;
nodes = (
(192,118,o),
(167,165,o),
(167,262,cs),
(167,361,o),
(193,410,o),
(235,410,cs),
(277,410,o),
(302,364,o),
(302,266,cs),
(302,167,o),
(276,118,o),
(234,118,cs)
);
}
);
width = 479;
},
{
anchors = (
{
name = bottom;
pos = (314,-205);
},
{
name = top;
pos = (299,510);
}
);
background = {
shapes = (
{
closed = 1;
nodes = (
(464,-215,o),
(568,-125,o),
(568,22,cs),
(568,510,l),
(421,510,l),
(421,392,l),
(428,393,l),
(417,472,o),
(353,520,o),
(257,520,cs),
(117,520,o),
(24,417,o),
(24,262,cs),
(24,108,o),
(113,8,o),
(249,8,cs),
(344,8,o),
(412,54,o),
(426,129,c),
(418,131,l),
(418,20,ls),
(418,-53,o),
(378,-87,o),
(288,-87,cs),
(233,-87,o),
(197,-74,o),
(186,-48,c),
(44,-48,l),
(60,-151,o),
(153,-215,o),
(295,-215,cs)
);
},
{
closed = 1;
nodes = (
(226,133,o),
(180,182,o),
(180,263,cs),
(180,344,o),
(226,395,o),
(299,395,cs),
(374,395,o),
(420,345,o),
(420,264,cs),
(420,183,o),
(374,133,o),
(301,133,cs)
);
}
);
};
layerId = m004;
shapes = (
{
closed = 1;
nodes = (
(464,-215,o),
(568,-125,o),
(568,22,cs),
(568,510,l),
(421,510,l),
(421,392,l),
(428,393,l),
(417,472,o),
(353,520,o),
(257,520,cs),
(117,520,o),
(24,417,o),
(24,262,cs),
(24,108,o),
(113,8,o),
(249,8,cs),
(344,8,o),
(412,54,o),
(426,129,c),
(418,131,l),
(418,20,ls),
(418,-53,o),
(378,-87,o),
(288,-87,cs),
(233,-87,o),
(197,-74,o),
(186,-48,c),
(44,-48,l),
(60,-151,o),
(153,-215,o),
(295,-215,cs)
);
},
{
closed = 1;
nodes = (
(229,123,o),
(180,172,o),
(180,263,cs),
(180,354,o),
(229,405,o),
(299,405,cs),
(371,405,o),
(420,355,o),
(420,264,cs),
(420,173,o),
(371,123,o),
(301,123,cs)
);
}
);
width = 628;
}
);
unicode = 103;
userData = {
KernOnSpecialSpacing = {
R = NoKerning;
};
};
},
{
glyphname = h;
kernRight = KO_n;
lastChange = "2023-02-08 18:50:13 +0000";
layers = (
{
anchors = (
{
name = bottom;
pos = (221,0);
},
{
name = top;
pos = (221,510);
}
);
background = {
shapes = (
{
closed = 1;
nodes = (
(382,0,l),
(382,389,ls),
(382,473,o),
(339,516,o),
(270,516,cs),
(218,516,o),
(179,498,o),
(123,443,c),
(123,385,l),
(175,436,o),
(201,454,o),
(246,454,cs),
(290,454,o),
(314,428,o),
(314,379,cs),
(314,0,l)
);
},
{
closed = 1;
nodes = (
(132,0,l),
(132,740,l),
(64,740,l),
(64,0,l)
);
}
);
};
layerId = m01;
shapes = (
{
closed = 1;
nodes = (
(132,0,l),
(132,720,l),
(64,720,l),
(64,0,l)
);
},
{
closed = 1;
nodes = (
(382,0,l),
(382,389,ls),
(382,470,o),
(337,520,o),
(263,520,cs),
(198,520,o),
(150,481,o),
(123,421,c),
(132,330,l),
(132,399,o),
(172,458,o),
(245,458,cs),
(291,458,o),
(314,433,o),
(314,373,cs),
(314,0,l)
);
}
);
width = 442;
},
{
anchors = (
{
name = bottom;
pos = (319,0);
},
{
name = top;
pos = (319,510);
}
);
background = {
shapes = (
{
closed = 1;
nodes = (
(185,0,l),
(185,740,l),
(90,740,l),
(90,0,l)
);
},
{
closed = 1;
nodes = (
(535,0,l),
(535,389,ls),
(535,470,o),
(472,520,o),
(368,520,cs),
(277,520,o),
(210,481,o),
(172,421,c),
(185,330,l),
(185,399,o),
(241,458,o),
(343,458,cs),
(407,458,o),
(440,433,o),
(440,373,cs),
(440,0,l)
);
}
);
};
guides = (
{
angle = 222.6141;
pos = (160,452);
}
);
layerId = m002;
shapes = (
{
closed = 1;
nodes = (
(160,0,l),
(160,720,l),
(80,720,l),
(80,0,l)
);
},
{
closed = 1;
nodes = (
(525,0,l),
(525,355,ls),
(525,454,o),
(454,520,o),
(348,520,cs),
(257,520,o),
(181,473,o),
(147,397,c),
(160,276,l),
(160,379,o),
(230,450,o),
(330,450,cs),
(406,450,o),
(445,411,o),
(445,334,cs),
(445,0,l)
);
}
);
width = 599;
},
{
anchors = (
{
name = bottom;
pos = (221,0);
},
{
name = top;
pos = (221,510);
}
);
background = {
shapes = (
{
closed = 1;
nodes = (
(182,0,l),
(182,720,l),
(44,720,l),
(44,0,l)
);
},
{
closed = 1;
nodes = (
(422,0,l),
(422,391,ls),
(422,472,o),
(379,520,o),
(308,520,cs),
(238,520,o),
(190,481,o),
(164,411,c),
(182,328,l),
(182,367,o),
(202,400,o),
(241,400,cs),
(269,400,o),
(284,384,o),
(284,350,cs),
(284,0,l)
);
}
);
};
guides = (
{
angle = 222.6141;
pos = (160,452);
}
);
layerId = m003;
shapes = (
{
closed = 1;
nodes = (
(182,0,l),
(182,720,l),
(44,720,l),
(44,0,l)
);
},
{
closed = 1;
nodes = (
(422,0,l),
(422,391,ls),
(422,472,o),
(379,520,o),
(308,520,cs),
(238,520,o),
(190,481,o),
(164,411,c),
(182,338,l),
(182,377,o),
(202,410,o),
(241,410,cs),
(269,410,o),
(284,394,o),
(284,360,cs),
(284,0,l)
);
}
);
width = 462;
},
{
anchors = (
{
name = bottom;
pos = (290,0);
},
{
name = top;
pos = (290,510);
}
);
background = {
shapes = (
{
closed = 1;
nodes = (
(210,0,l),
(210,720,l),
(60,720,l),
(60,0,l)
);
},
{
closed = 1;
nodes = (
(565,0,l),
(565,345,ls),
(565,452,o),
(503,520,o),
(390,520,cs),
(295,520,o),
(230,471,o),
(197,397,c),
(210,264,l),
(210,339,o),
(260,390,o),
(331,390,cs),
(386,390,o),
(415,362,o),
(415,306,cs),
(415,0,l)
);
}
);
};
guides = (
{
angle = 222.6141;
pos = (150,452);
}
);
layerId = m004;
shapes = (
{
closed = 1;
nodes = (
(210,0,l),
(210,720,l),
(60,720,l),
(60,0,l)
);
},
{
closed = 1;
nodes = (
(565,0,l),
(565,345,ls),
(565,452,o),
(503,520,o),
(390,520,cs),
(295,520,o),
(230,471,o),
(197,397,c),
(210,274,l),
(210,349,o),
(260,400,o),
(331,400,cs),
(386,400,o),
(415,372,o),
(415,316,cs),
(415,0,l)
);
}
);
width = 619;
}
);
metricLeft = n;
metricRight = n;
unicode = 104;
userData = {
KernOnSpecialSpacing = {
L = NoKerning;
};
};
},
{
glyphname = hbar;
kernRight = KO_n;
lastChange = "2023-03-04 15:45:18 +0000";
layers = (
{
layerId = m01;
shapes = (
{
ref = h;
},
{
closed = 1;
nodes = (
(267,595,l),
(267,643,l),
(0,643,l),
(0,595,l)
);
}
);
width = 442;
},
{
layerId = m002;
shapes = (
{
ref = h;
},
{
closed = 1;
nodes = (
(335,595,l),
(335,653,l),
(0,653,l),
(0,595,l)
);
}
);
width = 599;
},
{
layerId = m003;
shapes = (
{
ref = h;
},
{
closed = 1;
nodes = (
(307,578,l),
(307,671,l),
(0,671,l),
(0,578,l)
);
}
);
width = 462;
},
{
layerId = m004;
shapes = (
{
ref = h;
},
{
closed = 1;
nodes = (
(386,578,l),
(386,676,l),
(0,676,l),
(0,578,l)
);
}
);
width = 619;
}
);
unicode = 295;
},
{
glyphname = i;
kernLeft = KO_i;
kernRight = KO_i;
lastChange = "2023-03-04 15:41:46 +0000";
layers = (
{
anchors = (
{
name = bottom;
pos = (110,0);
}
);
background = {
shapes = (
{
closed = 1;
nodes = (
(130,0,l),
(130,510,l),
(62,510,l),
(62,0,l)
);
},
{
closed = 1;
nodes = (
(140,609,o),
(161,631,o),
(161,660,cs),
(161,689,o),
(140,710,o),
(112,710,cs),
(84,710,o),
(62,689,o),
(62,660,cs),
(62,631,o),
(84,609,o),
(112,609,cs)
);
}
);
};
guides = (
{
angle = 270;
pos = (77,240);
},
{
angle = 90;
pos = (145,290);
}
);
layerId = m01;
shapes = (
{
ref = idotless;
},
{
pos = (-4,0);
ref = dotaccentcomb;
}
);
width = 196;
},
{
anchors = (
{
name = bottom;
pos = (163,0);
}
);
background = {
shapes = (
{
closed = 1;
nodes = (
(191,0,l),
(191,510,l),
(96,510,l),
(96,0,l)
);
},
{
closed = 1;
nodes = (
(182,609,o),
(212,631,o),
(212,660,cs),
(212,689,o),
(182,710,o),
(143,710,cs),
(104,710,o),
(73,689,o),
(73,660,cs),
(73,631,o),
(104,609,o),
(143,609,cs)
);
}
);
};
guides = (
{
angle = 270;
pos = (85,240);
},
{
angle = 90;
pos = (153,290);
}
);
layerId = m002;
shapes = (
{
ref = idotless;
},
{
pos = (14,0);
ref = dotaccentcomb;
}
);
width = 240;
},
{
anchors = (
{
name = bottom;
pos = (86,0);
}
);
background = {
shapes = (
{
closed = 1;
nodes = (
(185,0,l),
(185,21,l),
(155,26,ls),
(127,31,o),
(121,39,o),
(121,67,cs),
(121,513,l),
(101,513,l),
(76,495,o),
(42,479,o),
(-4,471,c),
(-4,451,l),
(28,446,ls),
(48,443,o),
(53,436,o),
(53,413,cs),
(53,67,ls),
(53,38,o),
(46,29,o),
(19,25,cs),
(-11,21,l),
(-11,0,l)
);
},
{
closed = 1;
nodes = (
(116,605,o),
(137,627,o),
(137,658,cs),
(137,689,o),
(116,710,o),
(88,710,cs),
(60,710,o),
(38,689,o),
(38,658,cs),
(38,627,o),
(60,605,o),
(88,605,cs)
);
}
);
};
guides = (
{
angle = 270;
pos = (53,240);
},
{
angle = 90;
pos = (121,290);
}
);
layerId = m003;
shapes = (
{
ref = idotless;
},
{
pos = (-19,0);
ref = dotaccentcomb;
}
);
width = 226;
},
{
anchors = (
{
name = bottom;
pos = (134,0);
}
);
background = {
shapes = (
{
closed = 1;
nodes = (
(182,0,l),
(182,510,l),
(102,510,l),
(102,0,l)
);
},
{
closed = 1;
nodes = (
(174,607,o),
(198,632,o),
(198,664,cs),
(198,697,o),
(174,720,o),
(143,720,cs),
(112,720,o),
(87,697,o),
(87,664,cs),
(87,632,o),
(112,607,o),
(143,607,cs)
);
}
);
};
guides = (
{
angle = 270;
pos = (101,240);
},
{
angle = 90;
pos = (169,290);
}
);
layerId = m004;
shapes = (
{
ref = idotless;
},
{
pos = (-5,0);
ref = dotaccentcomb;
}
);
width = 270;
}
);
unicode = 105;
userData = {
KernOnName = i;
};
},
{
glyphname = idotless;
kernLeft = KO_idotless;
kernRight = KO_u;
lastChange = "2023-02-08 18:51:12 +0000";
layers = (
{
anchors = (
{
name = bottom;
pos = (98,0);
},
{
name = ogonek;
pos = (132,0);
},
{
name = top;
pos = (98,510);
}
);
layerId = m01;
shapes = (
{
closed = 1;
nodes = (
(132,0,l),
(132,510,l),
(64,510,l),
(64,0,l)
);
}
);
width = 196;
},
{
anchors = (
{
name = bottom;
pos = (120,0);
},
{
name = ogonek;
pos = (160,0);
},
{
name = top;
pos = (120,510);
}
);
layerId = m002;
shapes = (
{
closed = 1;
nodes = (
(160,0,l),
(160,510,l),
(80,510,l),
(80,0,l)
);
}
);
width = 240;
},
{
anchors = (
{
name = bottom;
pos = (113,0);
},
{
name = ogonek;
pos = (182,0);
},
{
name = top;
pos = (113,510);
}
);
layerId = m003;
shapes = (
{
closed = 1;
nodes = (
(182,0,l),
(182,510,l),
(44,510,l),
(44,0,l)
);
}
);
width = 226;
},
{
anchors = (
{
name = bottom;
pos = (135,0);
},
{
name = ogonek;
pos = (210,0);
},
{
name = top;
pos = (135,510);
}
);
layerId = m004;
shapes = (
{
closed = 1;
nodes = (
(210,0,l),
(210,510,l),
(60,510,l),
(60,0,l)
);
}
);
width = 270;
}
);
metricRight = "=|";
unicode = 305;
},
{
glyphname = j;
kernLeft = KO_j;
kernRight = KO_j;
lastChange = "2023-03-04 15:41:46 +0000";
layers = (
{
layerId = m01;
shapes = (
{
ref = jdotless;
},
{
pos = (-4,0);
ref = dotaccentcomb;
}
);
width = 196;
},
{
layerId = m002;
shapes = (
{
ref = jdotless;
},
{
pos = (14,0);
ref = dotaccentcomb;
}
);
width = 240;
},
{
background = {
shapes = (
{
closed = 1;
nodes = (
(133,-215,o),
(182,-168,o),
(182,-84,cs),
(182,510,l),
(44,510,l),
(44,-64,ls),
(44,-88,o),
(28,-97,o),
(7,-97,cs),
(-4,-97,o),
(-13,-96,o),
(-20,-93,c),
(-20,-208,l),
(-4,-213,o),
(12,-215,o),
(35,-215,cs)
);
},
{
closed = 1;
nodes = (
(162,580,o),
(199,618,o),
(199,669,cs),
(199,719,o),
(162,755,o),
(113,755,cs),
(65,755,o),
(27,719,o),
(27,669,cs),
(27,618,o),
(65,580,o),
(113,580,cs)
);
}
);
};
layerId = m003;
shapes = (
{
ref = jdotless;
},
{
pos = (-19,0);
ref = dotaccentcomb;
}
);
width = 226;
},
{
background = {
shapes = (
{
closed = 1;
nodes = (
(153,-215,o),
(210,-152,o),
(210,-49,cs),
(210,510,l),
(60,510,l),
(60,-37,ls),
(60,-70,o),
(40,-87,o),
(6,-87,cs),
(-7,-87,o),
(-20,-85,o),
(-30,-81,c),
(-30,-206,l),
(-10,-212,o),
(9,-215,o),
(32,-215,cs)
);
},
{
closed = 1;
nodes = (
(188,562,o),
(230,605,o),
(230,658,cs),
(230,716,o),
(188,755,o),
(137,755,cs),
(84,755,o),
(40,716,o),
(40,658,cs),
(40,605,o),
(84,562,o),
(137,562,cs)
);
}
);
};
layerId = m004;
shapes = (
{
ref = jdotless;
},
{
pos = (-5,0);
ref = dotaccentcomb;
}
);
width = 270;
}
);
unicode = 106;
userData = {
KernOnName = j;
};
},
{
glyphname = jdotless;
lastChange = "2023-02-08 19:22:10 +0000";
layers = (
{
anchors = (
{
name = bottom;
pos = (98,-205);
},
{
name = top;
pos = (98,510);
}
);
layerId = m01;
shapes = (
{
closed = 1;
nodes = (
(94,-215,o),
(132,-174,o),
(132,-118,cs),
(132,510,l),
(64,510,l),
(64,-114,ls),
(64,-144,o),
(47,-157,o),
(13,-157,cs),
(-1,-157,o),
(-13,-155,o),
(-19,-153,c),
(-19,-210,l),
(-11,-213,o),
(-1,-215,o),
(25,-215,cs)
);
}
);
width = 196;
},
{
anchors = (
{
name = bottom;
pos = (120,-205);
},
{
name = top;
pos = (120,510);
}
);
layerId = m002;
shapes = (
{
closed = 1;
nodes = (
(117,-215,o),
(160,-170,o),
(160,-87,cs),
(160,510,l),
(80,510,l),
(80,-83,ls),
(80,-129,o),
(63,-151,o),
(11,-151,cs),
(-8,-151,o),
(-26,-148,o),
(-35,-145,c),
(-35,-208,l),
(-24,-212,o),
(-10,-215,o),
(16,-215,cs)
);
}
);
width = 240;
},
{
anchors = (
{
name = bottom;
pos = (113,-205);
},
{
name = top;
pos = (113,510);
}
);
background = {
shapes = (
{
closed = 1;
nodes = (
(133,-215,o),
(182,-168,o),
(182,-84,cs),
(182,510,l),
(44,510,l),
(44,-64,ls),
(44,-88,o),
(28,-97,o),
(7,-97,cs),
(-4,-97,o),
(-13,-96,o),
(-20,-93,c),
(-20,-208,l),
(-4,-213,o),
(12,-215,o),
(35,-215,cs)
);
}
);
};
layerId = m003;
shapes = (
{
closed = 1;
nodes = (
(133,-215,o),
(182,-168,o),
(182,-84,cs),
(182,510,l),
(44,510,l),
(44,-74,ls),
(44,-98,o),
(28,-107,o),
(7,-107,cs),
(-4,-107,o),
(-13,-106,o),
(-20,-103,c),
(-20,-208,l),
(-4,-213,o),
(12,-215,o),
(35,-215,cs)
);
}
);
width = 226;
},
{
anchors = (
{
name = bottom;
pos = (135,-205);
},
{
name = top;
pos = (135,510);
}
);
background = {
shapes = (
{
closed = 1;
nodes = (
(153,-215,o),
(210,-152,o),
(210,-49,cs),
(210,510,l),
(60,510,l),
(60,-37,ls),
(60,-70,o),
(40,-87,o),
(6,-87,cs),
(-7,-87,o),
(-20,-85,o),
(-30,-81,c),
(-30,-206,l),
(-10,-212,o),
(9,-215,o),
(32,-215,cs)
);
}
);
};
layerId = m004;
shapes = (
{
closed = 1;
nodes = (
(153,-215,o),
(210,-152,o),
(210,-49,cs),
(210,510,l),
(60,510,l),
(60,-47,ls),
(60,-80,o),
(40,-97,o),
(6,-97,cs),
(-7,-97,o),
(-20,-95,o),
(-30,-91,c),
(-30,-206,l),
(-10,-212,o),
(9,-215,o),
(32,-215,cs)
);
}
);
width = 270;
}
);
metricRight = idotless;
unicode = 567;
},
{
glyphname = k;
kernRight = KO_k;
lastChange = "2023-02-08 19:28:42 +0000";
layers = (
{
anchors = (
{
name = bottom;
pos = (220,0);
},
{
name = top;
pos = (200,740);
}
);
background = {
shapes = (
{
ref = h;
}
);
};
layerId = m01;
shapes = (
{
closed = 1;
nodes = (
(132,0,l),
(132,720,l),
(64,720,l),
(64,0,l)
);
},
{
closed = 1;
nodes = (
(387,0,l),
(179,289,l),
(180,246,l),
(377,510,l),
(300,510,l),
(120,265,l),
(308,0,l)
);
}
);
width = 399;
},
{
anchors = (
{
name = bottom;
pos = (288,0);
},
{
name = top;
pos = (268,740);
}
);
background = {
shapes = (
{
closed = 1;
nodes = (
(160,0,l),
(160,740,l),
(80,740,l),
(80,0,l)
);
},
{
closed = 1;
nodes = (
(523,0,l),
(245,265,l),
(142,265,l),
(411,0,l)
);
},
{
closed = 1;
nodes = (
(245,265,l),
(513,510,l),
(403,510,l),
(142,265,l)
);
}
);
};
guides = (
{
angle = 132.4484;
pos = (367,376);
showMeasurement = 1;
}
);
layerId = m002;
shapes = (
{
closed = 1;
nodes = (
(160,0,l),
(160,740,l),
(80,740,l),
(80,0,l)
);
},
{
closed = 1;
nodes = (
(523,0,l),
(225,289,l),
(220,242,l),
(513,510,l),
(403,510,l),
(142,265,l),
(413,0,l)
);
}
);
width = 535;
},
{
anchors = (
{
name = bottom;
pos = (230,0);
},
{
name = top;
pos = (220,740);
}
);
background = {
shapes = (
{
closed = 1;
nodes = (
(182,0,l),
(182,720,l),
(44,720,l),
(44,0,l)
);
},
{
closed = 1;
nodes = (
(429,0,l),
(298,289,l),
(296,242,l),
(419,510,l),
(277,510,l),
(171,265,l),
(283,0,l)
);
}
);
};
guides = (
{
angle = 26.0073;
pos = (359,145);
showMeasurement = 1;
},
{
angle = -26.3938;
pos = (353,376);
showMeasurement = 1;
}
);
layerId = m003;
shapes = (
{
closed = 1;
nodes = (
(182,0,l),
(182,720,l),
(44,720,l),
(44,0,l)
);
},
{
closed = 1;
nodes = (
(429,0,l),
(288,289,l),
(286,242,l),
(419,510,l),
(277,510,l),
(171,265,l),
(283,0,l)
);
}
);
width = 439;
},
{
anchors = (
{
name = bottom;
pos = (285,0);
},
{
name = top;
pos = (285,740);
}
);
background = {
shapes = (
{
closed = 1;
nodes = (
(210,0,l),
(210,720,l),
(60,720,l),
(60,0,l)
);
},
{
closed = 1;
nodes = (
(565,0,l),
(329,289,l),
(322,242,l),
(555,510,l),
(382,510,l),
(175,265,l),
(387,0,l)
);
}
);
};
guides = (
{
angle = 40.4048;
pos = (442,145);
showMeasurement = 1;
},
{
angle = -42.1991;
pos = (434,376);
showMeasurement = 1;
}
);
layerId = m004;
shapes = (
{
closed = 1;
nodes = (
(210,0,l),
(210,720,l),
(60,720,l),
(60,0,l)
);
},
{
closed = 1;
nodes = (
(565,0,l),
(319,289,l),
(312,242,l),
(555,510,l),
(382,510,l),
(175,265,l),
(387,0,l)
);
}
);
width = 569;
}
);
unicode = 107;
userData = {
KernOnName = k;
KernOnSpecialSpacing = {
L = NoKerning;
};
};
},
{
glyphname = l;
lastChange = "2023-02-08 18:51:45 +0000";
layers = (
{
anchors = (
{
name = bottom;
pos = (98,0);
},
{
name = center;
pos = (98,370);
},
{
name = top;
pos = (98,720);
},
{
name = topright;
pos = (182,720);
}
);
background = {
shapes = (
{
closed = 1;
nodes = (
(206,0,l),
(206,21,l),
(176,26,ls),
(148,31,o),
(142,39,o),
(142,67,cs),
(142,740,l),
(122,740,l),
(97,722,o),
(64,707,o),
(17,698,c),
(17,678,l),
(49,673,ls),
(68,670,o),
(74,664,o),
(74,640,cs),
(74,67,ls),
(74,39,o),
(68,29,o),
(40,25,cs),
(10,21,l),
(10,0,l)
);
}
);
};
layerId = m01;
shapes = (
{
closed = 1;
nodes = (
(132,0,l),
(132,720,l),
(64,720,l),
(64,0,l)
);
}
);
width = 196;
},
{
anchors = (
{
name = bottom;
pos = (120,0);
},
{
name = center;
pos = (120,370);
},
{
name = top;
pos = (120,720);
},
{
name = topright;
pos = (230,720);
}
);
background = {
shapes = (
{
closed = 1;
nodes = (
(206,0,l),
(206,21,l),
(176,26,ls),
(148,31,o),
(142,39,o),
(142,67,cs),
(142,740,l),
(122,740,l),
(97,722,o),
(64,707,o),
(17,698,c),
(17,678,l),
(49,673,ls),
(68,670,o),
(74,664,o),
(74,640,cs),
(74,67,ls),
(74,39,o),
(68,29,o),
(40,25,cs),
(10,21,l),
(10,0,l)
);
}
);
};
layerId = m002;
shapes = (
{
closed = 1;
nodes = (
(160,0,l),
(160,720,l),
(80,720,l),
(80,0,l)
);
}
);
width = 240;
},
{
anchors = (
{
name = bottom;
pos = (113,0);
},
{
name = center;
pos = (113,370);
},
{
name = top;
pos = (113,720);
},
{
name = topright;
pos = (226,720);
}
);
background = {
shapes = (
{
closed = 1;
nodes = (
(206,0,l),
(206,21,l),
(176,26,ls),
(148,31,o),
(142,39,o),
(142,67,cs),
(142,740,l),
(122,740,l),
(97,722,o),
(64,707,o),
(17,698,c),
(17,678,l),
(49,673,ls),
(68,670,o),
(74,664,o),
(74,640,cs),
(74,67,ls),
(74,39,o),
(68,29,o),
(40,25,cs),
(10,21,l),
(10,0,l)
);
}
);
};
layerId = m003;
shapes = (
{
closed = 1;
nodes = (
(182,0,l),
(182,720,l),
(44,720,l),
(44,0,l)
);
}
);
width = 226;
},
{
anchors = (
{
name = bottom;
pos = (135,0);
},
{
name = center;
pos = (135,370);
},
{
name = top;
pos = (135,720);
},
{
name = topright;
pos = (260,720);
}
);
background = {
shapes = (
{
closed = 1;
nodes = (
(206,0,l),
(206,21,l),
(176,26,ls),
(148,31,o),
(142,39,o),
(142,67,cs),
(142,740,l),
(122,740,l),
(97,722,o),
(64,707,o),
(17,698,c),
(17,678,l),
(49,673,ls),
(68,670,o),
(74,664,o),
(74,640,cs),
(74,67,ls),
(74,39,o),
(68,29,o),
(40,25,cs),
(10,21,l),
(10,0,l)
);
}
);
};
layerId = m004;
shapes = (
{
closed = 1;
nodes = (
(210,0,l),
(210,720,l),
(60,720,l),
(60,0,l)
);
}
);
width = 270;
}
);
unicode = 108;
userData = {
KernOnSpecialSpacing = {
L = NoKerning;
R = NoKerning;
};
};
},
{
glyphname = lslash;
lastChange = "2023-03-04 15:46:48 +0000";
layers = (
{
layerId = m01;
shapes = (
{
ref = l;
},
{
closed = 1;
nodes = (
(99,408,l),
(-1,356,l),
(-1,302,l),
(100,355,l)
);
},
{
closed = 1;
nodes = (
(100,359,l),
(197,410,l),
(197,464,l),
(99,412,l)
);
}
);
width = 196;
},
{
background = {
shapes = (
{
closed = 1;
nodes = (
(131,408,l),
(0,356,l),
(0,292,l),
(133,345,l)
);
},
{
closed = 1;
nodes = (
(133,349,l),
(260,400,l),
(260,464,l),
(131,412,l)
);
}
);
};
layerId = m002;
shapes = (
{
pos = (10,0);
ref = l;
},
{
closed = 1;
nodes = (
(131,408,l),
(0,356,l),
(0,292,l),
(133,345,l)
);
},
{
closed = 1;
nodes = (
(133,349,l),
(260,400,l),
(260,464,l),
(131,412,l)
);
}
);
width = 260;
},
{
layerId = m003;
shapes = (
{
pos = (20,0);
ref = l;
},
{
closed = 1;
nodes = (
(138,425,l),
(10,363,l),
(10,268,l),
(138,330,l)
);
},
{
closed = 1;
nodes = (
(138,340,l),
(256,398,l),
(256,493,l),
(138,435,l)
);
}
);
width = 266;
},
{
layerId = m004;
shapes = (
{
pos = (20,0);
ref = l;
},
{
closed = 1;
nodes = (
(161,428,l),
(10,366,l),
(10,268,l),
(161,330,l)
);
},
{
closed = 1;
nodes = (
(161,340,l),
(300,398,l),
(300,496,l),
(161,438,l)
);
}
);
width = 310;
}
);
unicode = 322;
},
{
glyphname = m;
kernRight = KO_n;
lastChange = "2023-02-08 19:33:15 +0000";
layers = (
{
background = {
shapes = (
{
closed = 1;
nodes = (
(374,0,l),
(374,427,l),
(369,427,l),
(357,488,o),
(319,516,o),
(270,516,cs),
(218,516,o),
(179,498,o),
(123,443,c),
(123,385,l),
(175,436,o),
(201,454,o),
(245,454,cs),
(282,454,o),
(306,434,o),
(306,385,cs),
(306,0,l)
);
},
{
closed = 1;
nodes = (
(132,0,l),
(132,442,l),
(124,442,l),
(112,510,l),
(64,510,l),
(64,0,l)
);
},
{
closed = 1;
nodes = (
(616,0,l),
(616,395,ls),
(616,479,o),
(573,516,o),
(512,516,cs),
(460,516,o),
(421,498,o),
(356,435,c),
(365,385,l),
(417,436,o),
(443,454,o),
(487,454,cs),
(524,454,o),
(548,434,o),
(548,385,cs),
(548,0,l)
);
}
);
};
layerId = m01;
shapes = (
{
closed = 1;
nodes = (
(132,0,l),
(132,414,l),
(127,414,l),
(127,510,l),
(64,510,l),
(64,0,l)
);
},
{
closed = 1;
nodes = (
(374,0,l),
(374,389,ls),
(374,470,o),
(329,520,o),
(259,520,cs),
(198,520,o),
(150,481,o),
(123,421,c),
(132,330,l),
(132,401,o),
(175,458,o),
(241,458,cs),
(283,458,o),
(306,433,o),
(306,383,cs),
(306,0,l)
);
},
{
closed = 1;
nodes = (
(616,0,l),
(616,389,ls),
(616,470,o),
(566,520,o),
(496,520,cs),
(435,520,o),
(387,485,o),
(355,425,c),
(374,330,l),
(374,405,o),
(417,458,o),
(483,458,cs),
(525,458,o),
(548,433,o),
(548,383,cs),
(548,0,l)
);
}
);
width = 676;
},
{
background = {
shapes = (
{
closed = 1;
nodes = (
(175,0,l),
(175,414,l),
(168,414,l),
(168,510,l),
(80,510,l),
(80,0,l)
);
},
{
closed = 1;
nodes = (
(514,0,l),
(514,389,ls),
(514,470,o),
(451,520,o),
(353,520,cs),
(267,520,o),
(200,481,o),
(162,421,c),
(175,330,l),
(175,401,o),
(235,458,o),
(327,458,cs),
(386,458,o),
(418,433,o),
(418,383,cs),
(418,0,l)
);
},
{
closed = 1;
nodes = (
(852,0,l),
(852,389,ls),
(852,470,o),
(782,520,o),
(684,520,cs),
(599,520,o),
(532,485,o),
(487,425,c),
(514,330,l),
(514,405,o),
(574,458,o),
(666,458,cs),
(725,458,o),
(757,433,o),
(757,383,cs),
(757,0,l)
);
}
);
};
layerId = m002;
shapes = (
{
closed = 1;
nodes = (
(160,0,l),
(160,390,l),
(155,390,l),
(155,510,l),
(80,510,l),
(80,0,l)
);
},
{
closed = 1;
nodes = (
(504,0,l),
(504,359,ls),
(504,458,o),
(436,520,o),
(338,520,cs),
(257,520,o),
(181,473,o),
(147,397,c),
(160,276,l),
(160,379,o),
(230,450,o),
(323,450,cs),
(388,450,o),
(424,415,o),
(424,338,cs),
(424,0,l)
);
},
{
closed = 1;
nodes = (
(848,0,l),
(848,359,ls),
(848,458,o),
(778,520,o),
(680,520,cs),
(597,520,o),
(518,473,o),
(484,397,c),
(504,276,l),
(504,379,o),
(574,450,o),
(667,450,cs),
(732,450,o),
(768,415,o),
(768,338,cs),
(768,0,l)
);
}
);
width = 922;
},
{
background = {
shapes = (
{
closed = 1;
nodes = (
(182,0,l),
(182,414,l),
(177,414,l),
(177,510,l),
(44,510,l),
(44,0,l)
);
},
{
closed = 1;
nodes = (
(411,0,l),
(411,391,ls),
(411,472,o),
(368,520,o),
(303,520,cs),
(238,520,o),
(190,488,o),
(164,411,c),
(182,328,l),
(182,372,o),
(202,400,o),
(236,400,cs),
(261,400,o),
(273,384,o),
(273,350,cs),
(273,0,l)
);
},
{
closed = 1;
nodes = (
(640,0,l),
(640,391,ls),
(640,472,o),
(597,520,o),
(532,520,cs),
(467,520,o),
(419,488,o),
(393,411,c),
(411,328,l),
(411,372,o),
(431,400,o),
(465,400,cs),
(490,400,o),
(502,384,o),
(502,350,cs),
(502,0,l)
);
}
);
};
layerId = m003;
shapes = (
{
closed = 1;
nodes = (
(182,0,l),
(182,414,l),
(177,414,l),
(177,510,l),
(44,510,l),
(44,0,l)
);
},
{
closed = 1;
nodes = (
(411,0,l),
(411,391,ls),
(411,472,o),
(368,520,o),
(303,520,cs),
(238,520,o),
(190,488,o),
(164,411,c),
(182,338,l),
(182,382,o),
(202,410,o),
(236,410,cs),
(261,410,o),
(273,394,o),
(273,360,cs),
(273,0,l)
);
},
{
closed = 1;
nodes = (
(640,0,l),
(640,391,ls),
(640,472,o),
(597,520,o),
(532,520,cs),
(467,520,o),
(419,488,o),
(393,411,c),
(411,338,l),
(411,382,o),
(431,410,o),
(465,410,cs),
(490,410,o),
(502,394,o),
(502,360,cs),
(502,0,l)
);
}
);
width = 680;
},
{
background = {
shapes = (
{
closed = 1;
nodes = (
(210,0,l),
(210,390,l),
(207,390,l),
(207,510,l),
(60,510,l),
(60,0,l)
);
},
{
closed = 1;
nodes = (
(553,0,l),
(553,362,ls),
(553,452,o),
(491,520,o),
(384,520,cs),
(295,520,o),
(230,471,o),
(197,397,c),
(210,272,l),
(210,343,o),
(260,390,o),
(325,390,cs),
(374,390,o),
(403,366,o),
(403,314,cs),
(403,0,l)
);
},
{
closed = 1;
nodes = (
(896,0,l),
(896,352,ls),
(896,452,o),
(834,520,o),
(724,520,cs),
(630,520,o),
(563,471,o),
(530,397,c),
(553,272,l),
(553,343,o),
(603,390,o),
(668,390,cs),
(717,390,o),
(746,366,o),
(746,314,cs),
(746,0,l)
);
}
);
};
layerId = m004;
shapes = (
{
closed = 1;
nodes = (
(210,0,l),
(210,390,l),
(207,390,l),
(207,510,l),
(60,510,l),
(60,0,l)
);
},
{
closed = 1;
nodes = (
(553,0,l),
(553,362,ls),
(553,452,o),
(491,520,o),
(384,520,cs),
(295,520,o),
(230,471,o),
(197,397,c),
(210,282,l),
(210,353,o),
(260,400,o),
(325,400,cs),
(374,400,o),
(403,376,o),
(403,324,cs),
(403,0,l)
);
},
{
closed = 1;
nodes = (
(896,0,l),
(896,352,ls),
(896,452,o),
(834,520,o),
(724,520,cs),
(630,520,o),
(563,471,o),
(530,397,c),
(553,282,l),
(553,353,o),
(603,400,o),
(668,400,cs),
(717,400,o),
(746,376,o),
(746,324,cs),
(746,0,l)
);
}
);
width = 950;
}
);
metricLeft = n;
metricRight = n;
unicode = 109;
userData = {
KernOnSpecialSpacing = {
L = NoKerning;
};
};
},
{
glyphname = n;
kernRight = KO_n;
lastChange = "2023-02-09 19:11:44 +0000";
layers = (
{
anchors = (
{
name = bottom;
pos = (221,0);
},
{
name = top;
pos = (235,510);
}
);
background = {
shapes = (
{
closed = 1;
nodes = (
(382,0,l),
(382,389,ls),
(382,473,o),
(339,516,o),
(270,516,cs),
(218,516,o),
(179,498,o),
(123,443,c),
(123,385,l),
(175,436,o),
(201,454,o),
(246,454,cs),
(290,454,o),
(314,428,o),
(314,379,cs),
(314,0,l)
);
},
{
closed = 1;
nodes = (
(132,0,l),
(132,441,l),
(124,441,l),
(112,510,l),
(64,510,l),
(64,0,l)
);
}
);
};
layerId = m01;
shapes = (
{
closed = 1;
nodes = (
(132,0,l),
(132,414,l),
(127,414,l),
(127,510,l),
(64,510,l),
(64,0,l)
);
},
{
closed = 1;
nodes = (
(382,0,l),
(382,389,ls),
(382,470,o),
(337,520,o),
(263,520,cs),
(198,520,o),
(150,481,o),
(123,421,c),
(132,330,l),
(132,399,o),
(172,458,o),
(245,458,cs),
(291,458,o),
(314,433,o),
(314,373,cs),
(314,0,l)
);
}
);
width = 442;
},
{
anchors = (
{
name = bottom;
pos = (316,0);
},
{
name = top;
pos = (330,510);
}
);
background = {
shapes = (
{
closed = 0;
nodes = (
(525,358,ls),
(525,458,o),
(459,520,o),
(350,520,cs),
(255,520,o),
(185,472,o),
(145,398,c)
);
},
{
closed = 0;
nodes = (
(160,284,l),
(160,378,o),
(222,458,o),
(336,458,cs),
(408,458,o),
(445,424,o),
(445,342,cs)
);
}
);
};
layerId = m002;
shapes = (
{
closed = 1;
nodes = (
(160,0,l),
(160,390,l),
(155,390,l),
(155,510,l),
(80,510,l),
(80,0,l)
);
},
{
closed = 1;
nodes = (
(525,0,l),
(525,355,ls),
(525,454,o),
(454,520,o),
(348,520,cs),
(257,520,o),
(181,473,o),
(147,397,c),
(160,276,l),
(160,379,o),
(230,450,o),
(330,450,cs),
(406,450,o),
(445,411,o),
(445,334,cs),
(445,0,l)
);
}
);
width = 599;
},
{
anchors = (
{
name = bottom;
pos = (235,0);
},
{
name = top;
pos = (245,510);
}
);
background = {
shapes = (
{
closed = 1;
nodes = (
(182,0,l),
(182,414,l),
(177,414,l),
(177,510,l),
(44,510,l),
(44,0,l)
);
},
{
closed = 1;
nodes = (
(422,0,l),
(422,391,ls),
(422,472,o),
(379,520,o),
(308,520,cs),
(238,520,o),
(190,481,o),
(164,411,c),
(182,328,l),
(182,367,o),
(202,400,o),
(241,400,cs),
(269,400,o),
(284,384,o),
(284,350,cs),
(284,0,l)
);
}
);
};
layerId = m003;
shapes = (
{
closed = 1;
nodes = (
(182,0,l),
(182,414,l),
(177,414,l),
(177,510,l),
(44,510,l),
(44,0,l)
);
},
{
closed = 1;
nodes = (
(422,0,l),
(422,391,ls),
(422,472,o),
(379,520,o),
(308,520,cs),
(238,520,o),
(190,481,o),
(164,411,c),
(182,338,l),
(182,377,o),
(202,410,o),
(241,410,cs),
(269,410,o),
(284,394,o),
(284,360,cs),
(284,0,l)
);
}
);
width = 462;
},
{
anchors = (
{
name = bottom;
pos = (318,0);
},
{
name = top;
pos = (331,510);
}
);
background = {
shapes = (
{
closed = 1;
nodes = (
(210,0,l),
(210,390,l),
(207,390,l),
(207,510,l),
(60,510,l),
(60,0,l)
);
},
{
closed = 1;
nodes = (
(565,0,l),
(565,345,ls),
(565,452,o),
(503,520,o),
(390,520,cs),
(295,520,o),
(230,471,o),
(197,397,c),
(210,264,l),
(210,339,o),
(260,390,o),
(331,390,cs),
(386,390,o),
(415,362,o),
(415,306,cs),
(415,0,l)
);
}
);
};
layerId = m004;
shapes = (
{
closed = 1;
nodes = (
(210,0,l),
(210,390,l),
(207,390,l),
(207,510,l),
(60,510,l),
(60,0,l)
);
},
{
closed = 1;
nodes = (
(565,0,l),
(565,345,ls),
(565,452,o),
(503,520,o),
(390,520,cs),
(295,520,o),
(230,471,o),
(197,397,c),
(210,274,l),
(210,349,o),
(260,400,o),
(331,400,cs),
(386,400,o),
(415,372,o),
(415,316,cs),
(415,0,l)
);
}
);
width = 619;
}
);
unicode = 110;
userData = {
KernOnName = n;
KernOnSpecialSpacing = {
L = NoKerning;
};
};
},
{
glyphname = eng;
kernLeft = KO_idotless;
kernRight = KO_n;
lastChange = "2023-02-08 19:38:43 +0000";
layers = (
{
layerId = m01;
shapes = (
{
closed = 1;
nodes = (
(344,-215,o),
(382,-174,o),
(382,-118,cs),
(382,389,ls),
(382,470,o),
(337,520,o),
(263,520,cs),
(198,520,o),
(150,481,o),
(123,421,c),
(132,330,l),
(132,399,o),
(172,458,o),
(245,458,cs),
(291,458,o),
(314,433,o),
(314,373,cs),
(314,-114,ls),
(314,-144,o),
(297,-157,o),
(263,-157,cs),
(249,-157,o),
(237,-155,o),
(231,-153,c),
(231,-210,l),
(239,-213,o),
(249,-215,o),
(275,-215,cs)
);
},
{
closed = 1;
nodes = (
(132,0,l),
(132,414,l),
(127,414,l),
(127,510,l),
(64,510,l),
(64,0,l)
);
}
);
width = 442;
},
{
background = {
shapes = (
{
closed = 1;
nodes = (
(160,0,l),
(160,390,l),
(155,390,l),
(155,510,l),
(80,510,l),
(80,0,l)
);
},
{
closed = 1;
nodes = (
(525,0,l),
(525,355,ls),
(525,454,o),
(454,520,o),
(348,520,cs),
(257,520,o),
(181,473,o),
(147,397,c),
(160,276,l),
(160,379,o),
(230,450,o),
(330,450,cs),
(406,450,o),
(445,411,o),
(445,334,cs),
(445,0,l)
);
}
);
};
layerId = m002;
shapes = (
{
closed = 1;
nodes = (
(482,-215,o),
(525,-170,o),
(525,-87,cs),
(525,355,ls),
(525,454,o),
(454,520,o),
(348,520,cs),
(257,520,o),
(181,473,o),
(147,397,c),
(160,276,l),
(160,379,o),
(230,450,o),
(330,450,cs),
(406,450,o),
(445,411,o),
(445,334,cs),
(445,-83,ls),
(445,-129,o),
(428,-151,o),
(376,-151,cs),
(357,-151,o),
(339,-148,o),
(330,-145,c),
(330,-208,l),
(341,-212,o),
(355,-215,o),
(381,-215,cs)
);
},
{
closed = 1;
nodes = (
(160,0,l),
(160,390,l),
(155,390,l),
(155,510,l),
(80,510,l),
(80,0,l)
);
}
);
width = 599;
},
{
background = {
shapes = (
{
closed = 1;
nodes = (
(373,-215,o),
(422,-168,o),
(422,-84,cs),
(422,391,ls),
(422,472,o),
(379,520,o),
(308,520,cs),
(238,520,o),
(190,481,o),
(164,411,c),
(182,328,l),
(182,367,o),
(202,400,o),
(241,400,cs),
(269,400,o),
(284,384,o),
(284,350,cs),
(284,-64,ls),
(284,-88,o),
(268,-97,o),
(247,-97,cs),
(236,-97,o),
(227,-96,o),
(220,-93,c),
(220,-208,l),
(236,-213,o),
(252,-215,o),
(275,-215,cs)
);
},
{
closed = 1;
nodes = (
(182,0,l),
(182,414,l),
(177,414,l),
(177,510,l),
(44,510,l),
(44,0,l)
);
}
);
};
layerId = m003;
shapes = (
{
closed = 1;
nodes = (
(373,-215,o),
(422,-168,o),
(422,-84,cs),
(422,391,ls),
(422,472,o),
(379,520,o),
(308,520,cs),
(238,520,o),
(190,481,o),
(164,411,c),
(182,338,l),
(182,377,o),
(202,410,o),
(241,410,cs),
(269,410,o),
(284,394,o),
(284,360,cs),
(284,-74,ls),
(284,-98,o),
(268,-107,o),
(247,-107,cs),
(236,-107,o),
(227,-106,o),
(220,-103,c),
(220,-208,l),
(236,-213,o),
(252,-215,o),
(275,-215,cs)
);
},
{
closed = 1;
nodes = (
(182,0,l),
(182,414,l),
(177,414,l),
(177,510,l),
(44,510,l),
(44,0,l)
);
}
);
width = 462;
},
{
background = {
shapes = (
{
closed = 1;
nodes = (
(508,-215,o),
(565,-152,o),
(565,-49,cs),
(565,345,ls),
(565,452,o),
(503,520,o),
(390,520,cs),
(295,520,o),
(230,471,o),
(197,397,c),
(210,264,l),
(210,339,o),
(260,390,o),
(331,390,cs),
(386,390,o),
(415,362,o),
(415,306,cs),
(415,-37,ls),
(415,-70,o),
(395,-87,o),
(361,-87,cs),
(348,-87,o),
(335,-85,o),
(325,-81,c),
(325,-206,l),
(345,-212,o),
(364,-215,o),
(387,-215,cs)
);
},
{
closed = 1;
nodes = (
(210,0,l),
(210,390,l),
(207,390,l),
(207,510,l),
(60,510,l),
(60,0,l)
);
}
);
};
layerId = m004;
shapes = (
{
closed = 1;
nodes = (
(508,-215,o),
(565,-152,o),
(565,-49,cs),
(565,345,ls),
(565,452,o),
(503,520,o),
(390,520,cs),
(295,520,o),
(230,471,o),
(197,397,c),
(210,274,l),
(210,349,o),
(260,400,o),
(331,400,cs),
(386,400,o),
(415,372,o),
(415,316,cs),
(415,-47,ls),
(415,-80,o),
(395,-97,o),
(361,-97,cs),
(348,-97,o),
(335,-95,o),
(325,-91,c),
(325,-206,l),
(345,-212,o),
(364,-215,o),
(387,-215,cs)
);
},
{
closed = 1;
nodes = (
(210,0,l),
(210,390,l),
(207,390,l),
(207,510,l),
(60,510,l),
(60,0,l)
);
}
);
width = 619;
}
);
metricLeft = n;
metricRight = n;
unicode = 331;
},
